<svg width="58" height="58" viewBox="0 0 58 58" fill="none" xmlns="http://www.w3.org/2000/svg">
<path d="M52.2236 46.0094C53.5277 45.0153 54.375 43.4502 54.375 41.6875C54.375 38.9987 52.4112 36.7657 49.8438 36.3316V35.3438C49.8438 32.8452 47.811 30.8125 45.3125 30.8125H29.9062V27.5101C30.3956 27.8826 30.9838 28.0938 31.6091 28.0938C33.1352 28.0938 34.3741 26.8776 34.4275 25.365C35.9065 25.3125 37.0937 24.1253 37.1463 22.6463C38.6253 22.5937 39.8125 21.4065 39.865 19.9275C41.3776 19.8741 42.5938 18.6343 42.5938 17.1091C42.5938 16.3533 42.2992 15.6428 41.7654 15.109L41.5769 14.9205C42.8221 13.3926 43.5 11.5003 43.5 9.50203C43.5 4.76234 39.6439 0.90625 34.9042 0.90625C32.6866 0.90625 30.6032 1.74725 29 3.26613C27.3968 1.74725 25.3134 0.90625 23.0958 0.90625C18.3561 0.90625 14.5 4.76234 14.5 9.50203C14.5 11.7287 15.3473 13.8212 16.8789 15.4271C16.5173 15.9128 16.3125 16.4928 16.3125 17.1091C16.3125 18.6352 17.5287 19.8741 19.0412 19.9275C19.0938 21.4065 20.281 22.5937 21.76 22.6463C21.8125 24.1253 22.9997 25.3125 24.4787 25.365C24.5322 26.8776 25.7719 28.0938 27.2972 28.0938C27.5727 28.0938 27.8373 28.0421 28.0938 27.9669V30.8125H12.6875C10.189 30.8125 8.15625 32.8452 8.15625 35.3438V36.3316C5.58884 36.7657 3.625 38.9987 3.625 41.6875C3.625 43.4502 4.47234 45.0153 5.77644 46.0094C2.91269 47.2763 0.90625 50.141 0.90625 53.4688V57.0938H17.2188V53.4688C17.2188 50.141 15.2123 47.2763 12.3486 46.0094C13.6527 45.0153 14.5 43.4502 14.5 41.6875C14.5 38.9987 12.5362 36.7657 9.96875 36.3316V35.3438C9.96875 33.8448 11.1886 32.625 12.6875 32.625H28.0938V36.3316C25.5263 36.7648 23.5625 38.9977 23.5625 41.6875C23.5625 43.4502 24.4098 45.0153 25.7139 46.0094C22.8502 47.2763 20.8438 50.141 20.8438 53.4688V57.0938H37.1562V53.4688C37.1562 50.141 35.1498 47.2763 32.2861 46.0094C33.5902 45.0153 34.4375 43.4502 34.4375 41.6875C34.4375 38.9987 32.4737 36.7657 29.9062 36.3316V32.625H45.3125C46.8114 32.625 48.0312 33.8448 48.0312 35.3438V36.3316C45.4638 36.7648 43.5 38.9977 43.5 41.6875C43.5 43.4502 44.3473 45.0153 45.6514 46.0094C42.7877 47.2763 40.7812 50.141 40.7812 53.4688V57.0938H57.0938V53.4688C57.0938 50.141 55.0873 47.2763 52.2236 46.0094ZM34.9042 2.71875C38.6443 2.71875 41.6875 5.76194 41.6875 9.50203C41.6875 11.0146 41.19 12.4473 40.2828 13.6255L36.1159 9.45853C36.3859 9.25553 36.6478 9.03984 36.8916 8.79697L35.6102 7.51553C34.6115 8.51331 33.2857 9.0625 31.8737 9.0625H30.4373L28.8903 10.6095C28.7191 10.7807 28.4907 10.875 28.2487 10.875H24.8439C24.6373 10.875 24.4688 10.7064 24.4688 10.4998C24.4688 10.401 24.5086 10.3041 24.5784 10.2343L30.1074 4.70525C31.3889 3.42472 33.0917 2.71875 34.9042 2.71875ZM23.0958 2.71875C24.8249 2.71875 26.4507 3.36762 27.7095 4.53941L23.2961 8.95284C22.8837 9.36519 22.6562 9.91528 22.6562 10.4998C22.6562 11.706 23.6377 12.6875 24.8439 12.6875H28.2487C28.9746 12.6875 29.6579 12.4047 30.1718 11.8909L31.1877 10.875H31.8737C32.7791 10.875 33.6563 10.7019 34.4738 10.3802L40.484 16.3904C40.6752 16.5826 40.7812 16.8372 40.7812 17.1091C40.7812 17.6692 40.3254 18.125 39.7653 18.125C39.4935 18.125 39.2388 18.019 39.0467 17.8278L36.8907 15.6718L35.6093 16.9532L37.7653 19.1092C37.9565 19.3013 38.0625 19.556 38.0625 19.8278C38.0625 20.3879 37.6067 20.8438 37.0466 20.8438C36.7747 20.8438 36.5201 20.7377 36.3279 20.5465L34.172 18.3905L32.8905 19.672L35.0465 21.8279C35.2377 22.0201 35.3438 22.2747 35.3438 22.5466C35.3438 23.1067 34.8879 23.5625 34.3278 23.5625C34.056 23.5625 33.8013 23.4565 33.6092 23.2653L31.4532 21.1093L30.1718 22.3907L32.3278 24.5467C32.519 24.7388 32.625 24.9935 32.625 25.2653C32.625 25.8254 32.1692 26.2812 31.6091 26.2812C31.3372 26.2812 31.0826 26.1752 30.8904 25.984L30.5877 25.6813C30.7337 25.3369 30.8125 24.9645 30.8125 24.5784C30.8125 23.0523 29.5963 21.8134 28.0838 21.76C28.0312 20.281 26.844 19.0938 25.365 19.0412C25.3125 17.5622 24.1253 16.375 22.6463 16.3225C22.5928 14.8099 21.3531 13.5938 19.8278 13.5938C19.2179 13.5938 18.6434 13.7931 18.1622 14.1475C16.9713 12.8842 16.3125 11.2457 16.3125 9.50203C16.3125 5.76194 19.3557 2.71875 23.0958 2.71875ZM18.125 17.1091C18.125 16.8372 18.231 16.5826 18.4222 16.3904L19.1092 15.7035C19.3013 15.5123 19.556 15.4062 19.8278 15.4062C20.3879 15.4062 20.8438 15.8621 20.8438 16.4222C20.8438 16.694 20.7377 16.9487 20.5465 17.1408L19.8596 17.8278C19.6674 18.019 19.4128 18.125 19.1409 18.125C18.5808 18.125 18.125 17.6692 18.125 17.1091ZM20.8438 19.8278C20.8438 19.556 20.9498 19.3013 21.141 19.1092L21.8279 18.4222C22.0201 18.231 22.2747 18.125 22.5466 18.125C23.1067 18.125 23.5625 18.5808 23.5625 19.1409C23.5625 19.4128 23.4565 19.6674 23.2653 19.8596L22.5783 20.5465C22.3862 20.7377 22.1315 20.8438 21.8597 20.8438C21.2996 20.8438 20.8438 20.3879 20.8438 19.8278ZM23.5625 22.5466C23.5625 22.2747 23.6685 22.0201 23.8597 21.8279L24.5467 21.141C24.7388 20.9498 24.9935 20.8438 25.2653 20.8438C25.8254 20.8438 26.2812 21.2996 26.2812 21.8597C26.2812 22.1315 26.1752 22.3862 25.984 22.5783L25.2971 23.2653C25.1049 23.4565 24.8503 23.5625 24.5784 23.5625C24.0183 23.5625 23.5625 23.1067 23.5625 22.5466ZM27.2972 26.2812C26.7371 26.2812 26.2812 25.8254 26.2812 25.2653C26.2812 24.9935 26.3873 24.7388 26.5785 24.5467L27.2654 23.8597C27.4576 23.6685 27.7122 23.5625 27.9841 23.5625C28.5442 23.5625 29 24.0183 29 24.5784C29 24.8503 28.894 25.1049 28.7028 25.2971L28.0158 25.984C27.8237 26.1752 27.569 26.2812 27.2972 26.2812ZM15.4062 53.4688V55.2812H13.5938V51.6562H11.7812V55.2812H6.34375V51.6562H4.53125V55.2812H2.71875V53.4688C2.71875 49.9706 5.56437 47.125 9.0625 47.125C12.5606 47.125 15.4062 49.9706 15.4062 53.4688ZM12.6875 41.6875C12.6875 43.6867 11.0617 45.3125 9.0625 45.3125C7.06331 45.3125 5.4375 43.6867 5.4375 41.6875C5.4375 39.6883 7.06331 38.0625 9.0625 38.0625C11.0617 38.0625 12.6875 39.6883 12.6875 41.6875ZM35.3438 53.4688V55.2812H33.5312V51.6562H31.7188V55.2812H26.2812V51.6562H24.4688V55.2812H22.6562V53.4688C22.6562 49.9706 25.5019 47.125 29 47.125C32.4981 47.125 35.3438 49.9706 35.3438 53.4688ZM32.625 41.6875C32.625 43.6867 30.9992 45.3125 29 45.3125C27.0008 45.3125 25.375 43.6867 25.375 41.6875C25.375 39.6883 27.0008 38.0625 29 38.0625C30.9992 38.0625 32.625 39.6883 32.625 41.6875ZM45.3125 41.6875C45.3125 39.6883 46.9383 38.0625 48.9375 38.0625C50.9367 38.0625 52.5625 39.6883 52.5625 41.6875C52.5625 43.6867 50.9367 45.3125 48.9375 45.3125C46.9383 45.3125 45.3125 43.6867 45.3125 41.6875ZM55.2812 55.2812H53.4688V51.6562H51.6562V55.2812H46.2188V51.6562H44.4062V55.2812H42.5938V53.4688C42.5938 49.9706 45.4394 47.125 48.9375 47.125C52.4356 47.125 55.2812 49.9706 55.2812 53.4688V55.2812Z" fill="black"/>
<path d="M34.4375 34.4375H36.25V36.25H34.4375V34.4375Z" fill="black"/>
<path d="M38.0625 34.4375H39.875V36.25H38.0625V34.4375Z" fill="black"/>
<path d="M41.6875 34.4375H43.5V36.25H41.6875V34.4375Z" fill="black"/>
<path d="M14.5 34.4375H16.3125V36.25H14.5V34.4375Z" fill="black"/>
<path d="M18.125 34.4375H19.9375V36.25H18.125V34.4375Z" fill="black"/>
<path d="M21.75 34.4375H23.5625V36.25H21.75V34.4375Z" fill="black"/>
</svg>
