<svg width="58" height="58" viewBox="0 0 58 58" fill="none" xmlns="http://www.w3.org/2000/svg">
<path d="M49.2812 19.3816C49.2805 19.3816 49.2798 19.3816 49.2792 19.3816H0.830413C0.372329 19.3811 0.000484962 19.752 4.74138e-07 20.2101C4.74138e-07 20.2107 4.74138e-07 20.2114 4.74138e-07 20.212V43.4674C-0.000484014 43.9255 0.370392 44.2974 0.828475 44.2978C0.829081 44.2978 0.829807 44.2978 0.830413 44.2978H33.7756C34.2342 44.2978 34.606 43.926 34.606 43.4674C34.606 43.0089 34.2342 42.637 33.7756 42.637H1.66083V21.0424H48.4488V23.1189C48.4483 23.577 48.8192 23.9489 49.2773 23.9493C49.2779 23.9493 49.2786 23.9493 49.2792 23.9493C49.7373 23.9498 50.1091 23.579 50.1096 23.1209C50.1096 23.1203 50.1096 23.1195 50.1096 23.1189V20.212C50.1101 19.7539 49.7392 19.3822 49.2812 19.3816Z" fill="black"/>
<path d="M43.6477 15.526L4.88862 6.80525C4.67351 6.75717 4.4481 6.79617 4.26169 6.91378C4.07553 7.03235 3.94387 7.21973 3.89542 7.43508L1.95747 16.1559C1.85791 16.6038 2.14036 17.0476 2.58827 17.1471C3.03618 17.2467 3.47997 16.9642 3.57953 16.5163L5.33629 8.60851L43.2833 17.1462C43.3434 17.1601 43.4048 17.167 43.4665 17.1665C43.925 17.1657 44.2962 16.7932 44.2954 16.3346C44.2947 15.9469 44.0258 15.6114 43.6477 15.526Z" fill="black"/>
<path d="M38.9407 10.7209L15.6853 1.03111C15.2811 0.862624 14.8154 1.03571 14.6195 1.42742L12.6815 5.30332C12.4626 5.70811 12.6133 6.21379 13.0182 6.43266C13.423 6.65153 13.9287 6.50085 14.1476 6.09594C14.1562 6.08008 14.1643 6.06385 14.1718 6.04737V6.04931L15.7619 2.86719L38.2993 12.2575C38.7237 12.4346 39.2113 12.2343 39.3884 11.8099C39.5655 11.3857 39.3651 10.8981 38.9407 10.7209Z" fill="black"/>
<path d="M39.529 23.2574H31.8382C31.3797 23.2574 31.0078 23.6293 31.0078 24.0879C31.0078 24.5464 31.3797 24.9183 31.8382 24.9183H39.529C39.9876 24.9183 40.3594 24.5464 40.3594 24.0879C40.3594 23.6293 39.9876 23.2574 39.529 23.2574Z" fill="black"/>
<path d="M24.0856 23.3126C19.3762 23.3126 15.5586 27.1303 15.5586 31.8396C15.5634 36.5469 19.3783 40.3618 24.0856 40.3666C28.7949 40.3666 32.6126 36.549 32.6126 31.8396C32.6126 27.1303 28.7949 23.3126 24.0856 23.3126ZM24.0856 38.8162C20.2325 38.8162 17.109 35.6927 17.109 31.8396C17.1132 27.9883 20.2343 24.8672 24.0856 24.863C27.9387 24.863 31.0622 27.9865 31.0622 31.8396C31.0622 35.6927 27.9387 38.8162 24.0856 38.8162Z" fill="black"/>
<path d="M47.3414 26.0259C42.2058 26.0259 36.6826 27.239 36.6826 29.9018V53.1572C36.6826 55.82 42.2058 57.0331 47.3414 57.0331C52.4769 57.0331 58.0001 55.82 58.0001 53.1572V29.9018C58.0001 27.239 52.4769 26.0259 47.3414 26.0259ZM56.0621 53.1427C55.9158 53.6805 53.0099 55.0952 47.3414 55.0952C41.6728 55.0952 38.7669 53.6805 38.6206 53.1572V51.634C40.6825 52.6727 44.0885 53.1572 47.3414 53.1572C50.5942 53.1572 54.0011 52.6679 56.0621 51.633V53.1427ZM56.0621 49.2668C55.9158 49.8045 53.0099 51.2193 47.3414 51.2193C41.6728 51.2193 38.7669 49.8045 38.6206 49.2813V47.7581C40.6825 48.7968 44.0885 49.2813 47.3414 49.2813C50.5942 49.2813 54.0011 48.792 56.0621 47.7571V49.2668ZM56.0621 45.3909C55.9158 45.9286 53.0099 47.3433 47.3414 47.3433C41.6728 47.3433 38.7669 45.9286 38.6206 45.4054V43.8822C40.6825 44.9209 44.0885 45.4054 47.3414 45.4054C50.5942 45.4054 54.0011 44.9161 56.0621 43.8812V45.3909ZM56.0621 41.515C55.9158 42.0527 53.0099 43.4674 47.3414 43.4674C41.6728 43.4674 38.7669 42.0527 38.6206 41.5295V40.0063C40.6825 41.045 44.0885 41.5295 47.3414 41.5295C50.5942 41.5295 54.0011 41.0402 56.0621 40.0053V41.515ZM56.0621 37.6391C55.9158 38.1768 53.0099 39.5915 47.3414 39.5915C41.6728 39.5915 38.7669 38.1768 38.6206 37.6536V36.1304C40.6825 37.1643 44.0885 37.6536 47.3414 37.6536C50.5942 37.6536 54.0011 37.1643 56.0621 36.1294V37.6391ZM56.0621 33.7632C55.9158 34.3009 53.0099 35.7156 47.3414 35.7156C41.6728 35.7156 38.7669 34.3009 38.6206 33.7777V32.2545C40.6825 33.2884 44.0885 33.7777 47.3414 33.7777C50.5942 33.7777 54.0011 33.2884 56.0621 32.2535V33.7632ZM47.3414 31.8397C41.6816 31.8397 38.7766 30.4289 38.6206 29.9192V29.9134C38.7766 29.3737 41.6816 27.9638 47.3414 27.9638C52.9614 27.9638 55.8683 29.3533 56.0621 29.9018C55.8683 30.4502 52.9614 31.8397 47.3414 31.8397Z" fill="black"/>
<path d="M16.3341 38.7601H9.00961L5.5368 34.9617V28.6634L9.372 24.9183H16.3341C16.7927 24.9183 17.1645 24.5464 17.1645 24.0879C17.1645 23.6293 16.7927 23.2574 16.3341 23.2574H9.0348C8.81775 23.257 8.60906 23.3415 8.45341 23.4929L4.125 27.7147C3.9633 27.9037 3.87464 28.1444 3.875 28.393V35.2844C3.875 35.4916 3.9524 35.6914 4.09205 35.8444L8.029 40.1506C8.18634 40.3228 8.40896 40.421 8.64236 40.4209H16.3341C16.7927 40.4209 17.1645 40.0491 17.1645 39.5905C17.1645 39.1319 16.7928 38.7601 16.3341 38.7601Z" fill="black"/>
<path d="M24.5701 30.8708H23.6011C23.2998 30.8708 23.1167 30.7022 23.1167 30.6285C23.1167 30.5549 23.2998 30.3863 23.6011 30.3863H26.0236C26.5587 30.3863 26.9926 29.9524 26.9926 29.4173C26.9926 28.8822 26.5587 28.4483 26.0236 28.4483H25.0546C25.0546 27.9132 24.6208 27.4794 24.0856 27.4794C23.5505 27.4794 23.1167 27.9132 23.1167 28.4483V28.492C22.0419 28.6437 21.2278 29.5394 21.1787 30.6237C21.2481 31.8941 22.3302 32.8703 23.6011 32.8087H24.5701C24.8715 32.8087 25.0546 32.9773 25.0546 33.051C25.0546 33.1246 24.8715 33.2932 24.5701 33.2932H22.1477C21.6126 33.2932 21.1787 33.7271 21.1787 34.2622C21.1787 34.7973 21.6126 35.2312 22.1477 35.2312H23.1167C23.1167 35.7663 23.5505 36.2002 24.0856 36.2002C24.6208 36.2002 25.0546 35.7663 25.0546 35.2312V35.1876C26.1293 35.0358 26.9435 34.1401 26.9926 33.0558C26.9232 31.7854 25.8411 30.8093 24.5701 30.8708Z" fill="black"/>
</svg>
