<svg width="58" height="58" viewBox="0 0 58 58" fill="none" xmlns="http://www.w3.org/2000/svg">
<g clip-path="url(#clip0)">
<path d="M46.6719 15.4062C46.6719 16.0315 47.1794 16.5391 47.8047 16.5391C48.4299 16.5391 48.9375 16.0315 48.9375 15.4062C48.9375 14.781 48.4299 14.2734 47.8047 14.2734C47.1794 14.2734 46.6719 14.781 46.6719 15.4062Z" fill="black"/>
<path d="M51.2034 29C51.2034 30.451 51.0578 31.8993 50.7711 33.3047C50.6459 33.9176 51.0415 34.5159 51.6543 34.6411C51.7309 34.657 51.807 34.6645 51.8822 34.6645C52.4093 34.6645 52.8814 34.2942 52.9911 33.7579C53.3084 32.2033 53.4691 30.6028 53.4691 29C53.4691 25.433 52.6956 22.0005 51.1694 18.7976C50.9003 18.233 50.2246 17.9932 49.6595 18.2622C49.0945 18.5313 48.8551 19.2074 49.1241 19.7725C50.5038 22.6682 51.2034 25.7728 51.2034 29Z" fill="black"/>
<path d="M34.6641 39.1953H33.5312V24.4688C33.5312 23.843 33.0241 23.3359 32.3984 23.3359H23.3359C22.7102 23.3359 22.2031 23.843 22.2031 24.4688V29C22.2031 29.6257 22.7102 30.1328 23.3359 30.1328H24.4688V39.1953H23.3359C22.7102 39.1953 22.2031 39.7024 22.2031 40.3281V44.8594C22.2031 45.4851 22.7102 45.9922 23.3359 45.9922H34.6641C35.2898 45.9922 35.7969 45.4851 35.7969 44.8594V40.3281C35.7969 39.7024 35.2898 39.1953 34.6641 39.1953ZM33.5312 43.7266H24.4688V41.4609H25.6016C26.2273 41.4609 26.7344 40.9538 26.7344 40.3281V29C26.7344 28.3743 26.2273 27.8672 25.6016 27.8672H24.4688V25.6016H31.2656V40.3281C31.2656 40.9538 31.7732 41.4609 32.3984 41.4609H33.5312V43.7266Z" fill="black"/>
<path d="M29 21.0703C31.4984 21.0703 33.5312 19.0374 33.5312 16.5391C33.5312 14.0407 31.4984 12.0078 29 12.0078C26.5016 12.0078 24.4688 14.0407 24.4688 16.5391C24.4688 19.0374 26.5016 21.0703 29 21.0703ZM29 14.2734C30.2492 14.2734 31.2656 15.2899 31.2656 16.5391C31.2656 17.7883 30.2492 18.8047 29 18.8047C27.7508 18.8047 26.7344 17.7883 26.7344 16.5391C26.7344 15.2899 27.7508 14.2734 29 14.2734Z" fill="black"/>
<path d="M29 0C13.3699 0 4.93996e-05 13.3446 4.93996e-05 29C4.93996e-05 34.3477 1.53244 40.0347 4.11623 44.3363L0.0580176 56.5092C-0.077389 56.9159 0.0283697 57.365 0.331928 57.6681C0.636814 57.973 1.0864 58.077 1.49129 57.9416L13.6642 53.8838C17.9653 56.468 23.6524 58 29 58C44.6342 58 58 44.6536 58 29C58 13.3659 44.6541 0 29 0V0ZM29 55.7344C23.8701 55.7344 18.4175 54.2206 14.4142 51.685C14.1306 51.5054 13.777 51.458 13.4495 51.5673L2.92412 55.0759L6.43274 44.5505C6.54071 44.2275 6.49735 43.8735 6.31504 43.5858C3.77948 39.5829 2.26567 34.13 2.26567 29C2.26567 14.5084 14.5085 2.26562 29 2.26562C43.4916 2.26562 55.7344 14.5084 55.7344 29C55.7344 43.4916 43.4916 55.7344 29 55.7344Z" fill="black"/>
</g>
<defs>
<clipPath id="clip0">
<rect width="58" height="58" fill="white"/>
</clipPath>
</defs>
</svg>
