<svg width="300" height="300" viewBox="0 0 300 300" fill="none" xmlns="http://www.w3.org/2000/svg">
<path d="M74.4899 261.192C74.4899 261.192 105.78 277.458 141.54 260.31C177.3 243.162 188.94 209.91 207.468 184.962C217.188 171.888 233.088 164.604 245.22 153.612C284.004 118.458 270 59.688 234.528 43.56C203.802 29.598 168.312 34.602 124.338 58.236C80.3639 81.87 48.6779 97.128 25.5899 144.228C2.50192 191.328 35.5859 238.398 74.4899 261.192Z" fill="#90CAF9"/>
<path opacity="0.8" d="M74.4899 261.192C74.4899 261.192 105.78 277.458 141.54 260.31C177.3 243.162 188.94 209.91 207.468 184.962C217.188 171.888 233.088 164.604 245.22 153.612C284.004 118.458 270 59.688 234.528 43.56C203.802 29.598 168.312 34.602 124.338 58.236C80.3639 81.87 48.6779 97.128 25.5899 144.228C2.50192 191.328 35.5859 238.398 74.4899 261.192Z" fill="white"/>
<path d="M21.9956 220.956H263.826" stroke="#263238" stroke-miterlimit="10"/>
<path d="M21.9956 175.17H263.826" stroke="#263238" stroke-miterlimit="10"/>
<path d="M21.9956 129.384H263.826" stroke="#263238" stroke-miterlimit="10"/>
<path d="M21.9956 83.5979H263.826" stroke="#263238" stroke-miterlimit="10"/>
<path d="M76.98 57.6V221.064" stroke="#263238" stroke-miterlimit="10"/>
<path d="M222.336 57.6V221.064" stroke="#263238" stroke-miterlimit="10"/>
<path d="M82.3796 118.194L80.5796 120.09" stroke="#263238" stroke-miterlimit="10"/>
<path d="M113.034 85.866L84.5459 115.908" stroke="#263238" stroke-miterlimit="10"/>
<path d="M114.81 90.756L98.8076 107.202" stroke="#263238" stroke-miterlimit="10"/>
<path d="M228.558 118.194L226.758 120.09" stroke="#263238" stroke-miterlimit="10"/>
<path d="M259.206 85.866L230.724 115.908" stroke="#263238" stroke-miterlimit="10"/>
<path d="M260.988 90.756L244.986 107.202" stroke="#263238" stroke-miterlimit="10"/>
<path d="M18.3718 210.654L16.5718 212.55" stroke="#263238" stroke-miterlimit="10"/>
<path d="M49.0196 178.32L20.5376 208.368" stroke="#263238" stroke-miterlimit="10"/>
<path d="M50.8019 183.21L34.7939 199.662" stroke="#263238" stroke-miterlimit="10"/>
<path d="M41.9278 79.08L40.1338 80.976" stroke="#263238" stroke-miterlimit="10"/>
<path d="M72.5816 46.746L44.0996 76.788" stroke="#263238" stroke-miterlimit="10"/>
<path d="M74.358 51.636L58.356 68.082" stroke="#263238" stroke-miterlimit="10"/>
<path d="M175.128 79.08L173.334 80.976" stroke="#263238" stroke-miterlimit="10"/>
<path d="M205.782 46.746L177.3 76.788" stroke="#263238" stroke-miterlimit="10"/>
<path d="M207.558 51.636L191.556 68.082" stroke="#263238" stroke-miterlimit="10"/>
<path d="M133.944 165.756L132.144 167.652" stroke="#263238" stroke-miterlimit="10"/>
<path d="M164.592 133.428L136.11 163.47" stroke="#263238" stroke-miterlimit="10"/>
<path d="M166.374 138.318L150.372 154.764" stroke="#263238" stroke-miterlimit="10"/>
<path d="M256.752 254.79C256.752 254.79 241.896 223.134 245.124 222.222C248.352 221.31 255.12 226.35 255.12 226.35C255.12 226.35 235.26 173.13 240.402 169.002C245.544 164.874 255.144 186 255.144 186C255.144 186 244.89 153.402 246.096 141C247.302 128.598 260.328 140.544 260.328 140.544C260.328 140.544 249.894 96.0421 259.584 93.7441C269.274 91.4461 268.95 144.666 268.95 144.666C268.95 144.666 272.13 106.584 276.012 117.138C279.894 127.692 271.734 163.014 271.734 163.014C271.734 163.014 277.056 151.086 280.014 162.096C282.972 173.106 274.134 217.608 274.134 217.608C274.134 217.608 281.646 210.27 282.348 219.444C283.05 228.618 266.796 257.064 266.796 257.064L257.598 258L256.752 254.79Z" fill="#90CAF9"/>
<path opacity="0.6" d="M256.752 254.79C256.752 254.79 241.896 223.134 245.124 222.222C248.352 221.31 255.12 226.35 255.12 226.35C255.12 226.35 235.26 173.13 240.402 169.002C245.544 164.874 255.144 186 255.144 186C255.144 186 244.89 153.402 246.096 141C247.302 128.598 260.328 140.544 260.328 140.544C260.328 140.544 249.894 96.0421 259.584 93.7441C269.274 91.4461 268.95 144.666 268.95 144.666C268.95 144.666 272.13 106.584 276.012 117.138C279.894 127.692 271.734 163.014 271.734 163.014C271.734 163.014 277.056 151.086 280.014 162.096C282.972 173.106 274.134 217.608 274.134 217.608C274.134 217.608 281.646 210.27 282.348 219.444C283.05 228.618 266.796 257.064 266.796 257.064L257.598 258L256.752 254.79Z" fill="white"/>
<path d="M259.926 256.2C259.926 256.2 247.542 234.18 249.834 230.046C252.126 225.912 259.008 235.554 259.008 235.554C259.008 235.554 243.408 196.554 245.706 192.888C248.004 189.222 255.342 205.278 255.342 205.278C255.342 205.278 252.588 151.602 257.172 153.432C261.756 155.262 262.2 180.93 262.2 180.93C262.2 180.93 259.452 119.916 263.58 121.752C267.708 123.588 267.252 191.484 267.252 191.484C267.252 191.484 275.508 165.33 276.882 177.258C278.256 189.186 266.334 221.304 266.334 221.304C266.334 221.304 277.8 196.068 279.198 209.4C280.596 222.732 270 247.452 270 247.452C270 247.452 274.128 237.36 274.128 242.862C274.128 248.364 270.918 255.252 270.918 255.252" stroke="#263238" stroke-linecap="round" stroke-linejoin="round"/>
<path d="M225.852 187.944L242.562 224.412L232.05 227.376L219.654 211.944L225.852 187.944Z" fill="#90CAF9"/>
<g opacity="0.1">
<path opacity="0.1" d="M222.834 199.62L222.126 202.374L236.004 226.26L237.996 225.702L222.834 199.62Z" fill="black"/>
<path opacity="0.1" d="M232.128 227.358L234.132 226.794L221.22 205.872L220.53 208.554L232.128 227.358Z" fill="black"/>
<path opacity="0.1" d="M224.55 192.978L223.818 195.822L239.754 225.204L241.722 224.646L224.55 192.978Z" fill="black"/>
</g>
<path d="M225.852 187.944L242.562 224.412L232.05 227.376L219.654 211.944L225.852 187.944Z" stroke="#263238" stroke-linecap="round" stroke-linejoin="round"/>
<path d="M192.618 177.786L170.856 187.812L182.46 234.894L178.764 254.7H220.05L215.964 233.178L225.984 187.944L203.166 178.578L192.618 177.786Z" fill="#90CAF9"/>
<g opacity="0.1">
<path opacity="0.1" d="M192.816 254.7L193.65 235.944C193.659 235.856 193.659 235.768 193.65 235.68L185.1 181.254L182.58 182.412L190.98 235.962L190.146 254.7H192.816Z" fill="black"/>
<path opacity="0.1" d="M197.82 231.456C197.82 231.456 197.82 231.408 197.82 231.384L191.04 178.512L188.502 179.712L195.162 231.714L196.878 254.73H199.554L197.82 231.456Z" fill="black"/>
<path opacity="0.1" d="M185.268 254.7L187.668 236.394C187.689 236.259 187.689 236.121 187.668 235.986L178.518 184.296L176.016 185.448L185.016 236.25L182.616 254.7H185.268Z" fill="black"/>
<path opacity="0.1" d="M225.036 187.554L222.522 186.522L213.348 233.964C213.321 234.119 213.321 234.277 213.348 234.432L216.648 254.7H219.354L216 234.24L216.078 233.85L215.946 233.178L217.956 224.124L225.036 187.554Z" fill="black"/>
<path opacity="0.1" d="M200.988 183.174L198.324 183.252L200.538 254.7H203.202L200.988 183.174Z" fill="black"/>
<path opacity="0.1" d="M210.342 233.892L219.204 185.16L216.684 184.122L207.684 233.646C207.654 233.799 207.654 233.955 207.684 234.108L211.2 254.7H213.906L210.342 233.892Z" fill="black"/>
<path opacity="0.1" d="M205.5 232.236L212.238 182.298L209.688 181.254L202.836 232.044C202.822 232.151 202.822 232.26 202.836 232.368L205.32 254.7H208.002L205.5 232.236Z" fill="black"/>
</g>
<path d="M192.618 177.786L170.856 187.812L182.46 234.894L178.764 254.7H220.05L215.964 233.178L225.984 187.944L203.166 178.578L192.618 177.786Z" stroke="#263238" stroke-linecap="round" stroke-linejoin="round"/>
<path d="M170.856 187.812L153.714 224.934L164.658 227.244L177.054 211.812L170.856 187.812Z" fill="#90CAF9"/>
<g opacity="0.1">
<path opacity="0.1" d="M175.362 205.26L163.422 226.986L164.658 227.244L167.514 223.686L176.088 208.086L175.362 205.26Z" fill="black"/>
<path opacity="0.1" d="M174.288 201.108L173.508 198.084L160.182 226.302L162.192 226.728L174.288 201.108Z" fill="black"/>
<path opacity="0.1" d="M155.832 225.378L157.842 225.804L172.584 194.502L171.798 191.466L155.832 225.378Z" fill="black"/>
</g>
<path d="M170.406 193.992L176.454 210.222L170.382 200.928" stroke="#263238" stroke-miterlimit="10"/>
<path d="M170.856 187.812L153.714 224.934L164.658 227.244L177.054 211.812L170.856 187.812Z" stroke="#263238" stroke-linecap="round" stroke-linejoin="round"/>
<path d="M165.444 221.706L187.074 246.372L182.874 251.118L155.616 229.41C155.616 229.41 151.878 227.61 154.122 223.95" fill="#90CAF9"/>
<g opacity="0.1">
<path opacity="0.1" d="M184.806 248.088L186.834 246.354L175.926 233.658L165.444 221.706L162.624 222.264L184.806 248.088Z" fill="black"/>
<path opacity="0.1" d="M180.486 249.228L182.292 250.668L183.99 249.174L160.662 222.654L157.638 223.248L180.486 249.228Z" fill="black"/>
</g>
<path d="M165.444 221.706L187.074 246.372L182.874 251.118L155.616 229.41C155.616 229.41 151.878 227.61 154.122 223.95" stroke="#263238" stroke-linecap="round" stroke-linejoin="round"/>
<path d="M183.6 245.442C184.2 245.106 194.634 242.61 194.778 243.888C194.922 245.166 198.03 246.576 199.446 246.576C200.862 246.576 202.278 245.442 202.56 247.14C202.842 248.838 201.288 248.982 200.016 249.12C198.744 249.258 194.352 247.848 194.352 247.848C194.352 247.848 190.248 251.244 188.55 252.09C186.852 252.936 183.75 252.69 182.61 251.808C181.47 250.926 179.928 247.422 183.6 245.442Z" fill="white" stroke="#263238" stroke-linecap="round" stroke-linejoin="round"/>
<path d="M193.23 243.744C193.23 243.744 197.19 242.61 198.03 243.036C198.87 243.462 199.308 251.952 199.308 251.952C199.308 251.952 198.882 252.798 198.03 251.952C197.178 251.106 194.352 244.752 194.352 244.752" fill="white"/>
<path d="M193.23 243.744C193.23 243.744 197.19 242.61 198.03 243.036C198.87 243.462 199.308 251.952 199.308 251.952C199.308 251.952 198.882 252.798 198.03 251.952C197.178 251.106 194.352 244.752 194.352 244.752" stroke="#263238" stroke-linecap="round" stroke-linejoin="round"/>
<path d="M191.244 244.026C191.244 244.026 195.348 243.036 196.2 244.59C197.052 246.144 199.17 253.08 197.472 253.368C195.774 253.656 195.21 251.382 195.21 251.382L192.522 246.432L190.68 246.15" fill="white"/>
<path d="M191.244 244.026C191.244 244.026 195.348 243.036 196.2 244.59C197.052 246.144 199.17 253.08 197.472 253.368C195.774 253.656 195.21 251.382 195.21 251.382L192.522 246.432L190.68 246.15" stroke="#263238" stroke-linecap="round" stroke-linejoin="round"/>
<path d="M189.834 245.298C189.834 245.298 191.814 244.452 192.804 245.16C193.794 245.868 198.324 253.08 197.472 253.368C196.62 253.656 194.64 253.506 194.358 252.942C194.076 252.378 190.398 247.542 190.398 247.542" fill="white"/>
<path d="M189.834 245.298C189.834 245.298 191.814 244.452 192.804 245.16C193.794 245.868 198.324 253.08 197.472 253.368C196.62 253.656 194.64 253.506 194.358 252.942C194.076 252.378 190.398 247.542 190.398 247.542" stroke="#263238" stroke-linecap="round" stroke-linejoin="round"/>
<path d="M188.4 247.704C188.4 247.704 190.236 246.006 191.226 246.576C192.216 247.146 196.32 252.516 195.474 253.08C194.628 253.644 194.058 253.08 193.212 251.952C192.605 251.191 191.889 250.524 191.088 249.972L189.39 250.536" fill="white"/>
<path d="M188.4 247.704C188.4 247.704 190.236 246.006 191.226 246.576C192.216 247.146 196.32 252.516 195.474 253.08C194.628 253.644 194.058 253.08 193.212 251.952C192.605 251.191 191.889 250.524 191.088 249.972L189.39 250.536" stroke="#263238" stroke-linecap="round" stroke-linejoin="round"/>
<path d="M230.208 222.498L223.008 246.996L228.216 250.632L239.982 231.72C239.982 231.72 244.818 226.26 241.782 223.188" fill="#90CAF9"/>
<g opacity="0.1">
<path opacity="0.1" d="M228.378 250.338L228.468 250.188L238.434 222.99L235.65 222.822L226.02 249.114L227.1 249.864L228.378 250.338Z" fill="black"/>
<path opacity="0.1" d="M223.02 247.014L225.282 248.598L234.582 222.834L234.324 222.744L231.834 222.594L223.02 247.014Z" fill="black"/>
<path opacity="0.1" d="M242.604 224.622C242.444 224.08 242.151 223.587 241.752 223.188L240.324 223.104L232.8 243.258L239.952 231.75L242.604 224.622Z" fill="black"/>
</g>
<path d="M230.208 222.498L223.008 246.996L228.216 250.632L239.982 231.72C239.982 231.72 244.818 226.26 241.782 223.188" stroke="#263238" stroke-linecap="round" stroke-linejoin="round"/>
<path d="M226.632 245.442C226.032 245.106 215.592 242.61 215.454 243.888C215.316 245.166 212.196 246.576 210.786 246.576C209.376 246.576 207.954 245.442 207.672 247.14C207.39 248.838 208.944 248.982 210.216 249.12C211.488 249.258 215.88 247.848 215.88 247.848C215.88 247.848 219.984 251.244 221.682 252.09C223.38 252.936 226.482 252.69 227.622 251.808C228.762 250.926 230.31 247.422 226.632 245.442Z" fill="white" stroke="#263238" stroke-linecap="round" stroke-linejoin="round"/>
<path d="M217.008 243.744C217.008 243.744 213.048 242.61 212.208 243.036C211.368 243.462 210.936 251.952 210.936 251.952C210.936 251.952 211.362 252.798 212.208 251.952C213.054 251.106 215.892 244.752 215.892 244.752" fill="white"/>
<path d="M217.008 243.744C217.008 243.744 213.048 242.61 212.208 243.036C211.368 243.462 210.936 251.952 210.936 251.952C210.936 251.952 211.362 252.798 212.208 251.952C213.054 251.106 215.892 244.752 215.892 244.752" stroke="#263238" stroke-linecap="round" stroke-linejoin="round"/>
<path d="M219 244.026C219 244.026 214.902 243.036 214.05 244.59C213.198 246.144 211.05 253.08 212.778 253.368C214.506 253.656 215.04 251.382 215.04 251.382L217.728 246.432L219.57 246.15" fill="white"/>
<path d="M219 244.026C219 244.026 214.902 243.036 214.05 244.59C213.198 246.144 211.05 253.08 212.778 253.368C214.506 253.656 215.04 251.382 215.04 251.382L217.728 246.432L219.57 246.15" stroke="#263238" stroke-linecap="round" stroke-linejoin="round"/>
<path d="M220.404 245.298C220.404 245.298 218.424 244.452 217.434 245.16C216.444 245.868 211.914 253.08 212.766 253.368C213.618 253.656 215.592 253.506 215.88 252.942C216.168 252.378 219.84 247.542 219.84 247.542" fill="white"/>
<path d="M220.404 245.298C220.404 245.298 218.424 244.452 217.434 245.16C216.444 245.868 211.914 253.08 212.766 253.368C213.618 253.656 215.592 253.506 215.88 252.942C216.168 252.378 219.84 247.542 219.84 247.542" stroke="#263238" stroke-linecap="round" stroke-linejoin="round"/>
<path d="M221.82 247.704C221.82 247.704 219.984 246 219 246.6C218.016 247.2 213.906 252.54 214.758 253.104C215.61 253.668 216.174 253.104 217.02 251.976C217.627 251.215 218.343 250.548 219.144 249.996L220.842 250.56" fill="white"/>
<path d="M221.82 247.704C221.82 247.704 219.984 246 219 246.6C218.016 247.2 213.906 252.54 214.758 253.104C215.61 253.668 216.174 253.104 217.02 251.976C217.627 251.215 218.343 250.548 219.144 249.996L220.842 250.56" stroke="#263238" stroke-linecap="round" stroke-linejoin="round"/>
<path d="M194.196 175.278C194.196 175.278 190.77 176.334 189.318 178.446C187.866 180.558 189.582 196.908 189.582 196.908L200.532 190.842L212.004 198.096C212.004 198.096 210.948 181.35 210.024 178.974C209.1 176.598 203.298 173.832 201.318 174.096C199.338 174.36 194.196 175.278 194.196 175.278Z" fill="#90CAF9" stroke="#263238" stroke-linecap="round" stroke-linejoin="round"/>
<path d="M192.618 166.182V181.35L199.872 200.868L206.07 180.954V166.05L192.618 166.182Z" fill="white" stroke="#263238" stroke-linecap="round" stroke-linejoin="round"/>
<path d="M192.6 171.63C194.648 173.067 197.089 173.836 199.59 173.832C201.876 173.834 204.117 173.189 206.052 171.972V166.05L192.6 166.2V171.63Z" fill="#263238" stroke="#263238" stroke-linecap="round" stroke-linejoin="round"/>
<path d="M199.608 170.4C196.367 170.4 193.26 169.113 190.968 166.822C188.676 164.532 187.388 161.424 187.386 158.184L185.232 141C185.232 137.181 186.749 133.518 189.45 130.818C192.15 128.117 195.813 126.6 199.632 126.6C203.451 126.6 207.114 128.117 209.814 130.818C212.515 133.518 214.032 137.181 214.032 141L211.8 158.16C211.803 159.764 211.49 161.353 210.879 162.837C210.268 164.32 209.371 165.668 208.239 166.805C207.107 167.942 205.762 168.844 204.281 169.461C202.8 170.078 201.212 170.397 199.608 170.4Z" fill="white" stroke="#263238" stroke-linecap="round" stroke-linejoin="round"/>
<path d="M202.746 153.48C202.746 153.48 205.86 150.87 209.58 153.684" stroke="#263238" stroke-linecap="round" stroke-linejoin="round"/>
<path d="M197.118 153.18C196.193 152.591 195.092 152.343 194.004 152.478" stroke="#263238" stroke-linecap="round" stroke-linejoin="round"/>
<path d="M203.952 147.252C203.952 147.252 207.27 145.644 209.28 148.758" stroke="#263238" stroke-linecap="round" stroke-linejoin="round"/>
<path d="M198.6 160.416C198.6 160.416 200.01 161.52 201.216 160.416" stroke="#263238" stroke-linecap="round" stroke-linejoin="round"/>
<path d="M197.22 162.828C197.22 162.828 200.136 164.628 201.84 162.828" stroke="#263238" stroke-linecap="round" stroke-linejoin="round"/>
<path d="M205.752 139.2C205.752 139.2 193.704 150.324 190.344 158.43C186.984 166.536 189.996 175.002 191.85 177.438C193.704 179.874 194.85 180.216 194.85 180.216C194.85 180.216 188.478 182.652 184.308 176.28C180.138 169.908 181.176 162.72 182.454 157.74C183.732 152.76 183.378 138.156 186.276 133.29C189.174 128.424 193.344 124.83 200.298 125.64C207.252 126.45 210.954 130.044 213.156 134.562C215.358 139.08 214.314 146.73 215.01 150.09C215.706 153.45 218.718 163.53 219.414 169.554C220.11 175.578 211.896 179.868 210.6 180.45C209.719 180.82 208.777 181.024 207.822 181.05C207.822 181.05 210.6 167.148 211.182 159.15C211.764 151.152 211.8 146.4 211.8 146.4C211.8 146.4 206.334 139.548 205.752 139.2Z" fill="#263238"/>
<path d="M204.342 131.4C204.342 131.4 202.92 135.318 192.69 146.544C182.46 157.77 179.682 168.48 182.79 178.944" stroke="#707070" stroke-miterlimit="10"/>
<path d="M201.816 127.488C201.816 127.488 196.188 132.15 189.216 139.134C184.931 143.457 181.272 148.359 178.344 153.696" stroke="#707070" stroke-miterlimit="10"/>
<path d="M206.862 132.342C206.862 132.342 211.134 140.106 213.462 144.768C215.79 149.43 218.514 175.632 210.36 184.968" stroke="#707070" stroke-miterlimit="10"/>
<path d="M203.952 125.934L205.752 139.2" stroke="#707070" stroke-miterlimit="10"/>
<path d="M205.752 139.2C205.752 139.2 193.704 150.324 190.344 158.43C186.984 166.536 189.996 175.002 191.85 177.438C193.704 179.874 194.85 180.216 194.85 180.216C194.85 180.216 188.478 182.652 184.308 176.28C180.138 169.908 181.176 162.72 182.454 157.74C183.732 152.76 183.378 138.156 186.276 133.29C189.174 128.424 193.344 124.83 200.298 125.64C207.252 126.45 210.954 130.044 213.156 134.562C215.358 139.08 214.314 146.73 215.01 150.09C215.706 153.45 218.718 163.53 219.414 169.554C220.11 175.578 211.896 179.868 210.6 180.45C209.719 180.82 208.777 181.024 207.822 181.05C207.822 181.05 210.6 167.148 211.182 159.15C211.764 151.152 211.8 146.4 211.8 146.4C211.8 146.4 206.334 139.548 205.752 139.2Z" stroke="#263238" stroke-linecap="round" stroke-linejoin="round"/>
<path d="M184.044 146.964H182.268C181.287 146.964 180.492 147.759 180.492 148.74V155.85C180.492 156.831 181.287 157.626 182.268 157.626H184.044C185.025 157.626 185.82 156.831 185.82 155.85V148.74C185.82 147.759 185.025 146.964 184.044 146.964Z" fill="white" stroke="#263238" stroke-linecap="round" stroke-linejoin="round"/>
<path d="M216.606 146.964H214.83C213.849 146.964 213.054 147.759 213.054 148.74V155.85C213.054 156.831 213.849 157.626 214.83 157.626H216.606C217.587 157.626 218.382 156.831 218.382 155.85V148.74C218.382 147.759 217.587 146.964 216.606 146.964Z" fill="white" stroke="#263238" stroke-linecap="round" stroke-linejoin="round"/>
<path d="M216.18 146.964V141.168C216.18 136.682 214.398 132.38 211.226 129.208C208.054 126.036 203.752 124.254 199.266 124.254C194.78 124.254 190.477 126.036 187.304 129.208C184.131 132.379 182.348 136.682 182.346 141.168V146.964" stroke="#263238" stroke-width="2" stroke-linejoin="round"/>
<path d="M215.718 157.572C215.718 157.572 214.968 163.374 207.87 165.738" stroke="#263238" stroke-linecap="round" stroke-linejoin="round"/>
<path d="M207.6 165.486C207.9 166.356 207.054 167.436 205.704 167.886C204.354 168.336 203.028 168.03 202.704 167.16C202.38 166.29 203.25 165.21 204.594 164.76C205.938 164.31 207.318 164.616 207.6 165.486Z" stroke="#263238" stroke-linecap="round" stroke-linejoin="round"/>
<path d="M86.1597 172.968L61.3677 184.782L68.5197 254.844H117.942L124.932 183.618L101.634 172.8L86.1597 172.968Z" fill="#90CAF9" stroke="#263238" stroke-linecap="round" stroke-linejoin="round"/>
<path d="M96.0959 194.346C96.5598 194.346 96.9359 193.97 96.9359 193.506C96.9359 193.042 96.5598 192.666 96.0959 192.666C95.6319 192.666 95.2559 193.042 95.2559 193.506C95.2559 193.97 95.6319 194.346 96.0959 194.346Z" fill="#263238"/>
<path d="M96.9359 198.546C96.9359 198.712 96.8866 198.874 96.7943 199.013C96.702 199.151 96.5708 199.258 96.4173 199.322C96.2638 199.386 96.0949 199.402 95.932 199.37C95.769 199.337 95.6194 199.257 95.5019 199.14C95.3844 199.022 95.3044 198.873 95.272 198.71C95.2396 198.547 95.2562 198.378 95.3198 198.224C95.3834 198.071 95.491 197.94 95.6292 197.847C95.7673 197.755 95.9297 197.706 96.0959 197.706C96.3186 197.706 96.5323 197.794 96.6898 197.952C96.8474 198.109 96.9359 198.323 96.9359 198.546Z" fill="#263238"/>
<path d="M104.694 176.544L97.9198 184.098L95.0278 191.436L91.9138 183.99L85.3618 176.544V163.32H104.694V176.544Z" fill="white" stroke="#263238" stroke-linecap="round" stroke-linejoin="round"/>
<path d="M85.3618 169.2C86.637 170.75 88.2402 171.998 90.0559 172.854C91.8716 173.71 93.8545 174.153 95.8618 174.15C99.1016 174.154 102.235 172.996 104.694 170.886V163.32H85.3618V169.2Z" fill="#263238" stroke="#263238" stroke-linecap="round" stroke-linejoin="round"/>
<path d="M97.224 126.312H94.5C87.7335 126.312 82.248 131.797 82.248 138.564V158.178C82.248 164.944 87.7335 170.43 94.5 170.43H97.224C103.991 170.43 109.476 164.944 109.476 158.178V138.564C109.476 131.797 103.991 126.312 97.224 126.312Z" fill="white" stroke="#263238" stroke-linecap="round" stroke-linejoin="round"/>
<path d="M98.4719 145.872L98.0699 155.514C98.062 155.932 97.926 156.337 97.6803 156.675C97.4346 157.013 97.0909 157.268 96.6959 157.404C95.9699 157.626 95.1419 157.404 94.6919 155.766" stroke="#263238" stroke-linecap="round" stroke-linejoin="round"/>
<path d="M90.6001 159.318H101.4C101.4 159.318 99.5101 163.434 95.8441 163.434C92.1781 163.434 90.6001 159.318 90.6001 159.318Z" fill="#263238" stroke="#263238" stroke-linecap="round" stroke-linejoin="round"/>
<path d="M91.3681 160.764H100.464C100.81 160.312 101.111 159.828 101.364 159.318H90.6001C90.8051 159.825 91.0625 160.31 91.3681 160.764Z" fill="white" stroke="#263238" stroke-linecap="round" stroke-linejoin="round"/>
<path d="M90.4738 150.21C90.9046 150.21 91.2538 149.388 91.2538 148.374C91.2538 147.36 90.9046 146.538 90.4738 146.538C90.0431 146.538 89.6938 147.36 89.6938 148.374C89.6938 149.388 90.0431 150.21 90.4738 150.21Z" fill="#263238"/>
<path d="M102.138 150.21C102.569 150.21 102.918 149.388 102.918 148.374C102.918 147.36 102.569 146.538 102.138 146.538C101.707 146.538 101.358 147.36 101.358 148.374C101.358 149.388 101.707 150.21 102.138 150.21Z" fill="#263238"/>
<path d="M99.6958 143.538C99.6958 143.538 102.36 141.87 105.366 144.54" stroke="#263238" stroke-linecap="round" stroke-linejoin="round"/>
<path d="M95.862 126.312C92.2514 126.312 88.7886 127.746 86.2355 130.299C83.6824 132.852 82.248 136.315 82.248 139.926V152.328H82.362H83.472V147.216C83.472 147.216 89.028 147.216 95.586 143.664C102.144 140.112 103.8 134.316 103.8 134.316C103.8 134.316 105.246 141.318 106.8 142.65L108.36 143.982V152.43H109.47V139.926C109.47 136.316 108.037 132.854 105.485 130.301C102.933 127.749 99.4717 126.313 95.862 126.312Z" fill="#263238" stroke="#263238" stroke-linecap="round" stroke-linejoin="round"/>
<path d="M79.698 145.764H82.248V155.874H79.698C79.0488 155.874 78.4261 155.616 77.967 155.157C77.5079 154.698 77.25 154.075 77.25 153.426V148.2C77.2532 147.553 77.5125 146.933 77.9712 146.477C78.43 146.02 79.0508 145.764 79.698 145.764Z" fill="white" stroke="#263238" stroke-linecap="round" stroke-linejoin="round"/>
<path d="M111.864 155.874H109.314V145.764H111.864C112.185 145.764 112.504 145.827 112.801 145.95C113.098 146.073 113.368 146.254 113.595 146.481C113.822 146.708 114.003 146.978 114.126 147.275C114.249 147.572 114.312 147.89 114.312 148.212V153.438C114.309 154.085 114.05 154.705 113.591 155.161C113.132 155.618 112.511 155.874 111.864 155.874Z" fill="white" stroke="#263238" stroke-linecap="round" stroke-linejoin="round"/>
<path d="M80.0278 145.764V139.314C80.0278 135.129 81.6904 131.115 84.6497 128.156C87.609 125.196 91.6227 123.534 95.8078 123.534V123.534C99.9925 123.536 104.005 125.199 106.964 128.158C109.923 131.117 111.586 135.129 111.588 139.314V145.764" stroke="#263238" stroke-width="2" stroke-linejoin="round"/>
<path d="M111.6 155.874C111.6 155.874 110.82 161.874 103.488 164.322" stroke="#263238" stroke-linecap="round" stroke-linejoin="round"/>
<path d="M103.2 164.058C103.512 164.958 102.636 166.074 101.244 166.56C99.8517 167.046 98.4717 166.704 98.1597 165.804C97.8477 164.904 98.7237 163.788 100.116 163.302C101.508 162.816 102.906 163.158 103.2 164.058Z" stroke="#263238" stroke-linecap="round" stroke-linejoin="round"/>
<path d="M61.368 184.782L40.3979 229.152L49.0499 236.7L64.692 217.068L61.368 184.782Z" fill="#90CAF9" stroke="#263238" stroke-linecap="round" stroke-linejoin="round"/>
<path d="M59.6459 198.384L64.7399 215.568L58.6919 205.698" stroke="#263238" stroke-miterlimit="10"/>
<path d="M124.932 183.618L144.9 228.216L132.588 233.544L121.602 215.904L124.932 183.618Z" fill="#90CAF9" stroke="#263238" stroke-linecap="round" stroke-linejoin="round"/>
<path d="M51.7139 228.048L69.6839 244.854L64.6919 250.68L38.5679 234.474L41.5679 226.488" fill="#90CAF9"/>
<path d="M51.7139 228.048L69.6839 244.854L64.6919 250.68L38.5679 234.474L41.5679 226.488" stroke="#263238" stroke-linecap="round" stroke-linejoin="round"/>
<path d="M66.6898 243.858C67.4218 243.462 79.6678 240.528 79.8358 242.028C80.0038 243.528 83.6638 245.19 85.3258 245.19C86.9878 245.19 88.6558 243.858 88.9858 245.856C89.3158 247.854 87.4918 248.016 85.9858 248.184C84.4798 248.352 79.3318 246.684 79.3318 246.684C79.3318 246.684 74.5318 250.68 72.5098 251.682C70.4878 252.684 66.8518 252.342 65.5198 251.346C64.1878 250.35 62.3638 246.186 66.6898 243.858Z" fill="white" stroke="#263238" stroke-linecap="round" stroke-linejoin="round"/>
<path d="M78 241.86C78 241.86 82.662 240.528 83.658 241.032C84.654 241.536 85.158 251.514 85.158 251.514C85.158 251.514 84.654 252.51 83.658 251.514C82.662 250.518 79.338 243 79.338 243" fill="white"/>
<path d="M78 241.86C78 241.86 82.662 240.528 83.658 241.032C84.654 241.536 85.158 251.514 85.158 251.514C85.158 251.514 84.654 252.51 83.658 251.514C82.662 250.518 79.338 243 79.338 243" stroke="#263238" stroke-linecap="round" stroke-linejoin="round"/>
<path d="M75.6777 242.196C75.6777 242.196 80.4777 241.032 81.4977 242.862C82.5177 244.692 84.9957 252.846 82.9977 253.176C80.9997 253.506 80.3337 250.848 80.3337 250.848L77.1717 245.022L75.0117 244.692" fill="white"/>
<path d="M75.6777 242.196C75.6777 242.196 80.4777 241.032 81.4977 242.862C82.5177 244.692 84.9957 252.846 82.9977 253.176C80.9997 253.506 80.3337 250.848 80.3337 250.848L77.1717 245.022L75.0117 244.692" stroke="#263238" stroke-linecap="round" stroke-linejoin="round"/>
<path d="M74.0098 243.69C74.0098 243.69 76.3438 242.694 77.5078 243.528C78.6718 244.362 83.9998 252.846 82.9978 253.2C81.9958 253.554 79.6678 253.368 79.3378 252.702C79.0078 252.036 74.6758 246.378 74.6758 246.378" fill="white"/>
<path d="M74.0098 243.69C74.0098 243.69 76.3438 242.694 77.5078 243.528C78.6718 244.362 83.9998 252.846 82.9978 253.2C81.9958 253.554 79.6678 253.368 79.3378 252.702C79.0078 252.036 74.6758 246.378 74.6758 246.378" stroke="#263238" stroke-linecap="round" stroke-linejoin="round"/>
<path d="M72.3477 246.522C72.3477 246.522 74.5137 244.524 75.6777 245.19C76.8417 245.856 81.6777 252.18 80.6697 252.846C79.6617 253.512 79.0017 252.846 78.0057 251.514C77.2928 250.618 76.4518 249.831 75.5097 249.18L73.5117 249.846" fill="white"/>
<path d="M72.3477 246.522C72.3477 246.522 74.5137 244.524 75.6777 245.19C76.8417 245.856 81.6777 252.18 80.6697 252.846C79.6617 253.512 79.0017 252.846 78.0057 251.514C77.2928 250.618 76.4518 249.831 75.5097 249.18L73.5117 249.846" stroke="#263238" stroke-linecap="round" stroke-linejoin="round"/>
<path d="M129.57 223.8L119.034 246.036L125.814 249.618L145.74 228.504L140.022 222.174" fill="#90CAF9"/>
<path d="M129.57 223.8L119.034 246.036L125.814 249.618L145.74 228.504L140.022 222.174" stroke="#263238" stroke-linecap="round" stroke-linejoin="round"/>
<path d="M124.308 243.858C123.576 243.462 111.324 240.528 111.162 242.028C111 243.528 107.334 245.19 105.666 245.19C103.998 245.19 102.342 243.858 102.006 245.856C101.67 247.854 103.506 248.016 105.006 248.184C106.506 248.352 111.66 246.684 111.66 246.684C111.66 246.684 116.46 250.68 118.482 251.682C120.504 252.684 124.14 252.342 125.472 251.346C126.804 250.35 128.634 246.186 124.308 243.858Z" fill="white" stroke="#263238" stroke-linecap="round" stroke-linejoin="round"/>
<path d="M112.992 241.86C112.992 241.86 108.33 240.528 107.334 241.032C106.338 241.536 105.834 251.514 105.834 251.514C105.834 251.514 106.332 252.51 107.334 251.514C108.336 250.518 111.66 243 111.66 243" fill="white"/>
<path d="M112.992 241.86C112.992 241.86 108.33 240.528 107.334 241.032C106.338 241.536 105.834 251.514 105.834 251.514C105.834 251.514 106.332 252.51 107.334 251.514C108.336 250.518 111.66 243 111.66 243" stroke="#263238" stroke-linecap="round" stroke-linejoin="round"/>
<path d="M115.32 242.196C115.32 242.196 110.52 241.032 109.494 242.862C108.468 244.692 106.002 252.846 108 253.2C109.998 253.554 110.658 250.872 110.658 250.872L113.82 245.046L115.986 244.716" fill="white"/>
<path d="M115.32 242.196C115.32 242.196 110.52 241.032 109.494 242.862C108.468 244.692 106.002 252.846 108 253.2C109.998 253.554 110.658 250.872 110.658 250.872L113.82 245.046L115.986 244.716" stroke="#263238" stroke-linecap="round" stroke-linejoin="round"/>
<path d="M117 243.69C117 243.69 114.672 242.694 113.508 243.528C112.344 244.362 106.998 252.846 108 253.2C109.002 253.554 111.324 253.368 111.66 252.702C111.996 252.036 116.316 246.378 116.316 246.378" fill="white"/>
<path d="M117 243.69C117 243.69 114.672 242.694 113.508 243.528C112.344 244.362 106.998 252.846 108 253.2C109.002 253.554 111.324 253.368 111.66 252.702C111.996 252.036 116.316 246.378 116.316 246.378" stroke="#263238" stroke-linecap="round" stroke-linejoin="round"/>
<path d="M118.65 246.522C118.65 246.522 116.484 244.524 115.32 245.19C114.156 245.856 109.32 252.18 110.328 252.846C111.336 253.512 111.99 252.846 112.992 251.514C113.705 250.618 114.546 249.831 115.488 249.18L117.486 249.846" fill="white"/>
<path d="M118.65 246.522C118.65 246.522 116.484 244.524 115.32 245.19C114.156 245.856 109.32 252.18 110.328 252.846C111.336 253.512 111.99 252.846 112.992 251.514C113.705 250.618 114.546 249.831 115.488 249.18L117.486 249.846" stroke="#263238" stroke-linecap="round" stroke-linejoin="round"/>
<path d="M155.796 100.926H116.796C114.988 100.926 113.254 101.644 111.974 102.922C110.695 104.2 109.976 105.934 109.974 107.742V119.142C109.969 120.04 110.142 120.93 110.482 121.761C110.822 122.592 111.323 123.348 111.955 123.985C112.588 124.622 113.34 125.128 114.169 125.474C114.998 125.82 115.886 125.998 116.784 126H121.584L115.038 134.562L129.756 126H155.796C156.692 125.998 157.579 125.819 158.406 125.474C159.232 125.129 159.983 124.624 160.615 123.989C161.247 123.354 161.747 122.601 162.088 121.772C162.428 120.943 162.603 120.056 162.6 119.16V107.76C162.603 105.952 161.889 104.216 160.613 102.935C159.337 101.653 157.604 100.931 155.796 100.926Z" fill="white" stroke="#263238" stroke-miterlimit="10"/>
<path d="M130.938 114.246C130.939 114.561 130.847 114.869 130.673 115.131C130.499 115.393 130.251 115.598 129.961 115.719C129.67 115.84 129.351 115.873 129.042 115.812C128.733 115.751 128.449 115.601 128.226 115.378C128.003 115.156 127.851 114.873 127.789 114.564C127.727 114.256 127.759 113.936 127.879 113.645C127.999 113.354 128.203 113.105 128.464 112.93C128.726 112.755 129.034 112.662 129.348 112.662C129.769 112.662 130.172 112.829 130.47 113.126C130.768 113.422 130.937 113.825 130.938 114.246Z" fill="#263238"/>
<path d="M137.874 114.246C137.876 114.561 137.783 114.869 137.609 115.132C137.435 115.394 137.186 115.599 136.896 115.72C136.605 115.841 136.285 115.873 135.976 115.812C135.667 115.751 135.383 115.599 135.16 115.376C134.937 115.154 134.786 114.87 134.725 114.561C134.663 114.252 134.695 113.932 134.817 113.641C134.938 113.35 135.142 113.102 135.405 112.927C135.667 112.753 135.975 112.661 136.29 112.662C136.71 112.662 137.113 112.829 137.41 113.126C137.707 113.423 137.874 113.826 137.874 114.246Z" fill="#263238"/>
<path d="M144.81 114.246C144.81 114.559 144.717 114.866 144.543 115.126C144.369 115.386 144.122 115.59 143.832 115.709C143.543 115.829 143.224 115.861 142.917 115.8C142.61 115.738 142.328 115.588 142.106 115.366C141.885 115.145 141.734 114.862 141.673 114.555C141.611 114.248 141.643 113.929 141.763 113.64C141.883 113.35 142.086 113.103 142.346 112.929C142.607 112.755 142.913 112.662 143.226 112.662C143.646 112.662 144.049 112.829 144.346 113.126C144.643 113.423 144.81 113.826 144.81 114.246Z" fill="#263238"/>
<path d="M235.47 253.038H162.786V255.972H235.47V253.038Z" fill="white" stroke="#263238" stroke-linecap="round" stroke-linejoin="round"/>
<path d="M246.636 253.038H183.282V255.972H246.636V253.038Z" fill="white" stroke="#263238" stroke-linecap="round" stroke-linejoin="round"/>
<path d="M247.866 247.824H187.254L193.788 201.546H254.4L247.866 247.824Z" fill="white" stroke="#263238" stroke-linecap="round" stroke-linejoin="round"/>
<path d="M250.374 247.824H189.762L196.296 201.546H256.908L250.374 247.824Z" fill="#263238" stroke="#263238" stroke-linecap="round" stroke-linejoin="round"/>
<path d="M231.798 226.314L237.882 255.966H222.24L216.162 226.314H231.798ZM221.19 235.116C221.22 235.236 221.289 235.344 221.387 235.42C221.485 235.496 221.606 235.537 221.73 235.536L230.592 235.452C230.675 235.451 230.757 235.431 230.831 235.394C230.905 235.357 230.97 235.303 231.021 235.237C231.072 235.172 231.107 235.095 231.124 235.014C231.141 234.933 231.14 234.849 231.12 234.768L230.322 231.444C230.293 231.323 230.223 231.215 230.126 231.138C230.028 231.061 229.907 231.018 229.782 231.018L220.92 231.102C220.837 231.103 220.755 231.123 220.681 231.161C220.606 231.198 220.541 231.251 220.49 231.317C220.439 231.382 220.403 231.458 220.385 231.539C220.367 231.621 220.367 231.705 220.386 231.786L221.19 235.116Z" fill="white" stroke="#263238" stroke-linecap="round" stroke-linejoin="round"/>
<path d="M127.962 253.038H55.2778V255.972H127.962V253.038Z" fill="white" stroke="#263238" stroke-linecap="round" stroke-linejoin="round"/>
<path d="M139.128 253.038H75.7739V255.972H139.128V253.038Z" fill="white" stroke="#263238" stroke-linecap="round" stroke-linejoin="round"/>
<path d="M140.358 247.824H79.7456L86.2796 201.546H146.892L140.358 247.824Z" fill="white" stroke="#263238" stroke-linecap="round" stroke-linejoin="round"/>
<path d="M142.866 247.824H82.2539L88.7879 201.546H149.4L142.866 247.824Z" fill="#263238" stroke="#263238" stroke-linecap="round" stroke-linejoin="round"/>
<path d="M124.296 226.314L130.374 255.966H114.732L108.654 226.314H124.296ZM113.682 235.116C113.712 235.236 113.782 235.342 113.88 235.418C113.978 235.494 114.098 235.536 114.222 235.536L123.084 235.452C123.167 235.451 123.249 235.431 123.323 235.393C123.398 235.356 123.463 235.303 123.514 235.237C123.565 235.172 123.601 235.096 123.619 235.014C123.637 234.933 123.637 234.849 123.618 234.768L122.814 231.444C122.785 231.322 122.716 231.214 122.618 231.137C122.52 231.059 122.399 231.017 122.274 231.018L113.412 231.102C113.329 231.103 113.247 231.123 113.173 231.16C113.099 231.197 113.034 231.251 112.983 231.317C112.932 231.382 112.897 231.459 112.88 231.54C112.863 231.621 112.864 231.705 112.884 231.786L113.682 235.116Z" fill="white" stroke="#263238" stroke-linecap="round" stroke-linejoin="round"/>
<path d="M276.45 255.966H17.8979V258.87H276.45V255.966Z" fill="#263238" stroke="#263238" stroke-linecap="round" stroke-linejoin="round"/>
</svg>
