<svg width="300" height="300" viewBox="0 0 300 300" fill="none" xmlns="http://www.w3.org/2000/svg">
<path d="M300 229.44H0V229.59H300V229.44Z" fill="#EBEBEB"/>
<path d="M51.3481 235.152H31.4761V235.302H51.3481V235.152Z" fill="#EBEBEB"/>
<path d="M107.898 233.526H87.1978V233.676H107.898V233.526Z" fill="#EBEBEB"/>
<path d="M78.9 238.05H45.6479V238.2H78.9V238.05Z" fill="#EBEBEB"/>
<path d="M269.298 238.602H243.384V238.752H269.298V238.602Z" fill="#EBEBEB"/>
<path d="M235.998 234.852H222.258V235.002H235.998V234.852Z" fill="#EBEBEB"/>
<path d="M173.586 237.258H117.378V237.408H173.586V237.258Z" fill="#EBEBEB"/>
<path d="M142.2 202.68H26.3458C25.4382 202.678 24.5683 202.317 23.9271 201.674C23.2859 201.032 22.9258 200.162 22.9258 199.254V36.396C22.9337 35.4936 23.2973 34.6308 23.9376 33.9949C24.578 33.3591 25.4434 33.0015 26.3458 33H142.2C143.108 33 143.98 33.361 144.622 34.0035C145.265 34.646 145.626 35.5174 145.626 36.426V199.254C145.626 200.163 145.265 201.034 144.622 201.677C143.98 202.319 143.108 202.68 142.2 202.68ZM26.3458 33.12C25.478 33.1216 24.6463 33.4674 24.0332 34.0816C23.4201 34.6958 23.0758 35.5282 23.0758 36.396V199.254C23.0758 200.122 23.4201 200.954 24.0332 201.568C24.6463 202.183 25.478 202.528 26.3458 202.53H142.2C143.068 202.528 143.901 202.183 144.515 201.569C145.129 200.955 145.474 200.122 145.476 199.254V36.396C145.474 35.5276 145.129 34.6953 144.515 34.0813C143.901 33.4672 143.068 33.1216 142.2 33.12H26.3458Z" fill="#EBEBEB"/>
<path d="M271.986 202.68H156.126C155.218 202.678 154.348 202.317 153.705 201.675C153.063 201.033 152.702 200.162 152.7 199.254V36.396C152.71 35.4931 153.075 34.6302 153.716 33.9946C154.357 33.3589 155.223 33.0015 156.126 33H271.986C272.888 33.0031 273.751 33.3613 274.39 33.997C275.03 34.6327 275.392 35.4947 275.4 36.396V199.254C275.4 200.161 275.041 201.03 274.401 201.672C273.761 202.314 272.893 202.677 271.986 202.68ZM156.126 33.12C155.258 33.1216 154.425 33.4672 153.811 34.0813C153.197 34.6953 152.852 35.5276 152.85 36.396V199.254C152.852 200.122 153.197 200.955 153.811 201.569C154.425 202.183 155.258 202.528 156.126 202.53H271.986C272.855 202.528 273.687 202.183 274.301 201.569C274.915 200.955 275.261 200.122 275.262 199.254V36.396C275.261 35.5276 274.915 34.6953 274.301 34.0813C273.687 33.4672 272.855 33.1216 271.986 33.12H156.126Z" fill="#EBEBEB"/>
<path d="M187.056 150.954H170.052V224.694H187.056V150.954Z" fill="#F0F0F0"/>
<path d="M257.166 224.694H173.316V229.368H257.166V224.694Z" fill="#F0F0F0"/>
<path d="M187.056 224.694H260.43V150.954H187.056V224.694Z" fill="#F5F5F5"/>
<path d="M193.74 184.212H253.746V160.026H193.74V184.212Z" fill="#F0F0F0"/>
<path d="M193.74 215.622H253.746V191.436H193.74V215.622Z" fill="#F0F0F0"/>
<path d="M230.478 162.072H217.008C216.568 162.07 216.146 161.895 215.835 161.583C215.523 161.272 215.348 160.85 215.346 160.41C215.348 159.97 215.524 159.549 215.835 159.239C216.147 158.928 216.568 158.754 217.008 158.754H230.478C230.918 158.754 231.34 158.928 231.651 159.239C231.963 159.549 232.139 159.97 232.14 160.41C232.139 160.85 231.963 161.272 231.652 161.583C231.34 161.895 230.918 162.07 230.478 162.072Z" fill="#F5F5F5"/>
<path d="M230.478 193.47H217.008C216.568 193.47 216.147 193.296 215.835 192.985C215.524 192.675 215.348 192.254 215.346 191.814C215.348 191.374 215.524 190.953 215.835 190.643C216.147 190.332 216.568 190.158 217.008 190.158H230.478C230.918 190.158 231.34 190.332 231.651 190.643C231.963 190.953 232.139 191.374 232.14 191.814C232.139 192.254 231.963 192.675 231.651 192.985C231.34 193.296 230.918 193.47 230.478 193.47Z" fill="#F5F5F5"/>
<path d="M223.38 49.248H192.804V82.596H223.38V49.248Z" fill="#E0E0E0"/>
<path d="M225.21 49.248H193.836V82.596H225.21V49.248Z" fill="#F5F5F5"/>
<path d="M222.576 79.968V51.876H196.464V79.968H222.576Z" fill="white"/>
<path d="M212.718 70.932L215.814 65.568C216.139 65.0073 216.31 64.371 216.31 63.7231C216.311 63.0752 216.141 62.4387 215.817 61.8774C215.494 61.3161 215.028 60.8498 214.467 60.5255C213.906 60.2013 213.27 60.0304 212.622 60.03H206.4C205.753 60.0311 205.117 60.2024 204.556 60.5267C203.995 60.851 203.53 61.3169 203.206 61.8777C202.882 62.4386 202.711 63.0747 202.71 63.7224C202.71 64.3701 202.879 65.0065 203.202 65.568L206.304 70.932C206.626 71.4983 207.093 71.9692 207.656 72.2968C208.22 72.6243 208.86 72.7969 209.511 72.7969C210.163 72.7969 210.803 72.6243 211.366 72.2968C211.929 71.9692 212.396 71.4983 212.718 70.932Z" fill="#F5F5F5"/>
<path d="M75.7677 107.322H56.8857V229.44H75.7677V107.322Z" fill="#E0E0E0"/>
<path d="M123.888 229.44H60.6659L54.0239 79.134H117.246L123.888 229.44Z" fill="#E6E6E6"/>
<path d="M133.11 229.44H63.1801L56.5381 79.134H126.468L133.11 229.44Z" fill="#F0F0F0"/>
<path d="M70.0262 222.072L64.4282 86.502H119.622L125.22 222.072H70.0262Z" fill="white"/>
<path d="M93.7381 222.072L74.9761 86.502H80.8621L99.6241 222.072H93.7381Z" fill="#FAFAFA"/>
<path d="M102.12 222.072L83.3579 86.502H93.3959L112.158 222.072H102.12Z" fill="#FAFAFA"/>
<path d="M227.22 147.912H228.6C228.6 145.068 228.6 137.85 228.744 121.308C228.99 91.3081 229.47 89.5081 229.47 89.5081L226.2 103.344C224.094 118.668 226.8 134.07 227.22 147.912Z" fill="#E6E6E6"/>
<path d="M224.49 101.28C219.756 95.64 209.64 93.996 199.29 92.592C195.228 92.04 209.976 101.328 217.182 107.928C222.786 113.052 226.362 114.468 227.898 119.574C228.696 113.208 228.564 106.14 224.49 101.28Z" fill="#E6E6E6"/>
<path d="M230.766 111.36C235.5 105.72 245.61 104.076 255.966 102.672C260.034 102.126 245.286 111.414 238.074 118.008C232.476 123.138 228.894 124.554 227.358 129.66C226.56 123.288 226.686 116.22 230.766 111.36Z" fill="#E6E6E6"/>
<path d="M228.738 88.2C232.29 81.456 241.218 75.108 251.238 72.702C255.174 71.754 242.124 85.152 237.168 93.792C233.316 100.476 228.204 108.36 227.4 114C226.2 102.804 225.192 94.92 228.738 88.2Z" fill="#E6E6E6"/>
<path d="M228.318 151.146C224.118 151.146 220.596 149.028 220.356 146.346L219.654 141.714H237L236.298 146.346C236.04 149.028 232.548 151.146 228.318 151.146Z" fill="#F0F0F0"/>
<path d="M238.11 143.466H218.526L217.968 138.306H238.674L238.11 143.466Z" fill="#F0F0F0"/>
<path d="M150 256.536C214.25 256.536 266.334 253.495 266.334 249.744C266.334 245.993 214.25 242.952 150 242.952C85.7505 242.952 33.666 245.993 33.666 249.744C33.666 253.495 85.7505 256.536 150 256.536Z" fill="#F5F5F5"/>
<path d="M168.552 92.7C168.552 75.9913 161.915 59.967 150.1 48.1522C138.285 36.3374 122.261 29.7 105.552 29.7C88.8436 29.7 72.8193 36.3374 61.0045 48.1522C49.1897 59.967 42.5522 75.9913 42.5522 92.7C42.5522 120.018 59.4242 142.35 84.2462 152.004L127.536 168.804L119.322 154.2C133.293 151.065 145.781 143.267 154.729 132.088C163.677 120.91 168.552 107.018 168.552 92.7Z" fill="#90CAF9"/>
<path d="M104.142 150C92.5321 149.999 81.1828 146.555 71.5298 140.104C61.8768 133.652 54.3535 124.484 49.9112 113.757C45.469 103.03 44.3073 91.2268 46.5731 79.8397C48.8389 68.4526 54.4303 57.9931 62.6405 49.7838C70.8506 41.5745 81.3107 35.9841 92.698 33.7195C104.085 31.4549 115.888 32.6178 126.615 37.0611C137.341 41.5044 146.509 49.0287 152.959 58.6824C159.41 68.3361 162.852 79.6856 162.852 91.2959C162.835 106.861 156.644 121.783 145.637 132.789C134.63 143.794 119.707 149.984 104.142 150ZM104.142 33.1919C92.6507 33.1931 81.4175 36.6019 71.8631 42.9871C62.3088 49.3724 54.8624 58.4474 50.4655 69.0647C46.0687 79.6819 44.9189 91.3645 47.1615 102.635C49.4042 113.906 54.9385 124.258 63.0648 132.384C71.191 140.509 81.5441 146.042 92.815 148.284C104.086 150.525 115.768 149.374 126.385 144.976C137.002 140.579 146.076 133.131 152.46 123.576C158.845 114.021 162.252 102.788 162.252 91.2959C162.227 75.8926 156.096 61.1274 145.204 50.2361C134.312 39.3448 119.546 33.2157 104.142 33.1919Z" fill="white"/>
<path d="M62.9521 95.5619C62.9521 87.4259 64.6062 80.9119 67.9142 76.0199C69.435 73.6747 71.4716 71.7079 73.8685 70.2698C76.2654 68.8317 78.9591 67.9602 81.7442 67.7219C87.7962 67.0659 92.4622 68.7879 95.7422 72.8879C99.0222 76.9879 100.66 83.0479 100.656 91.0679C100.656 96.8959 99.9401 101.75 98.5081 105.63C97.2684 109.229 95.1335 112.455 92.3041 115.002C89.4556 117.427 85.917 118.897 82.1881 119.202C78.0841 119.646 74.6842 119.118 71.9882 117.618C69.2922 116.118 67.1122 113.518 65.4482 109.818C63.7842 106.138 62.9521 101.386 62.9521 95.5619ZM74.1962 94.4099C74.1962 99.4459 74.8781 102.988 76.2422 105.036C76.8021 105.985 77.63 106.746 78.6218 107.226C79.6136 107.705 80.7249 107.88 81.8162 107.73C82.9967 107.607 84.128 107.191 85.1075 106.52C86.087 105.85 86.884 104.946 87.4262 103.89C88.7422 101.59 89.4002 97.6539 89.4002 92.0819C89.4002 87.3899 88.7102 84.0379 87.3302 82.0259C86.7516 81.0851 85.9106 80.3339 84.9107 79.8648C83.9108 79.3958 82.7955 79.2293 81.7021 79.3859C79.4381 79.6339 77.6181 80.9299 76.2422 83.2739C74.8661 85.6179 74.1842 89.3299 74.1962 94.4099Z" fill="white"/>
<path d="M106.764 65.8619L118.008 64.6619V83.4959L129.786 63.3899L144.744 61.7639L131.466 82.0139L145.338 111.54L131.49 113.04L123.816 93.3779L118.008 102.342V114.48L106.764 115.68V65.8619Z" fill="white"/>
<path d="M51.3721 44.676C50.4664 44.6772 49.5807 44.4097 48.8271 43.9074C48.0734 43.4051 47.4857 42.6905 47.1383 41.8541C46.7909 41.0177 46.6994 40.097 46.8753 39.2086C47.0513 38.3201 47.4868 37.5039 48.1268 36.863C48.7668 36.2222 49.5825 35.7856 50.4708 35.6084C51.359 35.4313 52.2798 35.5216 53.1166 35.8679C53.9535 36.2142 54.6688 36.801 55.1721 37.554C55.6754 38.307 55.9441 39.1923 55.9441 40.098C55.9425 41.3107 55.4605 42.4733 54.6036 43.3313C53.7467 44.1893 52.5847 44.6728 51.3721 44.676ZM51.3721 36.126C50.5848 36.1248 49.8149 36.3573 49.1598 36.7939C48.5047 37.2306 47.9939 37.8518 47.6921 38.5789C47.3902 39.3061 47.3109 40.1064 47.4642 40.8786C47.6175 41.6508 47.9965 42.3602 48.5532 42.9169C49.1099 43.4736 49.8193 43.8526 50.5915 44.0059C51.3637 44.1592 52.1641 44.0799 52.8912 43.7781C53.6183 43.4762 54.2395 42.9654 54.6762 42.3103C55.1128 41.6552 55.3453 40.8853 55.3441 40.098C55.3425 39.0451 54.9235 38.0357 54.179 37.2911C53.4344 36.5466 52.425 36.1276 51.3721 36.126Z" fill="#90CAF9"/>
<path d="M95.8744 166.56C95.269 166.56 94.6771 166.38 94.1738 166.044C93.6704 165.707 93.2782 165.229 93.0468 164.67C92.8154 164.11 92.7551 163.495 92.8737 162.901C92.9922 162.307 93.2843 161.762 93.7128 161.334C94.1414 160.906 94.6872 160.615 95.2811 160.498C95.8751 160.381 96.4906 160.442 97.0496 160.675C97.6086 160.907 98.0861 161.3 98.4216 161.804C98.7572 162.308 98.9356 162.9 98.9344 163.506C98.9328 164.316 98.6098 165.093 98.0361 165.666C97.4624 166.238 96.685 166.56 95.8744 166.56ZM95.8744 161.046C95.3879 161.046 94.9123 161.19 94.5077 161.461C94.1032 161.731 93.7879 162.115 93.6017 162.565C93.4155 163.014 93.3668 163.509 93.4617 163.986C93.5566 164.463 93.7909 164.901 94.135 165.245C94.479 165.589 94.9173 165.824 95.3945 165.919C95.8717 166.014 96.3663 165.965 96.8158 165.779C97.2653 165.593 97.6495 165.277 97.9198 164.873C98.1902 164.468 98.3344 163.993 98.3344 163.506C98.3344 162.854 98.0753 162.228 97.6139 161.766C97.1526 161.305 96.5269 161.046 95.8744 161.046Z" fill="#90CAF9"/>
<path d="M152.892 43.2719C152.892 43.4908 152.827 43.7047 152.705 43.8865C152.583 44.0683 152.41 44.2098 152.208 44.293C152.005 44.3762 151.783 44.3973 151.568 44.3537C151.354 44.3102 151.157 44.2038 151.003 44.0482C150.849 43.8926 150.745 43.6948 150.704 43.4798C150.663 43.2649 150.686 43.0426 150.772 42.841C150.857 42.6395 151 42.468 151.184 42.3481C151.367 42.2283 151.581 42.1655 151.8 42.1679C152.091 42.1711 152.369 42.2888 152.573 42.4955C152.777 42.7022 152.892 42.9812 152.892 43.2719Z" fill="#90CAF9"/>
<path d="M84.7324 162.402C84.7324 162.621 84.6675 162.834 84.5459 163.016C84.4243 163.198 84.2516 163.339 84.0495 163.422C83.8474 163.506 83.6251 163.527 83.4108 163.484C83.1965 163.441 82.9998 163.335 82.8456 163.18C82.6915 163.025 82.5868 162.828 82.5449 162.614C82.503 162.399 82.5257 162.177 82.6102 161.975C82.6947 161.774 82.8371 161.602 83.0194 161.481C83.2018 161.36 83.4158 161.297 83.6344 161.298C83.9262 161.299 84.2054 161.416 84.4112 161.623C84.6169 161.83 84.7324 162.11 84.7324 162.402Z" fill="#90CAF9"/>
<path d="M197.052 231.768L200.664 245.904L207.438 244.242L203.82 230.1L197.052 231.768Z" fill="#FF8B7B"/>
<path d="M207.6 241.356L199.926 243C199.807 243.023 199.7 243.09 199.628 243.188C199.556 243.286 199.523 243.407 199.536 243.528L200.064 249.144C200.081 249.285 200.127 249.421 200.199 249.544C200.272 249.666 200.369 249.772 200.485 249.854C200.601 249.937 200.733 249.994 200.872 250.023C201.011 250.051 201.155 250.05 201.294 250.02C203.694 249.42 204.42 249.096 207.456 248.436C211.008 247.656 212.256 247.866 216.456 246.954C218.976 246.402 218.856 243.762 217.734 243.756C214.748 243.76 211.814 242.978 209.226 241.488C208.721 241.237 208.139 241.19 207.6 241.356Z" fill="#263238"/>
<path opacity="0.2" d="M197.046 231.774L198.912 239.058L205.686 237.396L203.82 230.106L197.046 231.774Z" fill="black"/>
<path d="M184.98 177.312C176.916 153.582 170.526 125.592 170.526 125.592L193.536 124.14C193.536 124.14 196.926 160.476 198.696 177.228C200.532 194.628 206.25 233.958 206.25 233.958L195.87 236.064C195.87 236.064 186.132 199.026 184.98 177.312Z" fill="#90CAF9"/>
<path opacity="0.2" d="M181.14 138.78L175.554 145.686C176.976 151.014 178.644 157.002 180.468 163.128C181.517 155.056 181.742 146.898 181.14 138.78Z" fill="black"/>
<path d="M206.094 235.416L196.578 237.504C196.388 237.544 196.191 237.514 196.022 237.419C195.853 237.324 195.724 237.171 195.66 236.988L194.61 233.916C194.575 233.812 194.563 233.702 194.573 233.593C194.583 233.484 194.615 233.378 194.668 233.282C194.721 233.186 194.794 233.103 194.881 233.036C194.968 232.97 195.068 232.922 195.174 232.896L205.506 230.466C205.617 230.44 205.733 230.438 205.845 230.461C205.957 230.484 206.063 230.531 206.155 230.599C206.247 230.667 206.323 230.754 206.378 230.854C206.432 230.955 206.465 231.066 206.472 231.18L206.712 234.594C206.726 234.783 206.671 234.97 206.558 235.121C206.444 235.272 206.279 235.377 206.094 235.416Z" fill="#263238"/>
<path opacity="0.1" d="M206.094 235.416L196.578 237.504C196.388 237.544 196.191 237.514 196.022 237.419C195.853 237.324 195.724 237.171 195.66 236.988L194.61 233.916C194.575 233.812 194.563 233.702 194.573 233.593C194.583 233.484 194.615 233.378 194.668 233.282C194.721 233.186 194.794 233.103 194.881 233.036C194.968 232.97 195.068 232.922 195.174 232.896L205.506 230.466C205.617 230.44 205.733 230.438 205.845 230.461C205.957 230.484 206.063 230.531 206.155 230.599C206.247 230.667 206.323 230.754 206.378 230.854C206.432 230.955 206.465 231.066 206.472 231.18L206.712 234.594C206.726 234.783 206.671 234.97 206.558 235.121C206.444 235.272 206.279 235.377 206.094 235.416Z" fill="white"/>
<path d="M159.096 231.276L158.67 245.862L165.648 245.766L166.074 231.18L159.096 231.276Z" fill="#FF8B7B"/>
<path d="M165.816 242.772L158.4 242.88C158.279 242.879 158.162 242.924 158.072 243.005C157.982 243.086 157.926 243.198 157.914 243.318L157.314 248.928C157.303 249.07 157.322 249.212 157.369 249.346C157.416 249.48 157.49 249.603 157.588 249.707C157.685 249.81 157.802 249.893 157.933 249.949C158.063 250.005 158.204 250.033 158.346 250.032C160.812 249.954 161.592 249.75 164.7 249.702C168.336 249.642 169.122 250.098 173.382 250.032C175.962 249.99 176.382 247.38 175.272 247.152C172.351 246.559 169.637 245.21 167.4 243.24C166.952 242.886 166.385 242.718 165.816 242.772Z" fill="#263238"/>
<path opacity="0.2" d="M159.096 231.282L158.874 238.8L165.858 238.698L166.074 231.18L159.096 231.282Z" fill="black"/>
<path d="M160.836 176.832C162.804 151.866 161.142 138.402 164.04 126L184.98 124.704C184.98 124.704 178.482 161.4 174.888 177.996C171.294 194.592 167.442 234.906 167.442 234.906L157.152 235.032C157.152 235.032 155.892 196.308 160.836 176.832Z" fill="#90CAF9"/>
<path d="M167.4 236.754L157.668 236.904C157.465 236.906 157.269 236.831 157.12 236.694C156.971 236.557 156.879 236.368 156.864 236.166L156.654 232.95C156.647 232.845 156.662 232.739 156.697 232.639C156.732 232.539 156.787 232.448 156.858 232.369C156.929 232.291 157.015 232.228 157.111 232.183C157.206 232.139 157.31 232.114 157.416 232.11L168.018 231.78C168.136 231.777 168.254 231.801 168.362 231.849C168.47 231.897 168.566 231.969 168.643 232.06C168.719 232.15 168.774 232.257 168.804 232.371C168.834 232.486 168.838 232.606 168.816 232.722L168.162 236.112C168.129 236.291 168.034 236.452 167.896 236.569C167.757 236.686 167.581 236.752 167.4 236.754Z" fill="#263238"/>
<path opacity="0.1" d="M167.4 236.754L157.668 236.904C157.465 236.906 157.269 236.831 157.12 236.694C156.971 236.557 156.879 236.368 156.864 236.166L156.654 232.95C156.647 232.845 156.662 232.739 156.697 232.639C156.732 232.539 156.787 232.448 156.858 232.369C156.929 232.291 157.015 232.228 157.111 232.183C157.206 232.139 157.31 232.114 157.416 232.11L168.018 231.78C168.136 231.777 168.254 231.801 168.362 231.849C168.47 231.897 168.566 231.969 168.643 232.06C168.719 232.15 168.774 232.257 168.804 232.371C168.834 232.486 168.838 232.606 168.816 232.722L168.162 236.112C168.129 236.291 168.034 236.452 167.896 236.569C167.757 236.686 167.581 236.752 167.4 236.754Z" fill="white"/>
<path d="M193.074 82.41L194.274 84.378L195.6 86.4C196.458 87.726 197.352 89.022 198.246 90.288C199.14 91.554 200.088 92.754 201.042 93.888C201.889 94.8984 202.838 95.8193 203.874 96.636L200.94 96.198C202.131 95.9531 203.294 95.5914 204.414 95.118C205.644 94.5931 206.845 94.0043 208.014 93.354C209.214 92.7 210.414 91.974 211.614 91.218C212.814 90.462 214.014 89.64 215.148 88.872L215.244 88.812C215.654 88.5235 216.155 88.392 216.654 88.4414C217.154 88.4909 217.619 88.718 217.965 89.0814C218.311 89.4448 218.515 89.9204 218.539 90.4216C218.564 90.9227 218.408 91.4161 218.1 91.812C217.158 93.0776 216.133 94.2802 215.034 95.412C213.942 96.5436 212.786 97.6114 211.572 98.61C210.317 99.6409 208.987 100.577 207.594 101.412C206.099 102.317 204.502 103.042 202.836 103.572C202.388 103.71 201.917 103.754 201.451 103.701C200.985 103.648 200.536 103.5 200.13 103.266L199.902 103.134C198.181 102.108 196.604 100.859 195.21 99.42C194.558 98.764 193.932 98.1 193.332 97.428C192.732 96.756 192.162 96.07 191.622 95.37C190.518 93.99 189.504 92.574 188.538 91.128C188.058 90.408 187.584 89.682 187.134 88.938C186.684 88.194 186.252 87.474 185.796 86.646C185.362 85.7009 185.293 84.6282 185.604 83.6356C185.916 82.6431 186.584 81.8013 187.48 81.2733C188.376 80.7452 189.437 80.5686 190.456 80.7775C191.475 80.9864 192.38 81.5659 192.996 82.404L193.074 82.41Z" fill="#FF8B7B"/>
<path d="M183.978 74.4001C192.108 75.3241 198.258 87.9121 198.258 87.9121L189.858 96.8341C189.858 96.8341 186.126 92.3821 182.112 86.7481C177.75 80.6281 177.546 73.6741 183.978 74.4001Z" fill="#263238"/>
<path d="M183.336 76.302C180.21 75.192 170.418 76.854 170.418 76.854C173.16 80.364 174.984 109.44 175.218 126.162C178.188 126.57 185.244 126.516 187.89 125.904C187.56 119.34 185.4 87.972 183.336 76.302Z" fill="white"/>
<path d="M194.016 85.11C193.647 82.0859 192.181 79.3023 189.896 77.2873C187.611 75.2722 184.666 74.1658 181.62 74.178C175.77 74.2268 169.94 74.8701 164.22 76.098C163.332 76.2903 162.492 76.6579 161.748 77.1794C161.004 77.7008 160.372 78.3655 159.889 79.1346C159.405 79.9036 159.08 80.7614 158.933 81.6576C158.785 82.5539 158.818 83.4706 159.03 84.354C163.338 102.432 162.204 119.58 163.356 127.554C168.05 128.723 172.877 129.278 177.714 129.204C177.714 129.204 177.54 126.984 177.324 123.39C177.246 121.986 175.44 79.902 172.626 76.284C172.626 76.284 178.662 75.684 181.788 76.776C184.11 89.88 186.282 129.222 186.282 129.228C191.22 128.874 194.682 125.994 194.616 125.172C195.6 109.086 195.12 94.524 194.016 85.11Z" fill="#263238"/>
<path d="M169.41 61.488C170.328 65.022 171.402 71.238 169.716 74.634C169.544 74.9651 169.491 75.3458 169.568 75.7112C169.644 76.0766 169.845 76.4041 170.136 76.638C172.302 78.312 175.086 79.866 179.136 79.638C183.39 79.38 183.072 76.836 181.992 75.138C181.882 74.9582 181.736 74.8027 181.564 74.681C181.392 74.5592 181.196 74.4739 180.99 74.43C176.97 73.602 176.922 70.404 177.498 67.332L169.41 61.488Z" fill="#FF8B7B"/>
<path opacity="0.2" d="M172.704 63.864L177.504 67.308C177.353 68.0511 177.269 68.806 177.252 69.564C175.518 69.486 173.052 67.83 172.752 66.048C172.605 65.3288 172.588 64.589 172.704 63.864Z" fill="black"/>
<path d="M182.682 57C183.768 56.28 184.344 51.318 182.682 49.71C184.398 48.198 183.408 44.832 181.056 44.262C178.704 43.692 176.976 45.24 173.946 43.296C173.424 44.004 173.724 44.91 174.63 45.438C175.938 46.2 182.682 57 182.682 57Z" fill="#263238"/>
<path d="M167.934 55.488C168.75 60.888 168.948 64.122 171.948 66.654C176.466 70.464 182.976 67.314 183.798 61.746C184.542 56.736 183.084 48.714 177.558 47.058C176.333 46.6917 175.036 46.6422 173.786 46.9141C172.537 47.186 171.378 47.7705 170.416 48.6129C169.454 49.4552 168.722 50.5278 168.288 51.7303C167.854 52.9327 167.732 54.2257 167.934 55.488Z" fill="#FF8B7B"/>
<path d="M169.59 60.0721C171.036 59.3941 170.244 53.5981 169.89 52.4581C173.688 52.9861 184.368 50.1361 180.852 45.9841C178.284 42.9841 170.79 46.4161 167.598 43.8301C166.65 44.8441 167.97 46.0441 167.97 46.0441C167.97 46.0441 162.9 47.2441 164.97 50.8441C160.854 50.6581 163.674 60.6721 169.59 60.0721Z" fill="#263238"/>
<path d="M165.924 48.552C163.926 50.118 163.14 49.416 161.982 48.36C161.706 51.438 164.154 51.834 165.288 51.516C166.032 50.556 165.924 48.552 165.924 48.552Z" fill="#263238"/>
<path d="M166.158 60.4681C166.826 61.5957 167.899 62.4262 169.158 62.7901C170.748 63.2041 171.348 61.5901 170.742 60.0001C170.196 58.5421 168.708 56.5741 167.19 56.8801C165.672 57.1861 165.294 59.0401 166.158 60.4681Z" fill="#FF8B7B"/>
<path d="M175.386 55.968C175.428 56.412 175.692 56.748 175.986 56.718C176.28 56.688 176.478 56.31 176.436 55.866C176.394 55.422 176.13 55.086 175.836 55.116C175.542 55.146 175.35 55.524 175.386 55.968Z" fill="#263238"/>
<path d="M180.384 55.1101C180.426 55.5541 180.69 55.8901 180.984 55.8661C181.278 55.8421 181.476 55.4521 181.434 55.0081C181.392 54.5641 181.128 54.2281 180.834 54.2581C180.54 54.2881 180.348 54.6661 180.384 55.1101Z" fill="#263238"/>
<path d="M178.602 55.6321C178.602 55.6321 179.838 58.0981 181.056 59.2321C180.336 60.0421 178.968 59.8321 178.968 59.8321L178.602 55.6321Z" fill="#FF5652"/>
<path d="M177.6 61.992C177.102 62.0336 176.602 61.9714 176.13 61.8092C175.658 61.6471 175.225 61.3885 174.858 61.05C174.842 61.0389 174.828 61.0244 174.819 61.0075C174.809 60.9906 174.803 60.9717 174.801 60.9522C174.8 60.9328 174.802 60.9132 174.809 60.8949C174.816 60.8766 174.827 60.8601 174.841 60.8465C174.855 60.8329 174.872 60.8226 174.89 60.8163C174.909 60.81 174.929 60.808 174.948 60.8102C174.967 60.8125 174.986 60.819 175.003 60.8293C175.019 60.8397 175.033 60.8536 175.044 60.87C175.46 61.2349 175.955 61.4968 176.491 61.6344C177.027 61.772 177.588 61.7815 178.128 61.662C178.162 61.6549 178.198 61.6616 178.227 61.6808C178.256 61.6999 178.277 61.7298 178.284 61.764C178.289 61.7989 178.281 61.8345 178.261 61.8635C178.241 61.8925 178.21 61.9127 178.176 61.92C177.985 61.9551 177.793 61.9791 177.6 61.992Z" fill="#263238"/>
<path d="M173.514 55.236C173.471 55.248 173.425 55.248 173.382 55.236C173.318 55.2071 173.268 55.1547 173.243 55.0898C173.217 55.0249 173.217 54.9526 173.244 54.888C173.403 54.5017 173.653 54.1588 173.971 53.8876C174.289 53.6164 174.667 53.4246 175.074 53.328C175.108 53.322 175.142 53.3229 175.176 53.3306C175.21 53.3383 175.241 53.3526 175.269 53.3727C175.297 53.3929 175.321 53.4184 175.339 53.4478C175.357 53.4772 175.369 53.5099 175.374 53.544C175.384 53.6131 175.368 53.6835 175.327 53.7406C175.287 53.7976 175.226 53.8369 175.158 53.85C174.837 53.9297 174.54 54.0844 174.29 54.3014C174.041 54.5183 173.847 54.7914 173.724 55.098C173.703 55.137 173.673 55.1702 173.637 55.1943C173.6 55.2185 173.558 55.2328 173.514 55.236Z" fill="#263238"/>
<path d="M182.286 52.728C182.244 52.7382 182.201 52.7386 182.16 52.7293C182.118 52.7199 182.079 52.701 182.046 52.674C181.807 52.4541 181.519 52.2943 181.206 52.2077C180.893 52.1211 180.564 52.1102 180.246 52.176C180.179 52.1946 180.108 52.1861 180.047 52.1525C179.986 52.1188 179.941 52.0626 179.922 51.996C179.905 51.9293 179.914 51.8585 179.948 51.7983C179.981 51.738 180.036 51.6929 180.102 51.6721C180.506 51.5802 180.926 51.5867 181.327 51.6911C181.728 51.7955 182.098 51.9948 182.406 52.272C182.454 52.3222 182.48 52.3888 182.48 52.458C182.48 52.5273 182.454 52.5939 182.406 52.644C182.373 52.6812 182.332 52.71 182.286 52.728Z" fill="#263238"/>
<path d="M163.524 76.29C154.458 78.576 151.938 90.168 151.938 90.168L163.2 98.244C163.2 98.244 165.99 95.322 166.83 88.464C167.232 85.2 165.36 76.2 163.524 76.29Z" fill="#263238"/>
<path d="M162.126 120.222L167.364 122.178L163.356 127.578C163.356 127.578 158.826 125.232 159.678 122.622L162.126 120.222Z" fill="#FF8B7B"/>
<path d="M169.8 127.44L168.078 129.09C167.746 129.407 167.313 129.597 166.854 129.624C166.396 129.651 165.943 129.515 165.576 129.24L163.338 127.554L167.346 122.154L169.836 124.65C170.022 124.833 170.169 125.051 170.268 125.292C170.367 125.533 170.417 125.792 170.413 126.053C170.41 126.313 170.354 126.571 170.248 126.809C170.143 127.048 169.99 127.262 169.8 127.44Z" fill="#FF8B7B"/>
<path d="M221.658 90.792L221.016 87.864C220.949 87.562 220.774 87.2946 220.525 87.1114C220.275 86.9282 219.968 86.8418 219.66 86.868C218.73 86.9465 217.829 87.2336 217.026 87.708L213.426 89.844L213.744 93.24C215.238 95.544 219.906 93.48 219.906 93.48L220.29 93.33C220.783 93.1401 221.193 92.7798 221.444 92.3142C221.694 91.8487 221.77 91.3087 221.658 90.792Z" fill="#FF8B7B"/>
<path d="M212.964 91.152C212.742 90.006 213.24 89.082 213.126 88.002C213.03 87.06 213.282 86.004 212.982 84.72C213.342 84.12 214.644 84.612 214.662 86.202C215.064 87.834 216.858 87.6 217.572 87.402C217.572 87.42 215.148 91.638 212.964 91.152Z" fill="#FF8B7B"/>
</svg>
