<svg width="500" height="500" viewBox="0 0 500 500" fill="none" xmlns="http://www.w3.org/2000/svg">
<path d="M417.48 91.69C417.48 91.69 393.27 46.89 341.39 44.28C289.51 41.67 271.05 94.79 233.25 115.28C213.46 126.02 173.44 108.04 152.33 114.19C84.8398 133.88 60.7498 224 89.7898 271.59C114.92 312.85 158.27 331.78 223.79 331.52C289.31 331.26 335.33 333.52 393.25 286.18C451.17 238.84 445.84 150.88 417.48 91.69Z" fill="#407BFF"/>
<path opacity="0.8" d="M417.48 91.69C417.48 91.69 393.27 46.89 341.39 44.28C289.51 41.67 271.05 94.79 233.25 115.28C213.46 126.02 173.44 108.04 152.33 114.19C84.8398 133.88 60.7498 224 89.7898 271.59C114.92 312.85 158.27 331.78 223.79 331.52C289.31 331.26 335.33 333.52 393.25 286.18C451.17 238.84 445.84 150.88 417.48 91.69Z" fill="white"/>
<path d="M283.161 99.49H254.851V106.01H283.161V99.49Z" fill="#407BFF"/>
<path d="M273.451 108.91H254.851V115.43H273.451V108.91Z" fill="#407BFF"/>
<path d="M265.561 118.33H254.851V124.85H265.561V118.33Z" fill="#407BFF"/>
<g opacity="0.2">
<path opacity="0.2" d="M283.161 99.49H254.851V106.01H283.161V99.49Z" fill="black"/>
<path opacity="0.2" d="M273.451 108.91H254.851V115.43H273.451V108.91Z" fill="black"/>
<path opacity="0.2" d="M265.561 118.33H254.851V124.85H265.561V118.33Z" fill="black"/>
</g>
<path d="M205.69 171.69V191.32H215.29V171.69H205.69Z" fill="#407BFF"/>
<path d="M219.561 178.43V191.32H229.161V178.43H219.561Z" fill="#407BFF"/>
<path d="M233.421 183.89V191.31H243.021V183.89H233.421Z" fill="#407BFF"/>
<g opacity="0.2">
<path opacity="0.2" d="M205.69 171.69V191.32H215.29V171.69H205.69Z" fill="black"/>
<path opacity="0.2" d="M219.561 178.43V191.32H229.161V178.43H219.561Z" fill="black"/>
<path opacity="0.2" d="M233.421 183.89V191.31H243.021V183.89H233.421Z" fill="black"/>
</g>
<path d="M203.54 205.64H319.79C321.313 205.643 322.821 205.345 324.228 204.764C325.635 204.184 326.914 203.331 327.992 202.255C329.069 201.18 329.924 199.902 330.507 198.496C331.09 197.09 331.39 195.582 331.39 194.06V98.26C331.39 96.7376 331.09 95.2302 330.507 93.8239C329.924 92.4177 329.069 91.1402 327.992 90.0646C326.914 88.9891 325.635 88.1365 324.228 87.5557C322.821 86.975 321.313 86.6774 319.79 86.68H203.54C202.018 86.6787 200.511 86.9772 199.104 87.5584C197.698 88.1397 196.419 88.9923 195.342 90.0676C194.265 91.1429 193.41 92.4198 192.826 93.8255C192.243 95.2311 191.942 96.738 191.94 98.26V194.06C191.942 195.582 192.243 197.089 192.826 198.495C193.41 199.9 194.265 201.177 195.342 202.252C196.419 203.328 197.698 204.18 199.104 204.762C200.511 205.343 202.018 205.641 203.54 205.64V205.64Z" stroke="#263238" stroke-width="1.0631" stroke-miterlimit="10"/>
<path d="M276.841 172.75H318.291" stroke="#263238" stroke-width="1.0631" stroke-miterlimit="10"/>
<path d="M276.841 177.18H318.291" stroke="#263238" stroke-width="1.0631" stroke-miterlimit="10"/>
<path d="M276.841 181.61H318.291" stroke="#263238" stroke-width="1.0631" stroke-miterlimit="10"/>
<path d="M276.841 186.05H318.291" stroke="#263238" stroke-width="1.0631" stroke-miterlimit="10"/>
<path d="M276.841 190.48H318.291" stroke="#263238" stroke-width="1.0631" stroke-miterlimit="10"/>
<path d="M204.421 100.46H245.871" stroke="#263238" stroke-width="1.0631" stroke-miterlimit="10"/>
<path d="M204.421 104.89H245.871" stroke="#263238" stroke-width="1.0631" stroke-miterlimit="10"/>
<path d="M204.421 109.32H245.871" stroke="#263238" stroke-width="1.0631" stroke-miterlimit="10"/>
<path d="M204.421 113.75H245.871" stroke="#263238" stroke-width="1.0631" stroke-miterlimit="10"/>
<path d="M204.421 118.19H245.871" stroke="#263238" stroke-width="1.0631" stroke-miterlimit="10"/>
<path d="M313.1 135.3L321 139.45L320.11 117.17L301.23 129.08L309.13 133.22L303.19 144.53C302.14 144.534 301.12 144.886 300.29 145.53L289.83 140.67C289.83 139.392 289.322 138.166 288.418 137.262C287.515 136.358 286.289 135.85 285.01 135.85C283.732 135.85 282.506 136.358 281.602 137.262C280.698 138.166 280.19 139.392 280.19 140.67C280.19 141.361 280.34 142.043 280.63 142.67L266.92 157.53C266.484 157.39 266.029 157.316 265.57 157.31C265.339 157.318 265.108 157.341 264.88 157.38L245.17 132.47C245.454 131.842 245.597 131.159 245.59 130.47C245.59 129.192 245.082 127.966 244.178 127.062C243.275 126.158 242.049 125.65 240.77 125.65C239.492 125.65 238.266 126.158 237.362 127.062C236.458 127.966 235.95 129.192 235.95 130.47C235.961 130.966 236.045 131.458 236.2 131.93L213.69 154.85C213.161 154.656 212.603 154.555 212.04 154.55C211.089 154.552 210.16 154.836 209.371 155.365C208.581 155.895 207.966 156.647 207.604 157.526C207.241 158.405 207.147 159.372 207.334 160.304C207.521 161.237 207.979 162.093 208.653 162.765C209.326 163.436 210.183 163.893 211.116 164.078C212.048 164.263 213.015 164.167 213.893 163.803C214.772 163.439 215.522 162.822 216.05 162.031C216.578 161.24 216.86 160.311 216.86 159.36C216.858 158.961 216.804 158.565 216.7 158.18L239.4 135C239.844 135.139 240.305 135.214 240.77 135.22C241.065 135.219 241.36 135.193 241.65 135.14L261.26 160C260.906 160.709 260.731 161.495 260.753 162.288C260.775 163.081 260.992 163.856 261.385 164.545C261.779 165.234 262.336 165.815 263.007 166.237C263.679 166.659 264.444 166.909 265.236 166.964C266.027 167.019 266.82 166.878 267.543 166.554C268.267 166.229 268.9 165.731 269.385 165.104C269.87 164.476 270.193 163.739 270.324 162.957C270.456 162.174 270.393 161.372 270.14 160.62L284.2 145.39C284.468 145.437 284.739 145.464 285.01 145.47C285.966 145.471 286.899 145.186 287.69 144.65L298.39 149.65C298.431 150.392 298.644 151.114 299.011 151.76C299.378 152.406 299.889 152.958 300.506 153.374C301.122 153.789 301.826 154.055 302.563 154.153C303.299 154.25 304.048 154.175 304.751 153.935C305.454 153.694 306.092 153.294 306.614 152.765C307.136 152.237 307.529 151.594 307.762 150.889C307.994 150.183 308.06 149.433 307.954 148.698C307.848 147.962 307.573 147.261 307.15 146.65L313.1 135.3Z" fill="#263238"/>
<path d="M165.371 157.19L151.851 136.06L129.511 152.49L108.911 111.72L54.5508 146.28V174.2H177.131V150.73L165.371 157.19Z" fill="#263238" stroke="#263238" stroke-width="1.16063" stroke-linecap="round" stroke-linejoin="round"/>
<path d="M167.721 173.03L153.031 150.73L128.341 160.71L99.5308 133.13L54.5508 151.29V191.81H177.131V166.57L167.721 173.03Z" fill="#407BFF" stroke="#263238" stroke-width="0.876601" stroke-miterlimit="10"/>
<path opacity="0.2" d="M167.721 173.03L153.031 150.73L128.341 160.71L99.5308 133.13L54.5508 151.29V191.81H177.131V166.57L167.721 173.03Z" fill="black"/>
<path d="M167.721 173.03L153.031 150.73L128.341 160.71L99.5308 133.13L54.5508 151.29V191.81H177.131V166.57L167.721 173.03Z" stroke="#263238" stroke-width="0.876601" stroke-miterlimit="10"/>
<path d="M124.2 101.38H114.33C113.726 101.376 113.139 101.576 112.664 101.948C112.189 102.32 111.854 102.842 111.713 103.429C111.573 104.016 111.636 104.633 111.891 105.18C112.146 105.727 112.58 106.171 113.12 106.44L109.67 110.11L115.96 106.74H124.2C124.911 106.74 125.592 106.458 126.095 105.955C126.598 105.452 126.88 104.771 126.88 104.06C126.88 103.349 126.598 102.668 126.095 102.165C125.592 101.662 124.911 101.38 124.2 101.38Z" fill="#407BFF"/>
<path opacity="0.2" d="M124.2 101.38H114.33C113.726 101.376 113.139 101.576 112.664 101.948C112.189 102.32 111.854 102.842 111.713 103.429C111.573 104.016 111.636 104.633 111.891 105.18C112.146 105.727 112.58 106.171 113.12 106.44L109.67 110.11L115.96 106.74H124.2C124.911 106.74 125.592 106.458 126.095 105.955C126.598 105.452 126.88 104.771 126.88 104.06C126.88 103.349 126.598 102.668 126.095 102.165C125.592 101.662 124.911 101.38 124.2 101.38Z" fill="black"/>
<path d="M167.43 125.24H157.56C156.957 125.236 156.37 125.436 155.894 125.808C155.419 126.18 155.084 126.702 154.944 127.289C154.803 127.876 154.866 128.493 155.121 129.04C155.377 129.587 155.81 130.031 156.35 130.3L152.9 134L159.19 130.62H167.43C168.141 130.62 168.823 130.338 169.325 129.835C169.828 129.332 170.11 128.651 170.11 127.94C170.11 127.229 169.828 126.548 169.325 126.045C168.823 125.542 168.141 125.26 167.43 125.26V125.24Z" fill="#407BFF"/>
<path opacity="0.2" d="M167.43 125.24H157.56C156.957 125.236 156.37 125.436 155.894 125.808C155.419 126.18 155.084 126.702 154.944 127.289C154.803 127.876 154.866 128.493 155.121 129.04C155.377 129.587 155.81 130.031 156.35 130.3L152.9 134L159.19 130.62H167.43C168.141 130.62 168.823 130.338 169.325 129.835C169.828 129.332 170.11 128.651 170.11 127.94C170.11 127.229 169.828 126.548 169.325 126.045C168.823 125.542 168.141 125.26 167.43 125.26V125.24Z" fill="black"/>
<path d="M59.5004 205.64H175.75C177.273 205.643 178.781 205.345 180.188 204.764C181.595 204.184 182.874 203.331 183.952 202.255C185.029 201.18 185.884 199.902 186.467 198.496C187.05 197.09 187.35 195.582 187.35 194.06V98.26C187.35 96.7376 187.05 95.2302 186.467 93.8239C185.884 92.4177 185.029 91.1402 183.952 90.0646C182.874 88.9891 181.595 88.1365 180.188 87.5557C178.781 86.975 177.273 86.6774 175.75 86.68H59.5004C57.978 86.6774 56.47 86.975 55.0628 87.5557C53.6555 88.1365 52.3766 88.9891 51.2992 90.0646C50.2217 91.1402 49.367 92.4177 48.7838 93.8239C48.2006 95.2302 47.9004 96.7376 47.9004 98.26V194.06C47.9004 195.582 48.2006 197.09 48.7838 198.496C49.367 199.902 50.2217 201.18 51.2992 202.255C52.3766 203.331 53.6555 204.184 55.0628 204.764C56.47 205.345 57.978 205.643 59.5004 205.64V205.64Z" stroke="#263238" stroke-width="1.0631" stroke-miterlimit="10"/>
<path d="M56.7305 99.61H64.7405" stroke="#263238" stroke-width="1.0631" stroke-miterlimit="10"/>
<path d="M56.7305 108.33H64.7405" stroke="#263238" stroke-width="1.0631" stroke-miterlimit="10"/>
<path d="M56.7305 117.05H64.7405" stroke="#263238" stroke-width="1.0631" stroke-miterlimit="10"/>
<path d="M56.7305 125.77H64.7405" stroke="#263238" stroke-width="1.0631" stroke-miterlimit="10"/>
<path d="M56.7305 134.49H64.7405" stroke="#263238" stroke-width="1.0631" stroke-miterlimit="10"/>
<path d="M371.321 111.43C366.113 111.438 361.024 112.989 356.698 115.889C352.371 118.788 349.002 122.904 347.014 127.718C345.027 132.531 344.511 137.826 345.532 142.933C346.552 148.04 349.064 152.73 352.749 156.409C356.435 160.089 361.128 162.594 366.237 163.607C371.345 164.62 376.639 164.096 381.45 162.101C386.26 160.106 390.372 156.73 393.264 152.4C396.157 148.069 397.701 142.978 397.701 137.77C397.69 130.781 394.906 124.081 389.96 119.142C385.014 114.204 378.31 111.43 371.321 111.43ZM371.321 156.37C367.642 156.356 364.051 155.253 360.999 153.199C357.948 151.145 355.574 148.233 354.176 144.831C352.779 141.429 352.421 137.689 353.147 134.083C353.874 130.477 355.653 127.168 358.26 124.573C360.866 121.977 364.183 120.213 367.792 119.501C371.4 118.79 375.139 119.164 378.535 120.576C381.932 121.988 384.833 124.375 386.874 127.435C388.914 130.496 390.002 134.092 390.001 137.77C389.995 140.218 389.508 142.641 388.566 144.9C387.625 147.16 386.247 149.212 384.513 150.939C382.778 152.666 380.72 154.035 378.457 154.966C376.193 155.898 373.768 156.375 371.321 156.37Z" fill="#407BFF" stroke="#263238" stroke-width="1.0631" stroke-miterlimit="10"/>
<g opacity="0.2">
<path opacity="0.2" d="M371.321 111.43C366.113 111.438 361.024 112.989 356.698 115.889C352.371 118.788 349.002 122.904 347.014 127.718C345.027 132.531 344.511 137.826 345.532 142.933C346.552 148.04 349.064 152.73 352.749 156.409C356.435 160.089 361.128 162.594 366.237 163.607C371.345 164.62 376.639 164.096 381.45 162.101C386.26 160.106 390.372 156.73 393.264 152.4C396.157 148.069 397.701 142.978 397.701 137.77C397.69 130.781 394.906 124.081 389.96 119.142C385.014 114.204 378.31 111.43 371.321 111.43ZM371.321 156.37C367.642 156.356 364.051 155.253 360.999 153.199C357.948 151.145 355.574 148.233 354.176 144.831C352.779 141.429 352.421 137.689 353.147 134.083C353.874 130.477 355.653 127.168 358.26 124.573C360.866 121.977 364.183 120.213 367.792 119.501C371.4 118.79 375.139 119.164 378.535 120.576C381.932 121.988 384.833 124.375 386.874 127.435C388.914 130.496 390.002 134.092 390.001 137.77C389.995 140.218 389.508 142.641 388.566 144.9C387.625 147.16 386.247 149.212 384.513 150.939C382.778 152.666 380.72 154.035 378.457 154.966C376.193 155.898 373.768 156.375 371.321 156.37Z" fill="black"/>
</g>
<path d="M371.321 111.43C366.113 111.438 361.024 112.989 356.698 115.889C352.371 118.788 349.002 122.904 347.014 127.718C345.027 132.531 344.511 137.826 345.532 142.933C346.552 148.04 349.064 152.73 352.749 156.409C356.435 160.089 361.128 162.594 366.237 163.607C371.345 164.62 376.639 164.096 381.45 162.101C386.26 160.106 390.372 156.73 393.264 152.4C396.157 148.069 397.701 142.978 397.701 137.77C397.69 130.781 394.906 124.081 389.96 119.142C385.014 114.204 378.31 111.43 371.321 111.43V111.43ZM371.321 156.37C367.642 156.356 364.051 155.253 360.999 153.199C357.948 151.145 355.574 148.233 354.176 144.831C352.779 141.429 352.421 137.689 353.147 134.083C353.874 130.477 355.653 127.168 358.26 124.573C360.866 121.977 364.183 120.213 367.792 119.501C371.4 118.79 375.139 119.164 378.535 120.576C381.932 121.988 384.833 124.375 386.874 127.435C388.914 130.496 390.002 134.092 390.001 137.77C389.995 140.218 389.508 142.641 388.566 144.9C387.625 147.16 386.247 149.212 384.513 150.939C382.778 152.666 380.72 154.035 378.457 154.966C376.193 155.898 373.768 156.375 371.321 156.37V156.37Z" stroke="#263238" stroke-width="1.0631" stroke-miterlimit="10"/>
<path d="M371.321 111.43C367.761 111.416 364.235 112.127 360.96 113.522C357.684 114.916 354.728 116.964 352.271 119.54L357.861 124.89C359.988 122.662 362.635 120.997 365.564 120.044C368.494 119.091 371.613 118.879 374.645 119.428C377.676 119.977 380.523 121.269 382.932 123.19C385.341 125.11 387.236 127.597 388.447 130.43C389.658 133.262 390.147 136.351 389.871 139.419C389.595 142.487 388.562 145.438 386.865 148.009C385.168 150.58 382.859 152.689 380.146 154.148C377.434 155.608 374.401 156.371 371.321 156.37V164.1C374.822 164.168 378.302 163.537 381.557 162.245C384.812 160.952 387.776 159.023 390.277 156.571C392.777 154.119 394.763 151.192 396.119 147.963C397.475 144.734 398.174 141.267 398.174 137.765C398.174 134.263 397.475 130.796 396.119 127.567C394.763 124.338 392.777 121.411 390.277 118.959C387.776 116.507 384.812 114.578 381.557 113.285C378.302 111.992 374.822 111.362 371.321 111.43Z" fill="#263238" stroke="#263238" stroke-width="1.0631" stroke-linecap="round" stroke-linejoin="round"/>
<path d="M436.38 111.43C431.172 111.438 426.084 112.989 421.757 115.889C417.431 118.788 414.061 122.904 412.074 127.718C410.086 132.531 409.57 137.826 410.591 142.933C411.612 148.04 414.124 152.73 417.809 156.409C421.494 160.089 426.188 162.594 431.296 163.607C436.404 164.62 441.699 164.096 446.509 162.101C451.32 160.106 455.431 156.73 458.324 152.4C461.216 148.069 462.76 142.978 462.76 137.77C462.75 130.781 459.965 124.081 455.019 119.142C450.073 114.204 443.37 111.43 436.38 111.43ZM436.38 156.37C432.699 156.368 429.102 155.275 426.043 153.228C422.983 151.182 420.6 148.274 419.193 144.872C417.786 141.471 417.42 137.729 418.14 134.12C418.86 130.51 420.634 127.195 423.238 124.594C425.842 121.992 429.159 120.222 432.769 119.506C436.38 118.789 440.121 119.16 443.521 120.57C446.921 121.981 449.826 124.368 451.869 127.429C453.913 130.491 455.002 134.089 455 137.77C454.987 142.702 453.02 147.429 449.531 150.915C446.041 154.401 441.313 156.362 436.38 156.37Z" fill="#407BFF" stroke="#263238" stroke-width="1.0631" stroke-miterlimit="10"/>
<g opacity="0.2">
<path opacity="0.2" d="M436.38 111.43C431.172 111.438 426.084 112.989 421.757 115.889C417.431 118.788 414.061 122.904 412.074 127.718C410.086 132.531 409.57 137.826 410.591 142.933C411.612 148.04 414.124 152.73 417.809 156.409C421.494 160.089 426.188 162.594 431.296 163.607C436.404 164.62 441.699 164.096 446.509 162.101C451.32 160.106 455.431 156.73 458.324 152.4C461.216 148.069 462.76 142.978 462.76 137.77C462.75 130.781 459.965 124.081 455.019 119.142C450.073 114.204 443.37 111.43 436.38 111.43ZM436.38 156.37C432.699 156.368 429.102 155.275 426.043 153.228C422.983 151.182 420.6 148.274 419.193 144.872C417.786 141.471 417.42 137.729 418.14 134.12C418.86 130.51 420.634 127.195 423.238 124.594C425.842 121.992 429.159 120.222 432.769 119.506C436.38 118.789 440.121 119.16 443.521 120.57C446.921 121.981 449.826 124.368 451.869 127.429C453.913 130.491 455.002 134.089 455 137.77C454.987 142.702 453.02 147.429 449.531 150.915C446.041 154.401 441.313 156.362 436.38 156.37Z" fill="black"/>
</g>
<path d="M436.38 111.43C431.172 111.438 426.084 112.989 421.757 115.889C417.431 118.788 414.061 122.904 412.074 127.718C410.086 132.531 409.57 137.826 410.591 142.933C411.612 148.04 414.124 152.73 417.809 156.409C421.494 160.089 426.188 162.594 431.296 163.607C436.404 164.62 441.699 164.096 446.509 162.101C451.32 160.106 455.431 156.73 458.324 152.4C461.216 148.069 462.76 142.978 462.76 137.77C462.75 130.781 459.966 124.081 455.019 119.142C450.073 114.204 443.37 111.43 436.38 111.43V111.43ZM436.38 156.37C432.699 156.368 429.102 155.275 426.043 153.228C422.983 151.182 420.6 148.274 419.193 144.872C417.786 141.471 417.42 137.729 418.14 134.12C418.86 130.51 420.634 127.195 423.238 124.594C425.842 121.992 429.159 120.222 432.769 119.506C436.38 118.789 440.121 119.16 443.521 120.57C446.921 121.981 449.826 124.368 451.869 127.429C453.913 130.491 455.002 134.089 455 137.77C454.987 142.702 453.02 147.429 449.531 150.915C446.041 154.401 441.313 156.362 436.38 156.37V156.37Z" stroke="#263238" stroke-width="1.0631" stroke-miterlimit="10"/>
<path d="M446.651 113.5L443.651 120.62C447.606 122.293 450.861 125.282 452.864 129.081C454.866 132.88 455.494 137.255 454.639 141.464C453.784 145.672 451.5 149.456 448.174 152.173C444.848 154.89 440.685 156.372 436.391 156.37V164.1C442.475 164.114 448.376 162.02 453.092 158.175C457.807 154.33 461.045 148.97 462.255 143.007C463.465 137.045 462.573 130.847 459.73 125.467C456.887 120.088 452.269 115.859 446.661 113.5H446.651Z" fill="#263238" stroke="#263238" stroke-width="1.0631" stroke-linecap="round" stroke-linejoin="round"/>
<path d="M459.32 86.68H350.62C348.728 86.6787 346.854 87.0501 345.105 87.7731C343.356 88.496 341.767 89.5563 340.428 90.8935C339.089 92.2307 338.026 93.8185 337.301 95.5663C336.576 97.3141 336.202 99.1876 336.2 101.08V191.25C336.205 195.07 337.727 198.732 340.431 201.43C343.135 204.128 346.8 205.643 350.62 205.64H459.32C461.212 205.643 463.086 205.272 464.835 204.551C466.583 203.829 468.173 202.769 469.512 201.433C470.851 200.097 471.914 198.509 472.639 196.762C473.365 195.015 473.739 193.142 473.74 191.25V101.08C473.739 99.1876 473.365 97.3141 472.639 95.5663C471.914 93.8185 470.852 92.2307 469.513 90.8935C468.173 89.5563 466.584 88.496 464.835 87.7731C463.087 87.0501 461.213 86.6787 459.32 86.68V86.68Z" stroke="#263238" stroke-width="1.0631" stroke-miterlimit="10"/>
<path d="M347.88 172.75H389.32" stroke="#263238" stroke-width="1.0631" stroke-miterlimit="10"/>
<path d="M347.88 177.18H389.32" stroke="#263238" stroke-width="1.0631" stroke-miterlimit="10"/>
<path d="M347.88 181.61H389.32" stroke="#263238" stroke-width="1.0631" stroke-miterlimit="10"/>
<path d="M347.88 186.05H389.32" stroke="#263238" stroke-width="1.0631" stroke-miterlimit="10"/>
<path d="M347.88 190.48H389.32" stroke="#263238" stroke-width="1.0631" stroke-miterlimit="10"/>
<path d="M416.32 172.75H457.77" stroke="#263238" stroke-width="1.0631" stroke-miterlimit="10"/>
<path d="M416.32 177.18H457.77" stroke="#263238" stroke-width="1.0631" stroke-miterlimit="10"/>
<path d="M416.32 181.61H457.77" stroke="#263238" stroke-width="1.0631" stroke-miterlimit="10"/>
<path d="M416.32 186.05H457.77" stroke="#263238" stroke-width="1.0631" stroke-miterlimit="10"/>
<path d="M416.32 190.48H457.77" stroke="#263238" stroke-width="1.0631" stroke-miterlimit="10"/>
<path d="M382.86 98.89H424.3" stroke="#263238" stroke-width="1.0631" stroke-miterlimit="10"/>
<path d="M382.86 103.33H424.3" stroke="#263238" stroke-width="1.0631" stroke-miterlimit="10"/>
<path d="M335.76 372.34H458.44C462.494 372.343 466.382 370.736 469.251 367.872C472.121 365.009 473.735 361.123 473.74 357.07V227.86C473.739 225.852 473.342 223.864 472.573 222.01C471.803 220.155 470.676 218.47 469.255 217.051C467.834 215.632 466.148 214.507 464.292 213.74C462.437 212.973 460.448 212.579 458.44 212.58H277.24C275.233 212.579 273.244 212.973 271.388 213.74C269.533 214.507 267.847 215.632 266.426 217.051C265.005 218.47 263.878 220.155 263.108 222.01C262.339 223.864 261.942 225.852 261.94 227.86V313" stroke="#263238" stroke-width="1.0631" stroke-miterlimit="10"/>
<path d="M321.281 287.93H292.101V330.34H321.281V287.93Z" fill="#407BFF" stroke="#263238" stroke-width="1.16063" stroke-miterlimit="10"/>
<path opacity="0.2" d="M321.281 287.93H292.101V330.34H321.281V287.93Z" fill="black"/>
<path d="M321.281 287.93H292.101V330.34H321.281V287.93Z" stroke="#263238" stroke-width="1.16063" stroke-miterlimit="10"/>
<path d="M361.8 266.72H332.62V313.67H361.8V266.72Z" fill="#407BFF" stroke="#263238" stroke-width="1.16063" stroke-miterlimit="10"/>
<path opacity="0.2" d="M361.8 266.72H332.62V313.67H361.8V266.72Z" fill="black"/>
<path d="M361.8 266.72H332.62V313.67H361.8V266.72Z" stroke="#263238" stroke-width="1.16063" stroke-miterlimit="10"/>
<path d="M402.321 249.31H373.141V280.36H402.321V249.31Z" fill="#407BFF" stroke="#263238" stroke-width="1.16063" stroke-miterlimit="10"/>
<path opacity="0.2" d="M402.321 249.31H373.141V280.36H402.321V249.31Z" fill="black"/>
<path d="M402.321 249.31H373.141V280.36H402.321V249.31Z" stroke="#263238" stroke-width="1.16063" stroke-miterlimit="10"/>
<path d="M321.281 330.33H292.101V347.75H321.281V330.33Z" fill="#263238" stroke="#263238" stroke-width="1.16063" stroke-linecap="round" stroke-linejoin="round"/>
<path d="M361.8 313.67H332.62V347.75H361.8V313.67Z" fill="#263238" stroke="#263238" stroke-width="1.16063" stroke-linecap="round" stroke-linejoin="round"/>
<path d="M440.451 266.72H411.271V313.67H440.451V266.72Z" fill="#407BFF" stroke="#263238" stroke-width="1.16063" stroke-miterlimit="10"/>
<path opacity="0.2" d="M440.451 266.72H411.271V313.67H440.451V266.72Z" fill="black"/>
<path d="M440.451 266.72H411.271V313.67H440.451V266.72Z" stroke="#263238" stroke-width="1.16063" stroke-miterlimit="10"/>
<path d="M440.451 313.67H411.271V347.75H440.451V313.67Z" fill="#263238" stroke="#263238" stroke-width="1.16063" stroke-linecap="round" stroke-linejoin="round"/>
<path d="M402.321 280.35H373.141V347.75H402.321V280.35Z" fill="#263238" stroke="#263238" stroke-width="1.16063" stroke-linecap="round" stroke-linejoin="round"/>
<path d="M356.741 249.37H338.531C337.695 249.37 336.894 249.702 336.303 250.293C335.713 250.883 335.381 251.685 335.381 252.52V256.71C335.381 257.545 335.713 258.347 336.303 258.937C336.894 259.528 337.695 259.86 338.531 259.86H345.281L347.641 263.94L349.991 259.86H356.741C357.576 259.86 358.377 259.528 358.968 258.937C359.559 258.347 359.891 257.545 359.891 256.71V252.52C359.891 251.685 359.559 250.883 358.968 250.293C358.377 249.702 357.576 249.37 356.741 249.37Z" fill="#407BFF"/>
<path opacity="0.5" d="M356.741 249.37H338.531C337.695 249.37 336.894 249.702 336.303 250.293C335.713 250.883 335.381 251.685 335.381 252.52V256.71C335.381 257.545 335.713 258.347 336.303 258.937C336.894 259.528 337.695 259.86 338.531 259.86H345.281L347.641 263.94L349.991 259.86H356.741C357.576 259.86 358.377 259.528 358.968 258.937C359.559 258.347 359.891 257.545 359.891 256.71V252.52C359.891 251.685 359.559 250.883 358.968 250.293C358.377 249.702 357.576 249.37 356.741 249.37Z" fill="white"/>
<path d="M356.741 249.37H338.531C337.695 249.37 336.894 249.702 336.303 250.293C335.713 250.883 335.381 251.685 335.381 252.52V256.71C335.381 257.545 335.713 258.347 336.303 258.937C336.894 259.528 337.695 259.86 338.531 259.86H345.281L347.641 263.94L349.991 259.86H356.741C357.576 259.86 358.377 259.528 358.968 258.937C359.559 258.347 359.891 257.545 359.891 256.71V252.52C359.891 251.685 359.559 250.883 358.968 250.293C358.377 249.702 357.576 249.37 356.741 249.37V249.37Z" stroke="#263238" stroke-width="1.16689" stroke-linecap="round" stroke-linejoin="round"/>
<path d="M315.79 271.12H297.59C296.757 271.12 295.957 271.45 295.367 272.039C294.776 272.628 294.443 273.426 294.44 274.26V278.46C294.443 279.294 294.776 280.092 295.367 280.681C295.957 281.27 296.757 281.6 297.59 281.6H304.33L306.69 285.68L309.05 281.6H315.79C316.624 281.6 317.424 281.27 318.014 280.681C318.605 280.092 318.938 279.294 318.94 278.46V274.26C318.938 273.426 318.605 272.628 318.014 272.039C317.424 271.45 316.624 271.12 315.79 271.12Z" fill="#407BFF"/>
<path opacity="0.5" d="M315.79 271.12H297.59C296.757 271.12 295.957 271.45 295.367 272.039C294.776 272.628 294.443 273.426 294.44 274.26V278.46C294.443 279.294 294.776 280.092 295.367 280.681C295.957 281.27 296.757 281.6 297.59 281.6H304.33L306.69 285.68L309.05 281.6H315.79C316.624 281.6 317.424 281.27 318.014 280.681C318.605 280.092 318.938 279.294 318.94 278.46V274.26C318.938 273.426 318.605 272.628 318.014 272.039C317.424 271.45 316.624 271.12 315.79 271.12Z" fill="white"/>
<path d="M315.79 271.12H297.59C296.757 271.12 295.957 271.45 295.367 272.039C294.776 272.628 294.443 273.426 294.44 274.26V278.46C294.443 279.294 294.776 280.092 295.367 280.681C295.957 281.27 296.757 281.6 297.59 281.6H304.33L306.69 285.68L309.05 281.6H315.79C316.624 281.6 317.424 281.27 318.014 280.681C318.605 280.092 318.938 279.294 318.94 278.46V274.26C318.938 273.426 318.605 272.628 318.014 272.039C317.424 271.45 316.624 271.12 315.79 271.12V271.12Z" stroke="#263238" stroke-width="1.16689" stroke-linecap="round" stroke-linejoin="round"/>
<path d="M396.65 231.9H378.44C377.605 231.9 376.803 232.232 376.213 232.823C375.622 233.413 375.29 234.215 375.29 235.05V239.24C375.29 239.653 375.372 240.062 375.53 240.444C375.688 240.826 375.921 241.172 376.213 241.464C376.506 241.756 376.853 241.987 377.235 242.144C377.617 242.301 378.027 242.381 378.44 242.38H385.19L387.54 246.46L389.9 242.38H396.65C397.063 242.381 397.473 242.301 397.855 242.144C398.237 241.987 398.584 241.756 398.877 241.464C399.169 241.172 399.402 240.826 399.56 240.444C399.718 240.062 399.8 239.653 399.8 239.24V235.05C399.8 234.215 399.468 233.413 398.877 232.823C398.287 232.232 397.485 231.9 396.65 231.9Z" fill="#407BFF"/>
<path opacity="0.5" d="M396.65 231.9H378.44C377.605 231.9 376.803 232.232 376.213 232.823C375.622 233.413 375.29 234.215 375.29 235.05V239.24C375.29 239.653 375.372 240.062 375.53 240.444C375.688 240.826 375.921 241.172 376.213 241.464C376.506 241.756 376.853 241.987 377.235 242.144C377.617 242.301 378.027 242.381 378.44 242.38H385.19L387.54 246.46L389.9 242.38H396.65C397.063 242.381 397.473 242.301 397.855 242.144C398.237 241.987 398.584 241.756 398.877 241.464C399.169 241.172 399.402 240.826 399.56 240.444C399.718 240.062 399.8 239.653 399.8 239.24V235.05C399.8 234.215 399.468 233.413 398.877 232.823C398.287 232.232 397.485 231.9 396.65 231.9Z" fill="white"/>
<path d="M396.65 231.9H378.44C377.605 231.9 376.803 232.232 376.213 232.823C375.622 233.413 375.29 234.215 375.29 235.05V239.24C375.29 239.653 375.372 240.062 375.53 240.444C375.688 240.826 375.921 241.172 376.213 241.464C376.506 241.756 376.853 241.987 377.235 242.144C377.617 242.301 378.027 242.381 378.44 242.38H385.19L387.54 246.46L389.9 242.38H396.65C397.063 242.381 397.473 242.301 397.855 242.144C398.237 241.987 398.584 241.756 398.877 241.464C399.169 241.172 399.402 240.826 399.56 240.444C399.718 240.062 399.8 239.653 399.8 239.24V235.05C399.8 234.215 399.468 233.413 398.877 232.823C398.287 232.232 397.485 231.9 396.65 231.9V231.9Z" stroke="#263238" stroke-width="1.16689" stroke-linecap="round" stroke-linejoin="round"/>
<path d="M435 249.1H416.8C415.965 249.1 415.164 249.432 414.573 250.023C413.982 250.613 413.65 251.415 413.65 252.25V256.44C413.65 256.853 413.732 257.262 413.89 257.644C414.049 258.026 414.281 258.372 414.574 258.664C414.866 258.956 415.214 259.187 415.596 259.344C415.978 259.501 416.387 259.581 416.8 259.58H423.54L425.9 263.66L428.26 259.58H435C435.414 259.581 435.824 259.501 436.207 259.344C436.589 259.187 436.937 258.956 437.231 258.664C437.524 258.373 437.757 258.026 437.917 257.645C438.076 257.263 438.159 256.854 438.16 256.44V252.25C438.158 251.414 437.824 250.612 437.231 250.022C436.639 249.432 435.837 249.1 435 249.1Z" fill="#407BFF"/>
<path opacity="0.5" d="M435 249.1H416.8C415.965 249.1 415.164 249.432 414.573 250.023C413.982 250.613 413.65 251.415 413.65 252.25V256.44C413.65 256.853 413.732 257.262 413.89 257.644C414.049 258.026 414.281 258.372 414.574 258.664C414.866 258.956 415.214 259.187 415.596 259.344C415.978 259.501 416.387 259.581 416.8 259.58H423.54L425.9 263.66L428.26 259.58H435C435.414 259.581 435.824 259.501 436.207 259.344C436.589 259.187 436.937 258.956 437.231 258.664C437.524 258.373 437.757 258.026 437.917 257.645C438.076 257.263 438.159 256.854 438.16 256.44V252.25C438.158 251.414 437.824 250.612 437.231 250.022C436.639 249.432 435.837 249.1 435 249.1Z" fill="white"/>
<path d="M435 249.1H416.8C415.965 249.1 415.164 249.432 414.573 250.023C413.982 250.613 413.65 251.415 413.65 252.25V256.44C413.65 256.853 413.732 257.262 413.89 257.644C414.049 258.026 414.281 258.372 414.574 258.664C414.866 258.956 415.214 259.187 415.596 259.344C415.978 259.501 416.387 259.581 416.8 259.58H423.54L425.9 263.66L428.26 259.58H435C435.414 259.581 435.824 259.501 436.207 259.344C436.589 259.187 436.937 258.956 437.231 258.664C437.524 258.373 437.757 258.026 437.917 257.645C438.076 257.263 438.159 256.854 438.16 256.44V252.25C438.158 251.414 437.824 250.612 437.231 250.022C436.639 249.432 435.837 249.1 435 249.1V249.1Z" stroke="#263238" stroke-width="1.16689" stroke-linecap="round" stroke-linejoin="round"/>
<path d="M293.091 225.94H334.541" stroke="#263238" stroke-width="1.0631" stroke-miterlimit="10"/>
<path d="M293.091 230.37H334.541" stroke="#263238" stroke-width="1.0631" stroke-miterlimit="10"/>
<path d="M293.091 234.81H334.541" stroke="#263238" stroke-width="1.0631" stroke-miterlimit="10"/>
<path d="M293.091 239.24H334.541" stroke="#263238" stroke-width="1.0631" stroke-miterlimit="10"/>
<path d="M293.091 243.67H334.541" stroke="#263238" stroke-width="1.0631" stroke-miterlimit="10"/>
<path d="M70.6795 296.63C70.1295 297.29 69.5695 297.99 68.9695 298.79C61.5295 308.79 65.4095 329.79 60.8895 337.54C56.3695 345.29 45.0495 343.07 42.7895 355.25C40.5295 367.43 41.7895 380.15 39.8795 386.25C37.9695 392.35 30.5095 396.25 29.2095 403.41C27.9095 410.57 27.5195 415.76 27.5195 415.76L70.6795 414.34V296.63Z" fill="#407BFF"/>
<path opacity="0.7" d="M70.6795 296.63C70.1295 297.29 69.5695 297.99 68.9695 298.79C61.5295 308.79 65.4095 329.79 60.8895 337.54C56.3695 345.29 45.0495 343.07 42.7895 355.25C40.5295 367.43 41.7895 380.15 39.8795 386.25C37.9695 392.35 30.5095 396.25 29.2095 403.41C27.9095 410.57 27.5195 415.76 27.5195 415.76L70.6795 414.34V296.63Z" fill="white"/>
<path d="M224.16 414.79L179.84 419.91L193.45 432.51L224.01 429.86" fill="#263238"/>
<path d="M224.16 414.79L179.84 419.91L193.45 432.51L224.01 429.86" stroke="#263238" stroke-width="0.969857" stroke-linecap="round" stroke-linejoin="round"/>
<path d="M194.289 421.92L222.679 418.82" stroke="white" stroke-width="0.484928" stroke-linecap="round" stroke-linejoin="round"/>
<path d="M196.51 425.02L222.24 422.81" stroke="white" stroke-width="0.484928" stroke-linecap="round" stroke-linejoin="round"/>
<path d="M199.17 427.68L222.68 425.46" stroke="white" stroke-width="0.484928" stroke-linecap="round" stroke-linejoin="round"/>
<path d="M197.119 420.1L205.209 428.92" stroke="white" stroke-width="0.484928" stroke-linecap="round" stroke-linejoin="round"/>
<path d="M203.109 419.81L211.149 428.12" stroke="white" stroke-width="0.484928" stroke-linecap="round" stroke-linejoin="round"/>
<path d="M209.329 418.92L217.359 427.23" stroke="white" stroke-width="0.484928" stroke-linecap="round" stroke-linejoin="round"/>
<path d="M215.979 418.48L222.679 425.46" stroke="white" stroke-width="0.484928" stroke-linecap="round" stroke-linejoin="round"/>
<path d="M178.84 309.85C177.38 309.23 170.62 282.92 170.62 282.92L167.14 273C167.14 273 161.91 255.15 159.91 251.83C157.91 248.51 149.91 245.83 149.91 245.83L146.91 244.18L133.91 237.18V237.25L132.04 233.34L109.66 215.34C109.66 215.34 110.06 219.68 110.66 223.96C110.6 223.96 106 226.96 104.36 229.59C104.05 230.08 103.78 231.13 102.54 233.88C97.5396 236.46 78.7096 246.33 72.4796 251.14C65.1696 256.77 63.8396 260.75 64.1696 264.07L64.5096 269.37C64.5096 269.37 67.6296 288.37 70.8796 297.74L70.4796 297.55L70.3696 414.17L164 410.62L164.15 323.99C167.35 322.94 170.68 321.71 172.69 320.82L173.19 321.27L177.41 324.36C178.088 324.87 178.875 325.216 179.71 325.37C180.545 325.525 181.404 325.484 182.22 325.25C184.01 324.74 182.89 322.62 181.59 321.92C180.603 321.254 179.667 320.515 178.79 319.71L174.89 314.85C177.23 315.27 180.98 315.93 182.54 316.15C184.86 316.48 187.85 317.15 188.18 314.15C188.51 311.15 181.17 310.85 178.84 309.85Z" fill="white"/>
<path d="M109.77 215.38C109.77 215.38 111.04 229.48 111.87 232.02C112.62 234.32 116.41 246.87 119.73 252.5C123.05 258.13 127.1 257.5 127.73 251.18C128.36 244.86 128.04 234.61 128.04 234.61" stroke="#263238" stroke-width="0.969857" stroke-linecap="round" stroke-linejoin="round"/>
<path d="M110.529 224.29C110.529 224.29 106.119 226.98 104.459 229.63C102.799 232.28 95.8193 256.81 95.8193 256.81L109.099 257.48L97.8093 262.48" stroke="#263238" stroke-width="0.969857" stroke-linecap="round" stroke-linejoin="round"/>
<path d="M98.1494 265.43C98.1494 265.43 109.439 284 111.099 286C112.119 287.238 113.007 288.578 113.749 290" stroke="#263238" stroke-width="0.969857" stroke-linecap="round" stroke-linejoin="round"/>
<path d="M111.43 230C111.43 230 117.07 253.21 120.43 265.47C123.79 277.73 127 293 127 293" stroke="#263238" stroke-width="0.969857" stroke-linecap="round" stroke-linejoin="round"/>
<path d="M128 237.26C128 237.26 129.33 264.11 129.33 274.72V291.62" stroke="#263238" stroke-width="0.969857" stroke-linecap="round" stroke-linejoin="round"/>
<path d="M132.68 234.6L141.65 252.84L134.34 255.16L145.63 261.45L135.34 293.61" stroke="#263238" stroke-width="0.969857" stroke-linecap="round" stroke-linejoin="round"/>
<path d="M134.01 237.26L146.96 244.22" stroke="#263238" stroke-width="0.969857" stroke-linecap="round" stroke-linejoin="round"/>
<path d="M157.26 264.44L158.92 295.6" stroke="#263238" stroke-width="0.969857" stroke-linecap="round" stroke-linejoin="round"/>
<path d="M102.46 233.94C102.46 233.94 79.88 245.54 72.58 251.18C65.28 256.82 63.94 260.79 64.27 264.11" stroke="#263238" stroke-width="0.969857" stroke-linecap="round" stroke-linejoin="round"/>
<path d="M70.5791 297.59V413.61" stroke="#263238" stroke-width="0.969857" stroke-linecap="round" stroke-linejoin="round"/>
<path d="M129.029 326.1V409.31" stroke="#263238" stroke-width="0.969857" stroke-linecap="round" stroke-linejoin="round"/>
<path d="M78.6895 262.46C78.6895 262.46 86.3095 265.13 89.6895 271.6" stroke="#263238" stroke-width="0.969857" stroke-linecap="round" stroke-linejoin="round"/>
<path d="M83.6396 262.08C83.6396 262.08 90.4997 264.75 93.5497 271.22" stroke="#263238" stroke-width="0.969857" stroke-linecap="round" stroke-linejoin="round"/>
<path d="M79.0693 368.57H104.349V373.53H79.9693" stroke="#263238" stroke-width="0.969857" stroke-linecap="round" stroke-linejoin="round"/>
<path d="M172.55 287.3C170.17 281.3 168.18 276.3 167.14 273.01C167.195 275.004 166.843 276.988 166.105 278.842C165.367 280.695 164.26 282.379 162.85 283.79C155.95 290.53 154 288.19 154.31 297.55C154.62 306.91 158.31 311.16 156 319.14C153.69 327.12 143.64 335 144 348.82C144.13 351.85 144.972 354.807 146.46 357.45L104.84 413L164.36 411.25V331.78L172.55 287.3Z" fill="#407BFF"/>
<path opacity="0.7" d="M172.55 287.3C170.17 281.3 168.18 276.3 167.14 273.01C167.195 275.004 166.843 276.988 166.105 278.842C165.367 280.695 164.26 282.379 162.85 283.79C155.95 290.53 154 288.19 154.31 297.55C154.62 306.91 158.31 311.16 156 319.14C153.69 327.12 143.64 335 144 348.82C144.13 351.85 144.972 354.807 146.46 357.45L104.84 413L164.36 411.25V331.78L172.55 287.3Z" fill="white"/>
<path d="M164.409 373.28V407.81" stroke="#263238" stroke-width="0.969857" stroke-linecap="round" stroke-linejoin="round"/>
<path d="M145 187.86C147 187.53 156.95 181.23 155.29 174.93C153.63 168.63 139.66 161 128.7 164.66C122.097 166.858 115.999 170.349 110.76 174.93C110.76 174.93 103.46 174.93 100.76 177.93C98.0599 180.93 100.1 185.55 101.76 188.87C103.2 191.74 103.14 199.35 103.1 201.32C103.009 201.315 102.919 201.336 102.84 201.38C102.284 201.687 101.799 202.107 101.417 202.614C101.034 203.12 100.763 203.701 100.62 204.32C100.17 206.32 101 208.99 103.02 212.01C103.692 213.144 104.637 214.092 105.769 214.768C106.9 215.444 108.183 215.826 109.5 215.88C110.366 216.878 111.071 218.005 111.59 219.22C112.43 221.22 120.8 234.06 125.59 234.43C126.28 234.49 126.94 234.51 127.59 234.51C131.72 234.51 134.72 233.4 136.33 231.26C138.46 228.43 143.74 217.02 144.4 211.47C144.51 210.47 144.57 209.22 144.6 207.72C145.339 206.784 145.741 205.627 145.741 204.435C145.741 203.243 145.339 202.085 144.6 201.15C144.49 195.28 144.18 189.2 144.1 187.8C144.391 187.888 144.699 187.909 145 187.86Z" fill="white"/>
<path d="M143.64 187.53C143.64 187.53 144.64 205.76 143.97 211.4C143.3 217.04 137.97 228.3 135.97 230.96C133.97 233.62 129.97 234.27 125.68 233.96C121.39 233.65 113.06 221.36 112.06 219.04C111.505 217.7 110.72 216.468 109.74 215.4C109.74 215.4 106.09 215.73 103.43 211.75C100.77 207.77 99.7795 203.75 103.1 201.8" stroke="#263238" stroke-width="0.969857" stroke-linecap="round" stroke-linejoin="round"/>
<path d="M129.359 205.43C129.359 205.43 131.689 201.43 134.009 203.77L135.669 214.38L130.669 215.71L131.329 221.01" stroke="#263238" stroke-width="0.969857" stroke-linecap="round" stroke-linejoin="round"/>
<path d="M124.379 210.4C127.13 210.4 129.359 208.175 129.359 205.43C129.359 202.685 127.13 200.46 124.379 200.46C121.629 200.46 119.399 202.685 119.399 205.43C119.399 208.175 121.629 210.4 124.379 210.4Z" fill="#407BFF" stroke="#263238" stroke-width="0.969857" stroke-linecap="round" stroke-linejoin="round"/>
<path opacity="0.4" d="M124.379 210.4C127.13 210.4 129.359 208.175 129.359 205.43C129.359 202.685 127.13 200.46 124.379 200.46C121.629 200.46 119.399 202.685 119.399 205.43C119.399 208.175 121.629 210.4 124.379 210.4Z" fill="white" stroke="#263238" stroke-width="1.16689" stroke-miterlimit="10"/>
<path d="M145.3 204.44C145.3 203.451 145.007 202.484 144.457 201.662C143.908 200.84 143.127 200.199 142.213 199.821C141.3 199.442 140.294 199.343 139.324 199.536C138.354 199.729 137.464 200.205 136.764 200.904C136.065 201.604 135.589 202.495 135.396 203.464C135.203 204.434 135.302 205.44 135.68 206.353C136.059 207.267 136.7 208.048 137.522 208.597C138.344 209.147 139.311 209.44 140.3 209.44C141.626 209.44 142.898 208.913 143.835 207.975C144.773 207.038 145.3 205.766 145.3 204.44Z" fill="#407BFF" stroke="#263238" stroke-width="0.969857" stroke-linecap="round" stroke-linejoin="round"/>
<path opacity="0.4" d="M145.3 204.44C145.3 203.451 145.007 202.484 144.457 201.662C143.908 200.84 143.127 200.199 142.213 199.821C141.3 199.442 140.294 199.343 139.324 199.536C138.354 199.729 137.464 200.205 136.764 200.904C136.065 201.604 135.589 202.495 135.396 203.464C135.203 204.434 135.302 205.44 135.68 206.353C136.059 207.267 136.7 208.048 137.522 208.597C138.344 209.147 139.311 209.44 140.3 209.44C141.626 209.44 142.898 208.913 143.835 207.975C144.773 207.038 145.3 205.766 145.3 204.44Z" fill="white" stroke="#263238" stroke-width="1.16689" stroke-miterlimit="10"/>
<path d="M119.399 205.43L109.439 206.09" stroke="#263238" stroke-width="0.969857" stroke-linecap="round" stroke-linejoin="round"/>
<path d="M119.479 198.52C119.479 198.52 122.149 195.86 127.109 197.38" stroke="#263238" stroke-width="0.969857" stroke-linecap="round" stroke-linejoin="round"/>
<path d="M136.26 197C136.26 197 141.26 194.34 142.74 197.76" stroke="#263238" stroke-width="0.969857" stroke-linecap="round" stroke-linejoin="round"/>
<path d="M113.42 188.19C113.42 188.19 116.08 194.49 116.74 195.49C117.4 196.49 113.42 201.12 113.42 201.12V205.76L109.42 206.09L105.42 202.45L103.1 201.78C103.1 201.78 103.43 192.17 101.77 188.86C100.11 185.55 98.1199 180.86 100.77 177.92C103.42 174.98 110.77 174.92 110.77 174.92C116.009 170.339 122.107 166.848 128.71 164.65C139.71 161 153.61 168.65 155.27 174.92C156.93 181.19 147 187.53 145 187.86C143 188.19 140 184.22 137 184.22H132.35C129.03 184.22 128.7 183.88 125.04 183.88C121.38 183.88 113.42 188.19 113.42 188.19Z" fill="#263238"/>
<path d="M117.58 182.75C117.58 182.75 123.25 179.61 126.09 174.26C128.93 168.91 119.47 171.43 116.95 174.89C114.43 178.35 120.42 177.09 120.42 177.09" stroke="white" stroke-width="0.484928" stroke-linecap="round" stroke-linejoin="round"/>
<path d="M113.419 188.19C113.419 188.19 110.019 191.87 105.609 192.19" stroke="white" stroke-width="0.484928" stroke-linecap="round" stroke-linejoin="round"/>
<path d="M115.06 192.82C115.06 192.82 109.06 195.65 105.92 195.65" stroke="white" stroke-width="0.484928" stroke-linecap="round" stroke-linejoin="round"/>
<path d="M105.92 198.16C105.92 198.16 110.65 199.16 113.17 198.16" stroke="white" stroke-width="0.484928" stroke-linecap="round" stroke-linejoin="round"/>
<path d="M122.619 183.38C122.619 183.38 125.139 183.07 133.329 180.24C141.519 177.41 144.329 174.24 138.999 170.17" stroke="white" stroke-width="0.484928" stroke-linecap="round" stroke-linejoin="round"/>
<path d="M287.219 361.16C287.219 361.16 274.169 326.45 270.819 323.11C267.469 319.77 250.679 309.54 250.679 309.54L249.329 307.23L248.509 304.42C248.509 304.42 247.509 300.19 244.629 298.1L244.399 297.61L224.599 289.13C224.599 289.13 224.739 291.75 224.949 294.91C222.609 295.76 217.419 298.04 215.639 302.1C214.479 304.73 213.819 309.1 213.489 313.21L212.679 313.81L212.979 312.71C212.979 312.71 191.059 325 190.069 327C188.789 328.68 185.479 339.45 185.479 339.45C185.479 339.45 182.179 349.8 178.549 361.23C173.429 376.95 168.479 392.66 168.159 395.17C168.159 395.4 168.159 395.29 168.159 395.29C167.829 399.6 184.289 415.49 184.289 415.49H184.509L186.509 417.49C186.509 417.49 186.509 417.29 186.509 416.66C187.899 419.49 190.169 423.66 191.969 422.78C193.449 422.05 192.969 419.48 191.769 416.13C193.259 418.4 194.969 420.05 196.329 419.39C198.679 418.23 197.509 414.22 195.149 408.48C194.947 407.99 194.64 407.551 194.25 407.193C193.859 406.836 193.395 406.568 192.889 406.41C193.649 406.33 194.419 406.25 195.209 406.15C195.999 409.82 197.769 413 199.759 412.58C201.749 412.16 202.049 409.58 201.649 405.19C201.849 405.19 202.119 404.6 202.319 404.57C203.199 407.66 204.549 410.41 206.249 410.05C208.119 409.65 208.629 407.79 208.409 404.05C208.409 402.66 208.309 402.21 208.259 401.33C208.989 401.78 212.569 403.94 212.979 404.25C214.309 405.25 224.429 403.09 224.429 403.09C239.209 398.31 262.839 398.09 278.099 387.87C288.289 381 287.219 361.16 287.219 361.16ZM194.059 389.55L198.059 363.23L199.649 387.23L199.179 393.15L194.059 389.55Z" fill="white"/>
<path d="M190.13 326.43L213.94 312.43C213.94 312.43 215.43 299.67 218.47 298.37C218.47 298.37 222.65 294.72 227.4 295.44C230.12 295.84 232.13 292.44 233.67 286.52C233.67 274.81 233.51 259.86 233.39 250.52C232.39 245.91 231.31 242.17 230.95 240.71L219.73 236C219.73 236 217.33 227.9 204.99 226.09C192.65 224.28 179.42 237.51 177.91 246.52C176.4 255.53 185.13 265.14 181.82 270.25C178.51 275.36 164.67 282.86 161.06 291.57C157.45 300.28 158.35 306.29 158.35 306.29C158.35 306.29 168.28 320.4 165.57 325.21C162.86 330.02 146.92 334.52 147.22 348.64C147.5 361.72 160.45 370.93 174.8 372.64L190.13 326.43Z" fill="#263238"/>
<path d="M216.18 238.41C216.18 238.41 207.68 228.67 196.97 231.81C186.26 234.95 182.16 246.28 184.37 251.94C186.58 257.6 191.61 262.31 187.83 270.8C184.05 279.29 174.6 280.55 169.83 290.3C165.06 300.05 166.37 303.2 166.37 303.2" stroke="white" stroke-width="0.484928" stroke-linecap="round" stroke-linejoin="round"/>
<path d="M210.509 246.59C210.509 246.59 202.639 247.53 202.639 252.59C202.639 257.65 207.049 260.13 207.639 266.42C208.229 272.71 206.379 275.23 201.639 283.09C196.899 290.95 196.639 295.04 200.069 300.39C203.499 305.74 205.739 314.54 201.329 317.68" stroke="white" stroke-width="0.484928" stroke-linecap="round" stroke-linejoin="round"/>
<path d="M212.4 240.3C212.4 240.3 202.95 235.3 195.4 239.99C187.85 244.68 197.92 254.14 199.18 262.94C200.44 271.74 194.18 278.04 185.64 287.47C183.138 290.323 181.28 293.682 180.193 297.318C179.106 300.954 178.815 304.782 179.34 308.54" stroke="white" stroke-width="0.484928" stroke-linecap="round" stroke-linejoin="round"/>
<path d="M178.699 319.55C178.699 319.55 180.899 324.26 174.909 330.55C168.919 336.84 156.009 338.42 152.909 347.85C149.809 357.28 155.999 362.32 155.999 362.32" stroke="white" stroke-width="0.484928" stroke-linecap="round" stroke-linejoin="round"/>
<path d="M224.67 288.6C224.67 288.6 225.33 301.24 226 304.55C226.67 307.86 229.34 319.68 230.35 330.12C230.838 335.537 231.843 340.894 233.35 346.12C233.35 346.12 241.44 377.54 241.92 338.07C242.09 324.15 240.59 302.27 240.59 302.27L241.25 295.64" fill="white"/>
<g style="mix-blend-mode:multiply" opacity="0.3">
<path d="M238.2 296.68L226 304.55L225.22 291.26C225.22 291.26 233.37 296.08 238.2 296.68Z" fill="#407BFF"/>
</g>
<g style="mix-blend-mode:multiply" opacity="0.3">
<path d="M240.61 302.23C240.61 302.23 240.21 324.79 239.11 334.33C238.502 340.393 239.128 346.516 240.95 352.33C240.95 352.33 242.48 317.43 240.61 302.23Z" fill="#407BFF"/>
</g>
<path d="M224.67 288.6C224.67 288.6 225.33 301.24 226 304.55C226.67 307.86 229.34 319.68 230.35 330.12C230.838 335.537 231.843 340.894 233.35 346.12C233.35 346.12 241.44 377.54 241.92 338.07C242.09 324.15 240.59 302.27 240.59 302.27L241.25 295.64" stroke="#263238" stroke-width="0.969857" stroke-linecap="round" stroke-linejoin="round"/>
<path d="M215.87 341.56L213.76 346.08L227.64 359.63L215.87 341.56Z" fill="#407BFF"/>
<path opacity="0.7" d="M215.87 341.56L213.76 346.08L227.64 359.63L215.87 341.56Z" fill="white"/>
<path d="M199.699 351.55C199.699 351.55 204.339 340.83 205.799 343.27C207.259 345.71 197.989 356.18 201.649 357.64C205.309 359.1 210.649 353.74 208.969 358.12C207.289 362.5 204.339 367.62 204.339 369.82C204.339 372.02 205.339 393.69 205.339 393.69L205.589 395.15L202.659 397.15C202.659 397.15 199.489 393.98 199.489 391.3C199.489 388.62 198.999 377.9 198.999 375.47C198.999 373.04 197.859 364.47 197.859 364.47L199.699 351.55Z" fill="#407BFF"/>
<path opacity="0.7" d="M199.7 351.55C199.7 351.55 204.34 340.83 205.8 343.27C207.26 345.71 197.99 356.18 201.65 357.64C205.31 359.1 210.65 353.74 208.97 358.12C207.29 362.5 204.34 367.62 204.34 369.82C204.34 372.02 205.34 393.69 205.34 393.69L205.59 395.15L202.66 397.15C202.66 397.15 199.49 393.98 199.49 391.3C199.49 388.62 199 377.9 199 375.47C199 373.04 198 363.87 198 363.87L199.7 351.55Z" fill="white"/>
<path d="M224.83 294.83C224.83 294.83 218.03 296.26 215.7 301.57C213.37 306.88 213.05 319.14 213.38 322.45C213.565 325.113 213.565 327.787 213.38 330.45L222.68 327.45" fill="white"/>
<g style="mix-blend-mode:multiply" opacity="0.3">
<path d="M226.109 303.25C223.308 303.316 220.613 304.335 218.469 306.14C214.539 309.23 214.129 314.8 214.129 314.8C214.129 314.8 212.889 308.2 215.369 302.43C217.849 296.66 224.829 294.83 224.829 294.83L226.109 303.25Z" fill="#407BFF"/>
</g>
<path d="M224.83 294.83C224.83 294.83 218.03 296.26 215.7 301.57C213.37 306.88 213.05 319.14 213.38 322.45C213.565 325.113 213.565 327.787 213.38 330.45L222.68 327.45" stroke="#263238" stroke-width="0.969857" stroke-linecap="round" stroke-linejoin="round"/>
<path d="M225 328.09L214.71 339.69C214.71 339.69 222.35 351.62 226 355.6" stroke="#263238" stroke-width="0.969857" stroke-linecap="round" stroke-linejoin="round"/>
<path d="M251.24 353.94L256.55 333.72L247.25 326.72L254.56 324.4L248.56 303.85C248.56 303.85 247.45 298.69 243.56 297.03" stroke="#263238" stroke-width="0.969857" stroke-linecap="round" stroke-linejoin="round"/>
<path d="M230 318.14C230 318.14 233.32 322.14 237 321.46C240.68 320.78 240.65 318.81 240.65 318.81" stroke="#263238" stroke-width="0.969857" stroke-linecap="round" stroke-linejoin="round"/>
<path d="M197.51 322.32C197.51 322.32 192.14 328.17 192.38 329.63C192.62 331.09 198.97 333.77 197.51 335.47C196.05 337.17 192.38 333.04 191.65 333.77C190.92 334.5 177.5 380.29 178.72 381C179.94 381.71 182.87 379.05 183.6 380.76C184.33 382.47 171.4 387.33 174.08 388.76C176.76 390.19 183.35 387.05 182.08 387.54C180.81 388.03 177.2 392.65 178.18 394.6C179.16 396.55 189.61 406.43 189.61 406.43C188.994 406.684 188.501 407.166 188.235 407.776C187.968 408.386 187.948 409.076 188.18 409.7C188.458 410.957 189.165 412.078 190.18 412.87C190.18 412.87 187.38 410.56 186.95 413.06C186.705 414.364 186.561 415.684 186.52 417.01L179.67 410.23C174.09 404.55 169.55 399.23 168.21 394.66C168.21 394.66 167.97 395.33 169.44 389.97C170.91 384.61 185.54 338.82 185.54 338.82C185.54 338.82 188.85 328.04 190.12 326.37C191.39 324.7 197.51 322.32 197.51 322.32Z" fill="#407BFF"/>
<path opacity="0.7" d="M197.509 322.32C197.509 322.32 192.139 328.17 192.379 329.63C192.619 331.09 198.969 333.77 197.509 335.47C196.049 337.17 192.379 333.04 191.649 333.77C190.919 334.5 177.499 380.29 178.719 381C179.939 381.71 182.869 379.05 183.599 380.76C184.329 382.47 171.399 387.33 174.079 388.76C176.759 390.19 183.349 387.05 182.079 387.54C180.809 388.03 177.199 392.65 178.179 394.6C179.159 396.55 189.609 406.43 189.609 406.43C188.994 406.684 188.501 407.166 188.234 407.776C187.968 408.386 187.948 409.076 188.179 409.7C188.458 410.957 189.165 412.078 190.179 412.87C190.179 412.87 187.379 410.56 186.949 413.06C186.519 415.56 186.299 417.2 186.299 417.2L179.669 410.2C172.749 403.29 168.469 397.84 168.209 394.63C168.209 394.63 167.399 396.15 169.439 389.94C171.169 384.66 185.539 338.79 185.539 338.79C185.539 338.79 188.849 328.01 190.119 326.34C191.389 324.67 197.509 322.32 197.509 322.32Z" fill="white"/>
<path d="M209.529 315.66V334.33L221.299 331.32L225.219 326.8L213.149 329.21L213.939 312.38L209.529 315.66Z" fill="#407BFF"/>
<path opacity="0.7" d="M209.529 315.66V334.33L221.299 331.32L225.219 326.8L213.149 329.21L213.939 312.38L209.529 315.66Z" fill="white"/>
<path d="M213.05 312.18C213.05 312.18 191.13 324.44 190.13 326.43C189.13 328.42 168.55 390.43 168.22 394.72C167.89 399.01 184.49 415.27 184.49 415.27" stroke="#263238" stroke-width="0.969857" stroke-linecap="round" stroke-linejoin="round"/>
<path d="M200.759 343.34L194.119 389.08" stroke="#263238" stroke-width="0.969857" stroke-linecap="round" stroke-linejoin="round"/>
<path d="M201.42 340.68L202.42 336.04" stroke="#263238" stroke-width="0.969857" stroke-linecap="round" stroke-linejoin="round"/>
<path d="M175.189 391.74C175.189 391.74 179.509 385.74 185.819 386.1C192.129 386.46 201.419 395.38 201.419 395.38" stroke="#263238" stroke-width="0.969857" stroke-linecap="round" stroke-linejoin="round"/>
<path d="M177.18 384.77C178.572 383.518 180.346 382.772 182.215 382.653C184.084 382.533 185.939 383.046 187.48 384.11" stroke="#263238" stroke-width="0.969857" stroke-linecap="round" stroke-linejoin="round"/>
<path d="M208 398.58C207.927 398.029 207.726 397.503 207.413 397.044C207.1 396.586 206.683 396.207 206.196 395.939C205.709 395.671 205.166 395.522 204.611 395.503C204.056 395.484 203.504 395.596 203 395.83C202.591 396.035 202.242 396.343 201.988 396.723C201.734 397.104 201.583 397.544 201.55 398C201.18 401.65 203.42 410.62 206.42 410C208.91 409.44 208.83 404.72 208 398.58Z" fill="white" stroke="#263238" stroke-width="0.969857" stroke-linecap="round" stroke-linejoin="round"/>
<path d="M201.319 401.23C201.245 400.68 201.043 400.155 200.729 399.698C200.415 399.24 199.998 398.863 199.512 398.596C199.025 398.329 198.483 398.181 197.928 398.162C197.374 398.144 196.822 398.256 196.319 398.49C195.91 398.692 195.56 398.997 195.306 399.376C195.051 399.755 194.901 400.195 194.869 400.65C194.499 404.3 196.739 413.27 199.739 412.65C202.269 412.09 202.189 407.38 201.319 401.23Z" fill="white" stroke="#263238" stroke-width="0.969857" stroke-linecap="round" stroke-linejoin="round"/>
<path d="M195.22 407.91C195.013 407.39 194.685 406.927 194.265 406.558C193.845 406.189 193.343 405.924 192.801 405.786C192.259 405.647 191.692 405.639 191.146 405.761C190.6 405.884 190.091 406.133 189.66 406.49C189.312 406.788 189.048 407.172 188.895 407.603C188.743 408.035 188.706 408.5 188.79 408.95C189.33 412.57 193.73 420.76 196.46 419.37C198.81 418.17 197.51 413.33 195.22 407.91Z" fill="white" stroke="#263238" stroke-width="0.969857" stroke-linecap="round" stroke-linejoin="round"/>
<path d="M190.92 414.31C190.767 413.921 190.523 413.573 190.21 413.296C189.896 413.02 189.521 412.821 189.116 412.718C188.711 412.614 188.287 412.609 187.879 412.701C187.471 412.794 187.091 412.982 186.77 413.25C186.511 413.475 186.315 413.762 186.199 414.084C186.084 414.406 186.053 414.752 186.11 415.09C186.52 417.8 189.8 423.88 191.85 422.87C193.61 422 192.68 418.61 190.92 414.31Z" fill="white" stroke="#263238" stroke-width="0.969857" stroke-linecap="round" stroke-linejoin="round"/>
<path d="M208.51 401C208.51 401 211.11 403.81 213.04 404.41C214.63 404.9 222.9 403.41 222.9 403.41" stroke="#263238" stroke-width="0.969857" stroke-linecap="round" stroke-linejoin="round"/>
<path d="M220.35 409.64C220.35 409.64 215.04 410.96 211.35 411.64C207.66 412.32 203.71 412.64 203.71 412.64C203.71 412.64 201.05 415.96 199.06 415.96" stroke="#263238" stroke-width="0.969857" stroke-linecap="round" stroke-linejoin="round"/>
<path d="M250.75 309C250.75 309 267.54 319.24 270.89 322.58C274.24 325.92 286 357.24 286 357.24" stroke="#263238" stroke-width="0.969857" stroke-linecap="round" stroke-linejoin="round"/>
<path d="M266.71 331.35L270.47 358.5" stroke="#263238" stroke-width="0.969857" stroke-linecap="round" stroke-linejoin="round"/>
<path d="M270.47 355.23L268.13 335.06L278.47 357.84L270.94 358.18L270.47 355.23Z" fill="#407BFF"/>
<path opacity="0.7" d="M270.47 355.23L268.13 335.06L278.47 357.84L270.94 358.18L270.47 355.23Z" fill="white"/>
<path d="M206.529 345.29L200.029 355.96L205.539 351.6" stroke="#263238" stroke-width="0.969857" stroke-linecap="round" stroke-linejoin="round"/>
<path d="M198.22 364.52C198.22 364.52 199.57 384.34 199.57 387.04C199.57 389.74 199.19 393.3 199.19 393.3" stroke="#263238" stroke-width="0.969857" stroke-linecap="round" stroke-linejoin="round"/>
<path d="M220.68 234.94C220.68 234.94 211.05 240.57 210.39 248.86C210.072 254.327 210.632 259.81 212.05 265.1C212.05 265.1 209.05 262.45 208.73 268.42C208.41 274.39 213.38 279.02 215.37 279.02H217.37C217.37 279.02 221.8 288.12 227.12 292.43C232.44 296.74 237.63 296.93 241.28 295.6C244.93 294.27 251.91 288.31 252.58 280.35C253.25 272.39 252.58 259.13 251.91 250.85C251.24 242.57 249.59 236.59 240.62 233.61C231.65 230.63 225.33 232.61 220.68 234.94Z" fill="white"/>
<g style="mix-blend-mode:multiply" opacity="0.3">
<path d="M212.05 265.1C212.05 265.1 209.05 262.45 208.73 268.42C208.41 274.39 213.38 279.02 215.37 279.02H217.37C217.37 279.02 221.8 288.11 227.12 292.43L229.4 294C230.176 294.47 230.989 294.878 231.83 295.22C230.04 293.02 226.15 287.95 224.32 283.39C221.9 277.39 221.32 264.72 221.9 256.59C222.48 248.46 226.73 245.14 226.73 245.14L220.73 244.84C219.84 244.84 215.19 251.76 210.47 255.73L212.05 265.1Z" fill="#407BFF"/>
</g>
<path d="M220.68 234.94C220.68 234.94 211.05 240.57 210.39 248.86C210.072 254.327 210.632 259.81 212.05 265.1C212.05 265.1 209.05 262.45 208.73 268.42C208.41 274.39 213.38 279.02 215.37 279.02H217.37C217.37 279.02 221.8 288.12 227.12 292.43C232.44 296.74 237.63 296.93 241.28 295.6C244.93 294.27 251.91 288.31 252.58 280.35C253.25 272.39 252.58 259.13 251.91 250.85C251.24 242.57 249.59 236.59 240.62 233.61C231.65 230.63 225.33 232.61 220.68 234.94Z" stroke="#263238" stroke-width="0.969857" stroke-linecap="round" stroke-linejoin="round"/>
<path d="M236.06 265.37C236.06 265.37 238.84 260.62 241.61 263.37L243.61 272.8L239.61 273.62L239.99 279.51" stroke="#263238" stroke-width="0.969857" stroke-linecap="round" stroke-linejoin="round"/>
<path d="M230.12 271.3C233.4 271.3 236.06 268.645 236.06 265.37C236.06 262.095 233.4 259.44 230.12 259.44C226.839 259.44 224.18 262.095 224.18 265.37C224.18 268.645 226.839 271.3 230.12 271.3Z" fill="#407BFF" stroke="#263238" stroke-width="0.969857" stroke-linecap="round" stroke-linejoin="round"/>
<path opacity="0.4" d="M230.12 271.3C233.4 271.3 236.06 268.645 236.06 265.37C236.06 262.095 233.4 259.44 230.12 259.44C226.839 259.44 224.18 262.095 224.18 265.37C224.18 268.645 226.839 271.3 230.12 271.3Z" fill="white" stroke="#263238" stroke-width="1.16689" stroke-miterlimit="10"/>
<path d="M255.089 264.18C255.091 263.005 254.745 261.856 254.095 260.877C253.445 259.898 252.519 259.134 251.435 258.681C250.351 258.227 249.157 258.105 248.003 258.33C246.85 258.554 245.788 259.115 244.953 259.942C244.118 260.769 243.547 261.824 243.311 262.975C243.075 264.126 243.185 265.322 243.627 266.41C244.07 267.499 244.824 268.432 245.797 269.092C246.769 269.753 247.914 270.11 249.089 270.12C249.875 270.128 250.653 269.98 251.381 269.685C252.109 269.39 252.771 268.954 253.329 268.402C253.886 267.849 254.329 267.192 254.632 266.467C254.934 265.742 255.089 264.965 255.089 264.18Z" fill="#407BFF" stroke="#263238" stroke-width="0.969857" stroke-linecap="round" stroke-linejoin="round"/>
<path opacity="0.4" d="M255.089 264.18C255.091 263.005 254.745 261.856 254.095 260.877C253.445 259.898 252.519 259.134 251.435 258.681C250.351 258.227 249.157 258.105 248.003 258.33C246.85 258.554 245.788 259.115 244.953 259.942C244.118 260.769 243.547 261.824 243.311 262.975C243.075 264.126 243.185 265.322 243.627 266.41C244.07 267.499 244.824 268.432 245.797 269.092C246.769 269.753 247.914 270.11 249.089 270.12C249.875 270.128 250.653 269.98 251.381 269.685C252.109 269.39 252.771 268.954 253.329 268.402C253.886 267.849 254.329 267.192 254.632 266.467C254.934 265.742 255.089 264.965 255.089 264.18Z" fill="white" stroke="#263238" stroke-width="1.16689" stroke-miterlimit="10"/>
<path d="M224.179 265.37L212.289 266.16" stroke="#263238" stroke-width="0.969857" stroke-linecap="round" stroke-linejoin="round"/>
<path d="M225.279 257.44C225.973 256.588 226.887 255.942 227.922 255.573C228.957 255.205 230.073 255.127 231.149 255.35" stroke="#263238" stroke-width="0.969857" stroke-linecap="round" stroke-linejoin="round"/>
<path d="M243.75 254.93C244.731 254.391 245.864 254.197 246.968 254.378C248.072 254.56 249.083 255.106 249.84 255.93" stroke="#263238" stroke-width="0.969857" stroke-linecap="round" stroke-linejoin="round"/>
<path d="M251.899 250.85C251.239 242.56 249.579 236.59 240.609 233.61C231.639 230.63 225.329 232.61 220.679 234.94C220.679 234.94 211.049 240.57 210.389 248.86C210.071 254.327 210.632 259.81 212.049 265.1C212.049 265.1 214.709 267.75 215.369 264.1C216.029 260.45 214.039 254.48 223.369 247.52C232.699 240.56 245.949 243.88 250.599 250.52C251.143 250.955 251.612 251.475 251.989 252.06C251.999 251.94 251.909 251 251.899 250.85Z" fill="#263238"/>
<path d="M106.78 287.64C106.78 287.64 98.7797 286.32 92.7797 290.3C91.0715 291.437 89.7254 293.039 88.9011 294.918C88.0769 296.797 87.8091 298.873 88.1297 300.9" stroke="#263238" stroke-width="0.969857" stroke-linecap="round" stroke-linejoin="round"/>
<path d="M89.5098 288.31C89.5098 288.31 85.5098 292.95 85.5098 296.93" stroke="#263238" stroke-width="0.969857" stroke-linecap="round" stroke-linejoin="round"/>
<path d="M64.5996 269.41C64.5996 269.41 68.5996 293.61 72.2396 300.9C75.8796 308.19 86.2396 315.16 94.1596 318.47C102.08 321.78 139.32 327.09 140.65 326.76C141.98 326.43 134.34 319.47 136 310.85C136.83 306.57 142.64 302.23 142.64 302.23C142.64 302.23 126.37 295.23 120.06 292.62C113.75 290.01 106.78 287.62 106.78 287.62C106.78 287.62 97.7796 279.34 93.4996 275.69C89.5643 272.593 85.4614 269.715 81.2096 267.07" stroke="#263238" stroke-width="0.969857" stroke-linecap="round" stroke-linejoin="round"/>
<path d="M174.409 314.31L178.749 319.71C179.626 320.515 180.562 321.254 181.549 321.92C182.849 322.62 183.969 324.74 182.179 325.25C181.363 325.484 180.504 325.525 179.67 325.37C178.835 325.216 178.048 324.87 177.369 324.36L173.149 321.27L169.619 318.08L172.179 313.48L174.409 314.31Z" fill="white" stroke="#263238" stroke-width="0.969857" stroke-linecap="round" stroke-linejoin="round"/>
<path d="M142.639 302.23C142.639 302.23 152.939 304.55 156.259 305.23C159.579 305.91 176.519 308.88 178.839 309.87C181.159 310.86 188.469 311.2 188.139 314.18C187.809 317.16 184.819 316.5 182.499 316.18C180.179 315.86 172.859 314.53 172.859 314.53C172.859 314.53 175.189 318.84 174.529 319.83C173.869 320.82 158.919 326.13 155.929 326.13C152.939 326.13 150.929 320.82 149.619 319.13L145.619 314.13L137.619 310.49" fill="white"/>
<path d="M142.639 302.23C142.639 302.23 152.939 304.55 156.259 305.23C159.579 305.91 176.519 308.88 178.839 309.87C181.159 310.86 188.469 311.2 188.139 314.18C187.809 317.16 184.819 316.5 182.499 316.18C180.179 315.86 172.859 314.53 172.859 314.53C172.859 314.53 175.189 318.84 174.529 319.83C173.869 320.82 158.919 326.13 155.929 326.13C152.939 326.13 150.929 320.82 149.619 319.13L145.619 314.13L137.619 310.49" stroke="#263238" stroke-width="0.969857" stroke-linecap="round" stroke-linejoin="round"/>
<path d="M172.859 314.5L170.539 311.18" stroke="#263238" stroke-width="0.969857" stroke-linecap="round" stroke-linejoin="round"/>
<path d="M140.649 326.76C142.386 325.178 143.74 323.221 144.606 321.038C145.473 318.855 145.829 316.502 145.649 314.16" stroke="#263238" stroke-width="0.969857" stroke-linecap="round" stroke-linejoin="round"/>
<path d="M158.25 318.47L160.91 324.77" stroke="#263238" stroke-width="0.969857" stroke-linecap="round" stroke-linejoin="round"/>
<path d="M164.89 315.82L167.55 322.78" stroke="#263238" stroke-width="0.969857" stroke-linecap="round" stroke-linejoin="round"/>
<path d="M228.659 364.22V442.12L332.599 436.16V358.92L228.659 364.22Z" fill="#263238" stroke="#263238" stroke-width="0.969857" stroke-linecap="round" stroke-linejoin="round"/>
<path d="M332.6 358.92L327.28 355.93L224.34 360.91V436.82L228.66 442.12V364.22L332.6 358.92Z" fill="white" stroke="#263238" stroke-width="0.969857" stroke-linecap="round" stroke-linejoin="round"/>
<path d="M224.34 360.91L228.65 364.22" stroke="#263238" stroke-width="0.969857" stroke-linecap="round" stroke-linejoin="round"/>
<path d="M270.17 409.64V462.35L298.73 460.36V407.32L270.17 409.64Z" fill="#263238" stroke="#263238" stroke-width="0.969857" stroke-linecap="round" stroke-linejoin="round"/>
<path d="M269.279 439.48V409.64L298.729 407.32L298.809 437.63" stroke="white" stroke-width="0.969857" stroke-linecap="round" stroke-linejoin="round"/>
<path d="M270.17 462.35L255.22 449.09L270.17 448.42" fill="white"/>
<path d="M270.17 462.35L255.22 449.09L270.17 448.42" stroke="#263238" stroke-width="0.969857" stroke-linecap="round" stroke-linejoin="round"/>
<path opacity="0.7" d="M89.0498 413.64L183.5 423.1C183.5 423.1 179.88 420.19 181.29 419.91C183.97 419.39 187.94 419.03 187.94 419.03L179.61 410.25L89.0498 413.64Z" fill="#407BFF"/>
<path opacity="0.7" d="M89.0498 413.64L183.5 423.1C183.5 423.1 179.88 420.19 181.29 419.91C183.97 419.39 187.94 419.03 187.94 419.03L179.61 410.25L89.0498 413.64Z" fill="white"/>
<path d="M179.679 410.29L32.2793 415.54" stroke="#263238" stroke-width="0.969857" stroke-linecap="round" stroke-linejoin="round"/>
<path d="M331.89 407.12L431.25 468.44" stroke="#263238" stroke-width="0.969857" stroke-linecap="round" stroke-linejoin="round"/>
<path d="M151.28 422.56L99.2695 428.91L132.78 464.1L188.84 457.17L151.28 422.56Z" fill="#407BFF"/>
<path opacity="0.7" d="M151.28 422.56L99.2695 428.91L132.78 464.1L188.84 457.17L151.28 422.56Z" fill="white"/>
<path d="M98.1094 436.41L144.339 430.64L177.859 464.67L124.689 472.17L98.1094 436.41Z" fill="white"/>
<path d="M126.279 467.22C126.2 467.22 126.124 467.188 126.067 467.132C126.011 467.076 125.979 467 125.979 466.92C125.979 466.84 126.011 466.764 126.067 466.708C126.124 466.652 126.2 466.62 126.279 466.62L168.799 461.15C168.878 461.144 168.957 461.167 169.019 461.215C169.082 461.263 169.125 461.332 169.139 461.41C169.145 461.45 169.142 461.491 169.132 461.53C169.121 461.569 169.103 461.606 169.077 461.638C169.052 461.67 169.021 461.696 168.985 461.715C168.949 461.734 168.91 461.746 168.869 461.75L126.359 467.22H126.279Z" fill="#407BFF"/>
<path d="M123.909 464.38C123.83 464.38 123.754 464.348 123.697 464.292C123.641 464.236 123.609 464.16 123.609 464.08C123.609 464 123.641 463.924 123.697 463.868C123.754 463.812 123.83 463.78 123.909 463.78L166.429 458.31C166.509 458.299 166.589 458.321 166.653 458.37C166.717 458.418 166.759 458.49 166.769 458.57C166.78 458.65 166.759 458.73 166.71 458.794C166.661 458.858 166.589 458.899 166.509 458.91L123.999 464.38H123.909Z" fill="#407BFF"/>
<path d="M121.55 461.54C121.475 461.54 121.403 461.513 121.348 461.463C121.292 461.413 121.257 461.344 121.25 461.27C121.241 461.191 121.263 461.111 121.312 461.048C121.36 460.985 121.431 460.942 121.51 460.93L164 455.46C164.08 455.456 164.158 455.482 164.221 455.531C164.283 455.581 164.325 455.651 164.34 455.73C164.344 455.769 164.34 455.809 164.329 455.847C164.318 455.885 164.299 455.921 164.274 455.951C164.249 455.982 164.218 456.007 164.183 456.026C164.148 456.045 164.109 456.056 164.07 456.06L121.56 461.54H121.55Z" fill="#407BFF"/>
<path d="M119.18 458.69C119.1 458.69 119.024 458.658 118.968 458.602C118.911 458.546 118.88 458.47 118.88 458.39C118.88 458.31 118.911 458.234 118.968 458.178C119.024 458.122 119.1 458.09 119.18 458.09L161.7 452.62C161.779 452.611 161.859 452.633 161.922 452.682C161.985 452.73 162.027 452.801 162.04 452.88C162.045 452.919 162.043 452.96 162.033 452.998C162.023 453.037 162.005 453.073 161.981 453.105C161.957 453.136 161.927 453.163 161.892 453.183C161.858 453.202 161.819 453.215 161.78 453.22L119.26 458.69H119.18Z" fill="#407BFF"/>
<path d="M116.82 455.85C116.747 455.851 116.676 455.825 116.62 455.777C116.565 455.729 116.529 455.662 116.52 455.59C116.514 455.551 116.516 455.51 116.526 455.472C116.536 455.433 116.554 455.397 116.578 455.365C116.603 455.334 116.633 455.307 116.667 455.287C116.702 455.268 116.74 455.255 116.78 455.25L159.3 449.78C159.379 449.771 159.458 449.793 159.522 449.842C159.585 449.89 159.627 449.961 159.64 450.04C159.645 450.08 159.643 450.121 159.632 450.16C159.621 450.199 159.603 450.236 159.577 450.268C159.552 450.3 159.521 450.326 159.485 450.345C159.449 450.364 159.41 450.376 159.37 450.38L116.86 455.85H116.82Z" fill="#407BFF"/>
<path d="M114.449 453C114.375 453 114.303 452.973 114.247 452.923C114.192 452.873 114.157 452.804 114.149 452.73C114.143 452.651 114.166 452.573 114.214 452.51C114.262 452.447 114.332 452.405 114.409 452.39L156.929 446.92C157.01 446.911 157.091 446.935 157.155 446.985C157.218 447.036 157.259 447.109 157.269 447.19C157.278 447.268 157.255 447.346 157.207 447.408C157.158 447.47 157.087 447.51 157.009 447.52L114.489 453H114.449Z" fill="#407BFF"/>
<path d="M112.089 450.16C112.016 450.161 111.945 450.135 111.89 450.087C111.835 450.039 111.799 449.972 111.789 449.9C111.784 449.861 111.786 449.82 111.796 449.782C111.806 449.743 111.824 449.707 111.848 449.675C111.872 449.644 111.902 449.617 111.937 449.597C111.971 449.578 112.01 449.565 112.049 449.56L154.569 444.09C154.648 444.084 154.726 444.107 154.789 444.155C154.852 444.203 154.895 444.272 154.909 444.35C154.915 444.39 154.912 444.431 154.901 444.47C154.891 444.509 154.872 444.546 154.847 444.578C154.822 444.61 154.79 444.636 154.755 444.655C154.719 444.674 154.68 444.686 154.639 444.69L112.129 450.16H112.089Z" fill="#407BFF"/>
<path d="M109.72 447.32C109.64 447.32 109.564 447.288 109.508 447.232C109.452 447.176 109.42 447.1 109.42 447.02C109.42 446.94 109.452 446.864 109.508 446.808C109.564 446.752 109.64 446.72 109.72 446.72L152.24 441.25C152.279 441.245 152.319 441.247 152.358 441.258C152.396 441.268 152.432 441.285 152.464 441.31C152.495 441.334 152.522 441.364 152.542 441.398C152.562 441.433 152.575 441.471 152.58 441.51C152.585 441.549 152.583 441.589 152.572 441.628C152.562 441.666 152.544 441.702 152.52 441.734C152.496 441.765 152.466 441.792 152.432 441.812C152.397 441.832 152.359 441.845 152.32 441.85L109.8 447.32H109.72Z" fill="#407BFF"/>
<path d="M107.359 444.48C107.285 444.48 107.213 444.453 107.157 444.403C107.102 444.353 107.067 444.284 107.059 444.21C107.051 444.131 107.073 444.051 107.121 443.988C107.17 443.925 107.241 443.882 107.319 443.87L149.839 438.4C149.92 438.394 149.999 438.418 150.062 438.468C150.125 438.519 150.167 438.59 150.179 438.67C150.184 438.709 150.18 438.749 150.169 438.787C150.157 438.825 150.138 438.861 150.113 438.891C150.088 438.922 150.057 438.947 150.022 438.966C149.987 438.985 149.949 438.996 149.909 439L107.399 444.48H107.359Z" fill="#407BFF"/>
<path d="M104.999 441.63C104.92 441.63 104.843 441.598 104.787 441.542C104.731 441.486 104.699 441.41 104.699 441.33C104.699 441.25 104.731 441.174 104.787 441.118C104.843 441.062 104.92 441.03 104.999 441.03L147.519 435.56C147.598 435.551 147.678 435.573 147.741 435.622C147.805 435.67 147.847 435.741 147.859 435.82C147.865 435.859 147.863 435.9 147.852 435.938C147.842 435.977 147.825 436.013 147.801 436.045C147.776 436.076 147.746 436.103 147.711 436.123C147.677 436.142 147.639 436.155 147.599 436.16L104.999 441.63Z" fill="#407BFF"/>
<g opacity="0.7">
<path opacity="0.7" d="M126.279 467.22C126.2 467.22 126.124 467.188 126.067 467.132C126.011 467.076 125.979 467 125.979 466.92C125.979 466.84 126.011 466.764 126.067 466.708C126.124 466.652 126.2 466.62 126.279 466.62L168.799 461.15C168.878 461.144 168.957 461.167 169.019 461.215C169.082 461.263 169.125 461.332 169.139 461.41C169.145 461.45 169.142 461.491 169.132 461.53C169.121 461.569 169.103 461.606 169.077 461.638C169.052 461.67 169.021 461.696 168.985 461.715C168.949 461.734 168.91 461.746 168.869 461.75L126.359 467.22H126.279Z" fill="white"/>
<path opacity="0.7" d="M123.909 464.38C123.83 464.38 123.754 464.348 123.697 464.292C123.641 464.236 123.609 464.16 123.609 464.08C123.609 464 123.641 463.924 123.697 463.868C123.754 463.812 123.83 463.78 123.909 463.78L166.429 458.31C166.509 458.299 166.589 458.321 166.653 458.37C166.717 458.418 166.759 458.49 166.769 458.57C166.78 458.65 166.759 458.73 166.71 458.794C166.661 458.858 166.589 458.899 166.509 458.91L123.999 464.38H123.909Z" fill="white"/>
<path opacity="0.7" d="M121.549 461.54C121.474 461.54 121.402 461.513 121.347 461.463C121.291 461.413 121.256 461.344 121.249 461.27C121.24 461.191 121.262 461.111 121.311 461.048C121.359 460.985 121.43 460.942 121.509 460.93L163.999 455.46C164.079 455.456 164.157 455.482 164.22 455.531C164.282 455.581 164.324 455.651 164.339 455.73C164.343 455.769 164.339 455.809 164.328 455.847C164.317 455.885 164.298 455.921 164.273 455.951C164.248 455.982 164.217 456.007 164.182 456.026C164.147 456.045 164.108 456.056 164.069 456.06L121.559 461.54H121.549Z" fill="white"/>
<path opacity="0.7" d="M119.179 458.69C119.099 458.69 119.023 458.658 118.967 458.602C118.911 458.546 118.879 458.47 118.879 458.39C118.879 458.31 118.911 458.234 118.967 458.178C119.023 458.122 119.099 458.09 119.179 458.09L161.699 452.62C161.778 452.611 161.858 452.633 161.921 452.682C161.984 452.73 162.027 452.801 162.039 452.88C162.045 452.919 162.042 452.96 162.032 452.998C162.022 453.037 162.004 453.073 161.98 453.105C161.956 453.136 161.926 453.163 161.891 453.183C161.857 453.202 161.818 453.215 161.779 453.22L119.259 458.69H119.179Z" fill="white"/>
<path opacity="0.7" d="M116.82 455.85C116.747 455.851 116.676 455.825 116.62 455.777C116.565 455.729 116.529 455.662 116.52 455.59C116.514 455.551 116.516 455.51 116.526 455.472C116.536 455.433 116.554 455.397 116.578 455.365C116.603 455.334 116.633 455.307 116.667 455.287C116.702 455.268 116.74 455.255 116.78 455.25L159.3 449.78C159.379 449.771 159.458 449.793 159.522 449.842C159.585 449.89 159.627 449.961 159.64 450.04C159.645 450.08 159.643 450.121 159.632 450.16C159.621 450.199 159.603 450.236 159.577 450.268C159.552 450.3 159.521 450.326 159.485 450.345C159.449 450.364 159.41 450.376 159.37 450.38L116.86 455.85H116.82Z" fill="white"/>
<path opacity="0.7" d="M114.449 453C114.375 453 114.303 452.973 114.247 452.923C114.192 452.873 114.157 452.804 114.149 452.73C114.143 452.651 114.166 452.573 114.214 452.51C114.262 452.447 114.332 452.405 114.409 452.39L156.929 446.92C157.01 446.911 157.091 446.935 157.155 446.985C157.218 447.036 157.259 447.109 157.269 447.19C157.278 447.268 157.255 447.346 157.207 447.408C157.158 447.47 157.087 447.51 157.009 447.52L114.489 453H114.449Z" fill="white"/>
<path opacity="0.7" d="M112.089 450.16C112.016 450.161 111.945 450.135 111.89 450.087C111.835 450.039 111.799 449.972 111.789 449.9C111.784 449.861 111.786 449.82 111.796 449.782C111.806 449.743 111.824 449.707 111.848 449.675C111.872 449.644 111.902 449.617 111.937 449.597C111.971 449.578 112.01 449.565 112.049 449.56L154.569 444.09C154.648 444.084 154.726 444.107 154.789 444.155C154.852 444.203 154.895 444.272 154.909 444.35C154.915 444.39 154.912 444.431 154.901 444.47C154.891 444.509 154.872 444.546 154.847 444.578C154.822 444.61 154.79 444.636 154.755 444.655C154.719 444.674 154.68 444.686 154.639 444.69L112.129 450.16H112.089Z" fill="white"/>
<path opacity="0.7" d="M109.719 447.32C109.639 447.32 109.563 447.288 109.507 447.232C109.451 447.176 109.419 447.1 109.419 447.02C109.419 446.94 109.451 446.864 109.507 446.808C109.563 446.752 109.639 446.72 109.719 446.72L152.239 441.25C152.278 441.245 152.318 441.247 152.357 441.258C152.395 441.268 152.431 441.285 152.463 441.31C152.494 441.334 152.521 441.364 152.541 441.398C152.561 441.433 152.574 441.471 152.579 441.51C152.584 441.549 152.582 441.589 152.571 441.628C152.561 441.666 152.544 441.702 152.519 441.734C152.495 441.765 152.465 441.792 152.431 441.812C152.396 441.832 152.358 441.845 152.319 441.85L109.799 447.32H109.719Z" fill="white"/>
<path opacity="0.7" d="M107.359 444.48C107.285 444.48 107.213 444.453 107.157 444.403C107.102 444.353 107.067 444.284 107.059 444.21C107.051 444.131 107.073 444.051 107.121 443.988C107.17 443.925 107.241 443.882 107.319 443.87L149.839 438.4C149.92 438.394 149.999 438.418 150.062 438.468C150.125 438.519 150.167 438.59 150.179 438.67C150.184 438.709 150.18 438.749 150.169 438.787C150.157 438.825 150.138 438.861 150.113 438.891C150.088 438.922 150.057 438.947 150.022 438.966C149.987 438.985 149.949 438.996 149.909 439L107.399 444.48H107.359Z" fill="white"/>
<path opacity="0.7" d="M104.999 441.63C104.92 441.63 104.843 441.598 104.787 441.542C104.731 441.486 104.699 441.41 104.699 441.33C104.699 441.25 104.731 441.174 104.787 441.118C104.843 441.062 104.92 441.03 104.999 441.03L147.519 435.56C147.598 435.551 147.678 435.573 147.741 435.622C147.805 435.67 147.847 435.741 147.859 435.82C147.865 435.859 147.863 435.9 147.852 435.938C147.842 435.977 147.825 436.013 147.801 436.045C147.776 436.076 147.746 436.103 147.711 436.123C147.677 436.142 147.639 436.155 147.599 436.16L104.999 441.63Z" fill="white"/>
</g>
<path d="M150 245.87C150 245.87 158 248.53 160 251.87C162 255.21 167.14 273 167.14 273" stroke="#263238" stroke-width="0.969857" stroke-linecap="round" stroke-linejoin="round"/>
</svg>
