<svg width="24" height="16" viewBox="0 0 24 16" fill="none" xmlns="http://www.w3.org/2000/svg">
<path d="M18.6167 6.5777L17.8964 4.62266V2.08764C17.8964 1.10544 17.0967 0.305664 16.1145 0.305664H14.875C14.5102 0.305664 14.2155 0.60033 14.2155 0.965136C14.2155 1.32994 14.5102 1.62461 14.875 1.62461H16.1145C16.3717 1.62461 16.5775 1.83508 16.5775 2.08764V4.05203H9.74426V3.48142H10.6844C11.0492 3.48142 11.3438 3.18676 11.3438 2.82195C11.3438 2.45714 11.0492 2.16248 10.6844 2.16248H7.48052C7.11571 2.16248 6.82105 2.45714 6.82105 2.82195C6.82105 3.18676 7.11571 3.48142 7.48052 3.48142H8.42529V4.5104L6.76024 6.9798C3.91177 5.52989 0.310399 7.43816 0.240234 10.9741C0.240234 13.4483 2.25139 15.4594 4.72548 15.4594C6.9097 15.4594 8.72915 13.8925 9.13122 11.8252H10.7776C10.9506 11.8252 11.119 11.755 11.2453 11.6334L16.97 5.90871L17.3769 7.02655C15.9785 7.78892 15.0243 9.27156 15.0243 10.9739C15.0243 13.4481 17.0355 15.4592 19.5144 15.4592C21.9886 15.4592 24.0324 13.448 23.9996 10.9739C23.9622 7.90587 21.17 6.04424 18.6164 6.57754L18.6167 6.5777ZM4.72562 14.1406C2.98105 14.1406 1.55913 12.7188 1.55913 10.9741C1.55913 8.91149 3.62175 7.1201 6.01181 8.08372L4.17839 10.8012C4.04275 11.0023 4.02872 11.2642 4.14097 11.4794C4.25322 11.6945 4.47771 11.8302 4.72561 11.8302H7.775C7.40084 13.1631 6.1801 14.1406 4.72561 14.1406L4.72562 14.1406ZM5.96974 10.5064L7.08288 8.86008C7.48979 9.31375 7.76575 9.87969 7.85929 10.5064H5.96974ZM10.5065 10.5064H9.19219C9.07994 9.42601 8.57949 8.45784 7.83582 7.74224L9.44007 5.36626H15.6466L10.5065 10.5064ZM19.51 14.1406C17.7654 14.1406 16.3435 12.7188 16.3435 10.9741C16.3435 9.84224 16.9422 8.85069 17.8355 8.28943L18.8926 11.1985C19.0001 11.4885 19.3369 11.7317 19.7391 11.5914C20.0806 11.4651 20.2583 11.0862 20.132 10.7448L19.075 7.83573C20.9972 7.55979 22.6811 9.07984 22.6811 10.9694C22.6811 12.7233 21.2593 14.1405 19.5101 14.1405L19.51 14.1406Z" fill="#C6C8C9" stroke="#C6C8C9" stroke-width="0.296997"/>
</svg>
