<svg width="24" height="16" viewBox="0 0 24 16" fill="none" xmlns="http://www.w3.org/2000/svg">
<path fill-rule="evenodd" clip-rule="evenodd" d="M3.11675 0.801556C2.85008 0.829682 2.6157 0.989057 2.49173 1.22658L0.0916925 5.75998V5.75894C0.0312756 5.87456 -0.0010182 6.00373 2.44794e-05 6.13499V12.0007C2.44794e-05 12.4424 0.358377 12.8007 0.800037 12.8007H1.91672C2.16881 14.1612 3.3709 15.2008 4.79996 15.2008C6.22903 15.2008 7.43126 14.1612 7.68321 12.8007H10.6667L13.3333 12.8006H16.0501C16.3022 14.161 17.5043 15.2006 18.9334 15.2006C20.3624 15.2006 21.5647 14.161 21.8166 12.8006H23.2C23.6416 12.8006 24 12.4422 24 12.0006V7.73489C24.0021 7.38385 23.775 7.07342 23.4416 6.96821L17.8082 5.17651L14.4914 1.09325C14.3382 0.906785 14.108 0.799482 13.8663 0.801562H3.19951C3.17139 0.800521 3.1443 0.800521 3.11618 0.801562L3.11675 0.801556ZM7.52507 11.2007H10.6667L13.3333 11.2006H16.2083C16.6396 10.1141 17.7 9.33388 18.9334 9.33388C20.1668 9.33388 21.2273 10.1141 21.6585 11.2006H22.4002V8.31733L17.2252 6.6673H1.59986V11.2007H2.07486C2.50617 10.1142 3.56656 9.33401 4.79996 9.33401C6.03337 9.33401 7.09381 10.1142 7.52507 11.2007ZM8.26696 2.40158H3.68343L2.27514 5.06829H8.26696V2.40158ZM13.4836 2.40158H9.86699L9.86672 5.06829H15.6503L13.4836 2.40158ZM6.1336 12.2673C6.1336 11.5215 5.54609 10.934 4.80024 10.934C4.05439 10.934 3.46689 11.5215 3.46689 12.2673C3.46689 13.0132 4.05439 13.6007 4.80024 13.6007C5.54609 13.6007 6.1336 13.0132 6.1336 12.2673ZM20.2671 12.2673C20.2671 11.5215 19.6796 10.934 18.9338 10.934C18.1879 10.934 17.6004 11.5215 17.6004 12.2673C17.6004 13.0132 18.1879 13.6007 18.9338 13.6007C19.6796 13.6007 20.2671 13.0132 20.2671 12.2673Z" fill="#C6C8C9"/>
<path fill-rule="evenodd" clip-rule="evenodd" d="M4.98371 7.20165C4.77121 7.21207 4.57224 7.30686 4.43058 7.4652C4.28787 7.62249 4.21391 7.83083 4.22537 8.04334C4.24829 8.485 4.62538 8.8246 5.06704 8.80063H6.40039C6.61498 8.80376 6.82123 8.72146 6.97331 8.57042C7.12539 8.42042 7.21185 8.21521 7.21185 8.00166C7.21185 7.78708 7.12539 7.58187 6.97331 7.43187C6.82122 7.28082 6.61496 7.19853 6.40039 7.20166H5.06704C5.03891 7.19957 5.01184 7.19957 4.98371 7.20165ZM11.6505 7.20165C11.438 7.21207 11.239 7.30686 11.0974 7.4652C10.9546 7.62249 10.8807 7.83083 10.8921 8.04334C10.9151 8.485 11.2921 8.8246 11.7338 8.80063H13.0672C13.2817 8.80376 13.488 8.72146 13.6401 8.57042C13.7922 8.42042 13.8786 8.21521 13.8786 8.00166C13.8786 7.78708 13.7922 7.58187 13.6401 7.43187C13.488 7.28082 13.2817 7.19853 13.0672 7.20166H11.7338C11.7057 7.19957 11.6786 7.19957 11.6505 7.20165Z" fill="#C6C8C9"/>
<path d="M2.44794e-05 6.13499C-0.0010182 6.00373 0.0312756 5.87456 0.0916925 5.75894V5.75998L2.49173 1.22658C2.6157 0.989057 2.85008 0.829682 3.11675 0.801556L3.11618 0.801562C3.1443 0.800521 3.17139 0.800521 3.19951 0.801562H13.8663C14.108 0.799482 14.3382 0.906785 14.4914 1.09325L17.8082 5.17651L23.4416 6.96822C23.775 7.07342 24.0021 7.38385 24 7.73489M2.44794e-05 6.13499V12.0018V12.0007M2.44794e-05 6.13499V12.0007M2.44794e-05 12.0007C2.44794e-05 12.4424 0.358377 12.8007 0.800037 12.8007H1.91672C2.16881 14.1612 3.3709 15.2008 4.79996 15.2008C6.22903 15.2008 7.43126 14.1612 7.68321 12.8007H10.6667L13.3333 12.8006H16.0501C16.3022 14.161 17.5043 15.2006 18.9334 15.2006C20.3624 15.2006 21.5647 14.161 21.8166 12.8006H23.2C23.6416 12.8006 24 12.4422 24 12.0006M24 12.0006V7.73385V7.73489M24 12.0006V7.73489M10.6667 11.2007H7.52507C7.09381 10.1142 6.03337 9.33401 4.79996 9.33401C3.56656 9.33401 2.50617 10.1142 2.07486 11.2007H1.59986V6.6673H17.2252L22.4002 8.31733V11.2006H21.6585C21.2273 10.1141 20.1668 9.33388 18.9334 9.33388C17.7 9.33388 16.6396 10.1141 16.2083 11.2006H13.3333L10.6667 11.2007ZM3.68343 2.40158H8.26696V5.06829H2.27514L3.68343 2.40158ZM9.86699 2.40158H13.4836L15.6503 5.06829H9.86672L9.86699 2.40158ZM4.98371 7.20165C4.77121 7.21207 4.57224 7.30686 4.43058 7.4652C4.28787 7.62249 4.21391 7.83083 4.22537 8.04334C4.24829 8.485 4.62538 8.8246 5.06704 8.80063H6.40039C6.61498 8.80376 6.82123 8.72146 6.97331 8.57042C7.12539 8.42042 7.21185 8.21521 7.21185 8.00166C7.21185 7.78708 7.12539 7.58187 6.97331 7.43187C6.82122 7.28082 6.61496 7.19853 6.40039 7.20166H5.06704C5.03891 7.19957 5.01184 7.19957 4.98371 7.20165ZM11.6505 7.20165C11.438 7.21207 11.239 7.30686 11.0974 7.4652C10.9546 7.62249 10.8807 7.83083 10.8921 8.04334C10.9151 8.485 11.2921 8.8246 11.7338 8.80063H13.0672C13.2817 8.80376 13.488 8.72146 13.6401 8.57042C13.7922 8.42042 13.8786 8.21521 13.8786 8.00166C13.8786 7.78708 13.7922 7.58187 13.6401 7.43187C13.488 7.28082 13.2817 7.19853 13.0672 7.20166H11.7338C11.7057 7.19957 11.6786 7.19957 11.6505 7.20165ZM4.80024 10.934C5.54609 10.934 6.1336 11.5215 6.1336 12.2673C6.1336 13.0132 5.54609 13.6007 4.80024 13.6007C4.05439 13.6007 3.46689 13.0132 3.46689 12.2673C3.46689 11.5215 4.05439 10.934 4.80024 10.934ZM18.9338 10.934C19.6796 10.934 20.2671 11.5215 20.2671 12.2673C20.2671 13.0132 19.6796 13.6007 18.9338 13.6007C18.1879 13.6007 17.6004 13.0132 17.6004 12.2673C17.6004 11.5215 18.1879 10.934 18.9338 10.934Z" stroke="#C6C8C9" stroke-width="0.266671"/>
</svg>
