<svg width="24" height="16" viewBox="0 0 24 16" fill="none" xmlns="http://www.w3.org/2000/svg">
<path fill-rule="evenodd" clip-rule="evenodd" d="M22.588 12.0582C22.588 10.4991 21.3242 9.23528 19.7641 9.23528C18.205 9.23528 16.9412 10.499 16.9412 12.0582C16.9412 13.6182 18.205 14.882 19.7641 14.882C21.3241 14.882 22.588 13.6183 22.588 12.0582ZM18.3524 12.0582C18.3524 11.2791 18.9852 10.6472 19.7643 10.6472C20.5443 10.6472 21.1762 11.2791 21.1762 12.0582C21.1762 12.8382 20.5443 13.47 19.7643 13.47C18.9852 13.47 18.3524 12.8382 18.3524 12.0582Z" fill="#C6C8C9"/>
<path fill-rule="evenodd" clip-rule="evenodd" d="M7.05823 12.0582C7.05823 10.4991 5.79448 9.23528 4.23534 9.23528C2.67534 9.23528 1.41151 10.499 1.41151 12.0582C1.41151 13.6182 2.67525 14.882 4.23534 14.882C5.79441 14.882 7.05823 13.6183 7.05823 12.0582ZM2.82342 12.0582C2.82342 11.2791 3.4553 10.6472 4.2353 10.6472C5.01436 10.6472 5.64717 11.2791 5.64717 12.0582C5.64717 12.8382 5.01436 13.47 4.2353 13.47C3.4553 13.47 2.82342 12.8382 2.82342 12.0582Z" fill="#C6C8C9"/>
<path fill-rule="evenodd" clip-rule="evenodd" d="M6.35239 11.7056C5.96332 11.7056 5.64739 12.0215 5.64739 12.4115C5.64739 12.8015 5.96332 13.1175 6.35239 13.1175L17.6473 13.1175C18.0363 13.1175 18.3523 12.8015 18.3523 12.4115C18.3523 12.0215 18.0363 11.7056 17.6473 11.7056L6.35239 11.7056Z" fill="#C6C8C9"/>
<path fill-rule="evenodd" clip-rule="evenodd" d="M15.1762 1.11752C16.1775 1.11752 17.399 1.72878 18.0001 2.52939L20.2566 5.53779L22.5432 7.14186C23.37 7.72124 24 8.93154 24 9.94122V12.4115C24 12.8015 23.6841 13.1175 23.2941 13.1175H21.8391C21.4491 13.1175 21.1332 12.8015 21.1332 12.4115C21.1332 12.0215 21.4491 11.7056 21.8391 11.7056H22.5882V9.94122C22.5882 9.39183 22.1832 8.61277 21.7341 8.29871L19.3604 6.63651C19.2985 6.59433 19.245 6.54183 19.2 6.48183L16.8704 3.37599C16.5366 2.93067 15.7332 2.52943 15.1763 2.52943L2.36438 2.52943L1.41187 8.58559L1.41187 11.7056H2.11781C2.50781 11.7056 2.82374 12.0215 2.82374 12.4115C2.82374 12.8015 2.50781 13.1175 2.11781 13.1175H0.705936C0.315936 13.1175 0 12.8015 0 12.4115L0 8.52929C0 8.49179 0.00281262 8.45523 0.0084375 8.41866L0.940309 2.51898C0.606565 2.46274 0.3525 2.17211 0.3525 1.82337C0.3525 1.43337 0.669374 1.11743 1.05844 1.11743L15.1762 1.11752Z" fill="#C6C8C9"/>
<path fill-rule="evenodd" clip-rule="evenodd" d="M14.8227 6.05816C14.3952 6.05816 13.9714 5.69161 13.9114 5.26878L13.4043 1.72326C13.3499 1.33794 12.9917 1.06981 12.6055 1.12419C12.2202 1.17951 11.9521 1.53764 12.0074 1.92294L12.5136 5.46846C12.673 6.58691 13.693 7.47001 14.8227 7.47001L20.4701 7.47001C20.8601 7.47001 21.1761 7.15407 21.1761 6.76407C21.1761 6.37501 20.8601 6.05814 20.4701 6.05814L14.8227 6.05816Z" fill="#C6C8C9"/>
<path fill-rule="evenodd" clip-rule="evenodd" d="M22.588 12.0582C22.588 10.4991 21.3242 9.23528 19.7641 9.23528C18.205 9.23528 16.9412 10.499 16.9412 12.0582C16.9412 13.6182 18.205 14.882 19.7641 14.882C21.3241 14.882 22.588 13.6183 22.588 12.0582ZM18.3524 12.0582C18.3524 11.2791 18.9852 10.6472 19.7643 10.6472C20.5443 10.6472 21.1762 11.2791 21.1762 12.0582C21.1762 12.8382 20.5443 13.47 19.7643 13.47C18.9852 13.47 18.3524 12.8382 18.3524 12.0582Z" stroke="#C6C8C9" stroke-width="0.288"/>
<path fill-rule="evenodd" clip-rule="evenodd" d="M7.05823 12.0582C7.05823 10.4991 5.79448 9.23528 4.23534 9.23528C2.67534 9.23528 1.41151 10.499 1.41151 12.0582C1.41151 13.6182 2.67525 14.882 4.23534 14.882C5.79441 14.882 7.05823 13.6183 7.05823 12.0582ZM2.82342 12.0582C2.82342 11.2791 3.4553 10.6472 4.2353 10.6472C5.01436 10.6472 5.64717 11.2791 5.64717 12.0582C5.64717 12.8382 5.01436 13.47 4.2353 13.47C3.4553 13.47 2.82342 12.8382 2.82342 12.0582Z" stroke="#C6C8C9" stroke-width="0.288"/>
<path fill-rule="evenodd" clip-rule="evenodd" d="M6.35239 11.7056C5.96332 11.7056 5.64739 12.0215 5.64739 12.4115C5.64739 12.8015 5.96332 13.1175 6.35239 13.1175L17.6473 13.1175C18.0363 13.1175 18.3523 12.8015 18.3523 12.4115C18.3523 12.0215 18.0363 11.7056 17.6473 11.7056L6.35239 11.7056Z" stroke="#C6C8C9" stroke-width="0.288"/>
<path fill-rule="evenodd" clip-rule="evenodd" d="M15.1762 1.11752C16.1775 1.11752 17.399 1.72878 18.0001 2.52939L20.2566 5.53779L22.5432 7.14186C23.37 7.72124 24 8.93154 24 9.94122V12.4115C24 12.8015 23.6841 13.1175 23.2941 13.1175H21.8391C21.4491 13.1175 21.1332 12.8015 21.1332 12.4115C21.1332 12.0215 21.4491 11.7056 21.8391 11.7056H22.5882V9.94122C22.5882 9.39183 22.1832 8.61277 21.7341 8.29871L19.3604 6.63651C19.2985 6.59433 19.245 6.54183 19.2 6.48183L16.8704 3.37599C16.5366 2.93067 15.7332 2.52943 15.1763 2.52943L2.36438 2.52943L1.41187 8.58559L1.41187 11.7056H2.11781C2.50781 11.7056 2.82374 12.0215 2.82374 12.4115C2.82374 12.8015 2.50781 13.1175 2.11781 13.1175H0.705936C0.315936 13.1175 0 12.8015 0 12.4115L0 8.52929C0 8.49179 0.00281262 8.45523 0.0084375 8.41866L0.940309 2.51898C0.606565 2.46274 0.3525 2.17211 0.3525 1.82337C0.3525 1.43337 0.669374 1.11743 1.05844 1.11743L15.1762 1.11752Z" stroke="#C6C8C9" stroke-width="0.288"/>
<path fill-rule="evenodd" clip-rule="evenodd" d="M14.8227 6.05816C14.3952 6.05816 13.9714 5.69161 13.9114 5.26878L13.4043 1.72326C13.3499 1.33794 12.9917 1.06981 12.6055 1.12419C12.2202 1.17951 11.9521 1.53764 12.0074 1.92294L12.5136 5.46846C12.673 6.58691 13.693 7.47001 14.8227 7.47001L20.4701 7.47001C20.8601 7.47001 21.1761 7.15407 21.1761 6.76407C21.1761 6.37501 20.8601 6.05814 20.4701 6.05814L14.8227 6.05816Z" stroke="#C6C8C9" stroke-width="0.288"/>
</svg>
