<svg width="5" height="10" viewBox="0 0 5 10" xmlns="http://www.w3.org/2000/svg">
<path d="M4.29046 9.99871C4.45596 9.99904 4.61634 9.94104 4.74377 9.83479C4.81549 9.77496 4.87477 9.70148 4.91823 9.61856C4.96168 9.53563 4.98846 9.4449 4.99701 9.35155C5.00556 9.25821 4.99573 9.16408 4.96807 9.07456C4.94042 8.98504 4.89549 8.90189 4.83585 8.82987L1.6627 5.00977L4.72252 1.18255C4.78135 1.10965 4.82529 1.02576 4.8518 0.935721C4.87832 0.845678 4.88688 0.751251 4.87701 0.657866C4.86714 0.564481 4.83902 0.473981 4.79427 0.391566C4.74953 0.309151 4.68904 0.236447 4.61628 0.177633C4.54299 0.112751 4.45717 0.0638109 4.3642 0.0338851C4.27123 0.00395926 4.17311 -0.00630633 4.07601 0.00373205C3.97891 0.0137704 3.88492 0.0438963 3.79993 0.092219C3.71495 0.140542 3.64081 0.206018 3.58217 0.284539L0.161127 4.56077C0.0569506 4.6883 0 4.84826 0 5.01334C0 5.17842 0.0569506 5.33838 0.161127 5.46591L3.70258 9.74214C3.77364 9.82839 3.8639 9.89657 3.96604 9.94114C4.06818 9.98572 4.17933 10.0054 4.29046 9.99871Z"/>
</svg>
