<svg width="784" height="700" viewBox="0 0 784 700" fill="none" xmlns="http://www.w3.org/2000/svg">
<g filter="url(#filter0_b)">
<rect x="292" y="-3.77734" width="398" height="707.556" fill="url(#paint0_radial)"/>
</g>
<g opacity="0.4" filter="url(#filter1_f)">
<path fill-rule="evenodd" clip-rule="evenodd" d="M779.034 247.16C750.001 274.183 675.709 281.191 615.453 282.986C556.497 284.741 484.797 280.94 448.908 256.989C410.193 231.152 475.606 185.684 433.246 161.384C384.01 133.14 260.611 161.431 224.685 128.366C195.495 101.501 289.441 77.9408 311.532 49.3636C334.601 19.5229 296.627 -32.9817 356.687 -42.3891C428.997 -53.7155 477.871 7.87889 553.17 11.5146C605.155 14.0247 635.867 -26.4879 688.083 -26.388C741.311 -26.2862 785.668 -5.79792 825.839 12.0363C872.895 32.927 955.109 54.6307 940.224 85.5517C922.599 122.162 793.821 114.555 760.314 148.149C730.335 178.206 810.806 217.587 779.034 247.16Z" fill="white"/>
<path fill-rule="evenodd" clip-rule="evenodd" d="M241.46 716.609C181.877 721.531 125.376 695.919 85.5581 672.754C46.5983 650.088 8.38319 618.874 23.3055 589.693C39.4028 558.215 149.838 556.605 161.319 524.603C174.663 487.408 55.1031 455.103 84.0765 420.304C107.617 392.03 201.762 415.381 259.477 406.708C319.743 397.652 377.478 350.076 428.934 368.481C490.884 390.641 425.813 448.195 466.496 480.758C494.582 503.238 576.028 490.698 607.979 511.79C640.548 533.29 636.181 563.752 633.338 590.896C630.009 622.693 647.04 669.149 590.137 682.166C522.763 697.577 455.332 641.034 382.852 648.194C318.002 654.6 306.664 711.223 241.46 716.609Z" fill="white"/>
</g>
<path d="M407.745 358.834H398.821L396.291 340.296L387.781 358.88H385.159L376.603 340.296L374.119 358.834H365.149L370.025 326.634H378.857L386.447 344.16L394.083 326.634H402.961L407.745 358.834ZM433.525 358.834L431.731 353.59H420.323L418.529 358.834H409.053L421.703 326.634H430.351L443.277 358.834H433.525ZM429.569 346.644L426.027 336.662L422.485 346.644H429.569ZM459.429 326.634C464.305 326.634 468.292 328.137 471.389 331.142C474.487 334.147 476.035 338.011 476.035 342.734C476.035 347.426 474.471 351.29 471.343 354.326C468.246 357.331 464.275 358.834 459.429 358.834H446.411V326.634H459.429ZM459.015 350.692C461.377 350.692 463.293 349.956 464.765 348.484C466.237 347.012 466.973 345.08 466.973 342.688C466.973 340.327 466.237 338.425 464.765 336.984C463.324 335.512 461.407 334.776 459.015 334.776H455.289V350.692H459.015ZM497.983 358.834L492.739 348.99H489.565V358.834H480.687V326.634H494.625C496.925 326.634 498.979 327.109 500.789 328.06C502.598 329.011 504.009 330.36 505.021 332.108C506.063 333.856 506.585 335.834 506.585 338.042C506.585 339.33 506.385 340.557 505.987 341.722C505.588 342.857 505.005 343.884 504.239 344.804C503.472 345.724 502.552 346.491 501.479 347.104L507.873 358.834H497.983ZM489.565 334.5V341.492H493.613C494.809 341.492 495.759 341.17 496.465 340.526C497.17 339.882 497.523 339.039 497.523 337.996C497.523 337.321 497.369 336.723 497.063 336.202C496.756 335.681 496.296 335.267 495.683 334.96C495.1 334.653 494.41 334.5 493.613 334.5H489.565ZM511.773 358.834V326.634H520.743V358.834H511.773ZM542.411 359.662C537.535 359.662 533.456 358.052 530.175 354.832C526.924 351.612 525.299 347.595 525.299 342.78C525.299 337.935 526.924 333.902 530.175 330.682C533.456 327.431 537.535 325.806 542.411 325.806C546.643 325.806 550.246 327.079 553.221 329.624C556.226 332.169 558.051 335.481 558.695 339.56H549.725C549.357 338.456 548.82 337.505 548.115 336.708C547.41 335.88 546.566 335.236 545.585 334.776C544.604 334.316 543.561 334.086 542.457 334.086C540.157 334.086 538.256 334.914 536.753 336.57C535.281 338.195 534.545 340.265 534.545 342.78C534.545 344.405 534.882 345.877 535.557 347.196C536.232 348.484 537.167 349.496 538.363 350.232C539.59 350.968 540.954 351.336 542.457 351.336C543.622 351.336 544.696 351.091 545.677 350.6C546.689 350.109 547.532 349.419 548.207 348.53C548.912 347.641 549.418 346.613 549.725 345.448H558.787C558.174 349.68 556.364 353.115 553.359 355.752C550.354 358.359 546.704 359.662 542.411 359.662ZM581.657 326.634H590.627V358.834H581.657V346.46H571.997V358.834H563.073V326.634H571.997V338.272H581.657V326.634Z" fill="white"/>
<defs>
<filter id="filter0_b" x="228" y="-67.7773" width="526" height="835.556" filterUnits="userSpaceOnUse" color-interpolation-filters="sRGB">
<feFlood flood-opacity="0" result="BackgroundImageFix"/>
<feGaussianBlur in="BackgroundImage" stdDeviation="32"/>
<feComposite in2="SourceAlpha" operator="in" result="effect1_backgroundBlur"/>
<feBlend mode="normal" in="SourceGraphic" in2="effect1_backgroundBlur" result="shape"/>
</filter>
<filter id="filter1_f" x="0" y="-63.7773" width="962" height="801" filterUnits="userSpaceOnUse" color-interpolation-filters="sRGB">
<feFlood flood-opacity="0" result="BackgroundImageFix"/>
<feBlend mode="normal" in="SourceGraphic" in2="BackgroundImageFix" result="shape"/>
<feGaussianBlur stdDeviation="10" result="effect1_foregroundBlur"/>
</filter>
<radialGradient id="paint0_radial" cx="0" cy="0" r="1" gradientUnits="userSpaceOnUse" gradientTransform="translate(491 350) rotate(90) scale(360.411 208.927)">
<stop stop-color="#00FF94" stop-opacity="0.88"/>
<stop offset="1" stop-color="#6DFFC2" stop-opacity="0"/>
</radialGradient>
</defs>
</svg>
