<svg width="18" height="18" viewBox="0 0 18 18" fill="none" xmlns="http://www.w3.org/2000/svg">
<path d="M14.839 2.92309H13.2529V1.88375C13.2529 1.67269 13.0802 1.5 12.8691 1.5C12.658 1.5 12.4853 1.67269 12.4853 1.88375V2.92309H5.5138V1.88375C5.5138 1.67269 5.34111 1.5 5.13004 1.5C4.91898 1.5 4.74629 1.67269 4.74629 1.88375V2.92309H3.1601C2.24229 2.92309 1.48438 3.67781 1.48438 4.59242V14.8355C1.48438 15.7533 2.24229 16.4824 3.1601 16.4824H14.839C15.7569 16.4824 16.5148 15.7533 16.5148 14.8355V4.59242C16.5148 3.67781 15.7569 2.92309 14.839 2.92309ZM3.1601 3.6906H4.74629V4.4741C4.74629 4.68516 4.91898 4.85785 5.13004 4.85785C5.34111 4.85785 5.5138 4.68516 5.5138 4.4741V3.6906H12.4853V4.4741C12.4853 4.68516 12.658 4.85785 12.8691 4.85785C13.0802 4.85785 13.2529 4.68516 13.2529 4.4741V3.6906H14.839C15.3315 3.6906 15.7473 4.09994 15.7473 4.59242V5.67333H2.25188V4.59242C2.25188 4.09994 2.66762 3.6906 3.1601 3.6906ZM14.839 15.7149H3.1601C2.66762 15.7149 2.25188 15.328 2.25188 14.8355V6.44084H15.7473V14.8355C15.7473 15.328 15.3315 15.7149 14.839 15.7149Z" fill="#8D8D8D"/>
</svg>
