<svg width="24" height="24" viewBox="0 0 24 24" fill="none" xmlns="http://www.w3.org/2000/svg">
<g clip-path="url(#clip0)">
<path fill-rule="evenodd" clip-rule="evenodd" d="M3.11675 4.80156C2.85008 4.82968 2.6157 4.98906 2.49173 5.22658L0.0916925 9.75998V9.75894C0.0312756 9.87456 -0.0010182 10.0037 2.44794e-05 10.135V16.0007C2.44794e-05 16.4424 0.358377 16.8007 0.800037 16.8007H1.91672C2.16881 18.1612 3.3709 19.2008 4.79996 19.2008C6.22903 19.2008 7.43126 18.1612 7.68321 16.8007H10.6667L13.3333 16.8006H16.0501C16.3022 18.161 17.5043 19.2006 18.9334 19.2006C20.3624 19.2006 21.5647 18.161 21.8166 16.8006H23.2C23.6416 16.8006 24 16.4422 24 16.0006V11.7349C24.0021 11.3838 23.775 11.0734 23.4416 10.9682L17.8082 9.17651L14.4914 5.09325C14.3382 4.90679 14.108 4.79948 13.8663 4.80156H3.19951C3.17139 4.80052 3.1443 4.80052 3.11618 4.80156L3.11675 4.80156ZM7.52507 15.2007H10.6667L13.3333 15.2006H16.2083C16.6396 14.1141 17.7 13.3339 18.9334 13.3339C20.1668 13.3339 21.2273 14.1141 21.6585 15.2006H22.4002V12.3173L17.2252 10.6673H1.59986V15.2007H2.07486C2.50617 14.1142 3.56656 13.334 4.79996 13.334C6.03337 13.334 7.09381 14.1142 7.52507 15.2007ZM8.26696 6.40158H3.68343L2.27514 9.06829H8.26696V6.40158ZM13.4836 6.40158H9.86699L9.86672 9.06829H15.6503L13.4836 6.40158ZM6.1336 16.2673C6.1336 15.5215 5.54609 14.934 4.80024 14.934C4.05439 14.934 3.46689 15.5215 3.46689 16.2673C3.46689 17.0132 4.05439 17.6007 4.80024 17.6007C5.54609 17.6007 6.1336 17.0132 6.1336 16.2673ZM20.2671 16.2673C20.2671 15.5215 19.6796 14.934 18.9338 14.934C18.1879 14.934 17.6004 15.5215 17.6004 16.2673C17.6004 17.0132 18.1879 17.6007 18.9338 17.6007C19.6796 17.6007 20.2671 17.0132 20.2671 16.2673Z" fill="#C6C8C9"/>
<path fill-rule="evenodd" clip-rule="evenodd" d="M4.98371 11.2017C4.77121 11.2121 4.57224 11.3069 4.43058 11.4652C4.28787 11.6225 4.21391 11.8308 4.22537 12.0433C4.24829 12.485 4.62538 12.8246 5.06704 12.8006H6.40039C6.61498 12.8038 6.82123 12.7215 6.97331 12.5704C7.12539 12.4204 7.21185 12.2152 7.21185 12.0017C7.21185 11.7871 7.12539 11.5819 6.97331 11.4319C6.82122 11.2808 6.61496 11.1985 6.40039 11.2017H5.06704C5.03891 11.1996 5.01184 11.1996 4.98371 11.2017ZM11.6505 11.2017C11.438 11.2121 11.239 11.3069 11.0974 11.4652C10.9546 11.6225 10.8807 11.8308 10.8921 12.0433C10.9151 12.485 11.2921 12.8246 11.7338 12.8006H13.0672C13.2817 12.8038 13.488 12.7215 13.6401 12.5704C13.7922 12.4204 13.8786 12.2152 13.8786 12.0017C13.8786 11.7871 13.7922 11.5819 13.6401 11.4319C13.488 11.2808 13.2817 11.1985 13.0672 11.2017H11.7338C11.7057 11.1996 11.6786 11.1996 11.6505 11.2017Z" fill="#C6C8C9"/>
<path d="M2.44794e-05 10.135C-0.0010182 10.0037 0.0312756 9.87456 0.0916925 9.75894V9.75998L2.49173 5.22658C2.6157 4.98906 2.85008 4.82968 3.11675 4.80156L3.11618 4.80156C3.1443 4.80052 3.17139 4.80052 3.19951 4.80156H13.8663C14.108 4.79948 14.3382 4.90679 14.4914 5.09325L17.8082 9.17651L23.4416 10.9682C23.775 11.0734 24.0021 11.3838 24 11.7349M2.44794e-05 10.135V16.0018V16.0007M2.44794e-05 10.135V16.0007M2.44794e-05 16.0007C2.44794e-05 16.4424 0.358377 16.8007 0.800037 16.8007H1.91672C2.16881 18.1612 3.3709 19.2008 4.79996 19.2008C6.22903 19.2008 7.43126 18.1612 7.68321 16.8007H10.6667L13.3333 16.8006H16.0501C16.3022 18.161 17.5043 19.2006 18.9334 19.2006C20.3624 19.2006 21.5647 18.161 21.8166 16.8006H23.2C23.6416 16.8006 24 16.4422 24 16.0006M24 16.0006V11.7339V11.7349M24 16.0006V11.7349M10.6667 15.2007H7.52507C7.09381 14.1142 6.03337 13.334 4.79996 13.334C3.56656 13.334 2.50617 14.1142 2.07486 15.2007H1.59986V10.6673H17.2252L22.4002 12.3173V15.2006H21.6585C21.2273 14.1141 20.1668 13.3339 18.9334 13.3339C17.7 13.3339 16.6396 14.1141 16.2083 15.2006H13.3333L10.6667 15.2007ZM3.68343 6.40158H8.26696V9.06829H2.27514L3.68343 6.40158ZM9.86699 6.40158H13.4836L15.6503 9.06829H9.86672L9.86699 6.40158ZM4.98371 11.2017C4.77121 11.2121 4.57224 11.3069 4.43058 11.4652C4.28787 11.6225 4.21391 11.8308 4.22537 12.0433C4.24829 12.485 4.62538 12.8246 5.06704 12.8006H6.40039C6.61498 12.8038 6.82123 12.7215 6.97331 12.5704C7.12539 12.4204 7.21185 12.2152 7.21185 12.0017C7.21185 11.7871 7.12539 11.5819 6.97331 11.4319C6.82122 11.2808 6.61496 11.1985 6.40039 11.2017H5.06704C5.03891 11.1996 5.01184 11.1996 4.98371 11.2017ZM11.6505 11.2017C11.438 11.2121 11.239 11.3069 11.0974 11.4652C10.9546 11.6225 10.8807 11.8308 10.8921 12.0433C10.9151 12.485 11.2921 12.8246 11.7338 12.8006H13.0672C13.2817 12.8038 13.488 12.7215 13.6401 12.5704C13.7922 12.4204 13.8786 12.2152 13.8786 12.0017C13.8786 11.7871 13.7922 11.5819 13.6401 11.4319C13.488 11.2808 13.2817 11.1985 13.0672 11.2017H11.7338C11.7057 11.1996 11.6786 11.1996 11.6505 11.2017ZM4.80024 14.934C5.54609 14.934 6.1336 15.5215 6.1336 16.2673C6.1336 17.0132 5.54609 17.6007 4.80024 17.6007C4.05439 17.6007 3.46689 17.0132 3.46689 16.2673C3.46689 15.5215 4.05439 14.934 4.80024 14.934ZM18.9338 14.934C19.6796 14.934 20.2671 15.5215 20.2671 16.2673C20.2671 17.0132 19.6796 17.6007 18.9338 17.6007C18.1879 17.6007 17.6004 17.0132 17.6004 16.2673C17.6004 15.5215 18.1879 14.934 18.9338 14.934Z" stroke="#C6C8C9" stroke-width="0.266671"/>
</g>
<defs>
<clipPath id="clip0">
<rect width="24" height="24" fill="white"/>
</clipPath>
</defs>
</svg>
