<svg width="24" height="24" viewBox="0 0 24 24" fill="none" xmlns="http://www.w3.org/2000/svg">
<path d="M7.90379 19.8408H18.1281C18.6881 19.8408 19.1519 19.377 19.1519 18.817V7.23273C19.1519 6.67273 18.6881 6.20898 18.1281 6.20898H7.90443C7.34443 6.20898 6.88069 6.67273 6.88069 7.23273V18.8164C6.88006 19.377 7.34381 19.8408 7.90381 19.8408L7.90379 19.8408ZM17.792 18.4808H8.24011V7.56895H17.792V18.4808Z" fill="#6DFFC2"/>
<path d="M5.61595 17.4564C5.9997 17.4564 6.30408 17.1527 6.30408 16.7683V5.52016H16.1922C16.576 5.52016 16.8804 5.21641 16.8804 4.83203C16.8797 4.44828 16.5597 4.16016 16.1922 4.16016H5.98408C5.76034 4.16016 5.44034 4.16016 5.18408 4.41641C5.07221 4.52829 4.94408 4.72016 4.94408 5.02454V16.7682C4.94408 17.152 5.24783 17.4563 5.61595 17.4563V17.4564Z" fill="#6DFFC2"/>
</svg>
