<svg width="24" height="24" viewBox="0 0 24 24" fill="none" xmlns="http://www.w3.org/2000/svg">
<g clip-path="url(#clip0)">
<path d="M18.6167 10.5777L17.8964 8.62266V6.08764C17.8964 5.10544 17.0967 4.30566 16.1145 4.30566H14.875C14.5102 4.30566 14.2155 4.60033 14.2155 4.96514C14.2155 5.32994 14.5102 5.62461 14.875 5.62461H16.1145C16.3717 5.62461 16.5775 5.83508 16.5775 6.08764V8.05203H9.74426V7.48142H10.6844C11.0492 7.48142 11.3438 7.18676 11.3438 6.82195C11.3438 6.45714 11.0492 6.16248 10.6844 6.16248H7.48052C7.11571 6.16248 6.82105 6.45714 6.82105 6.82195C6.82105 7.18676 7.11571 7.48142 7.48052 7.48142H8.42529V8.5104L6.76024 10.9798C3.91177 9.52989 0.310399 11.4382 0.240234 14.9741C0.240234 17.4483 2.25139 19.4594 4.72548 19.4594C6.9097 19.4594 8.72915 17.8925 9.13122 15.8252H10.7776C10.9506 15.8252 11.119 15.755 11.2453 15.6334L16.97 9.90871L17.3769 11.0265C15.9785 11.7889 15.0243 13.2716 15.0243 14.9739C15.0243 17.4481 17.0355 19.4592 19.5144 19.4592C21.9886 19.4592 24.0324 17.448 23.9996 14.9739C23.9622 11.9059 21.17 10.0442 18.6164 10.5775L18.6167 10.5777ZM4.72562 18.1406C2.98105 18.1406 1.55913 16.7188 1.55913 14.9741C1.55913 12.9115 3.62175 11.1201 6.01181 12.0837L4.17839 14.8012C4.04275 15.0023 4.02872 15.2642 4.14097 15.4794C4.25322 15.6945 4.47771 15.8302 4.72561 15.8302H7.775C7.40084 17.1631 6.1801 18.1406 4.72561 18.1406L4.72562 18.1406ZM5.96974 14.5064L7.08288 12.8601C7.48979 13.3138 7.76575 13.8797 7.85929 14.5064H5.96974ZM10.5065 14.5064H9.19219C9.07994 13.426 8.57949 12.4578 7.83582 11.7422L9.44007 9.36626H15.6466L10.5065 14.5064ZM19.51 18.1406C17.7654 18.1406 16.3435 16.7188 16.3435 14.9741C16.3435 13.8422 16.9422 12.8507 17.8355 12.2894L18.8926 15.1985C19.0001 15.4885 19.3369 15.7317 19.7391 15.5914C20.0806 15.4651 20.2583 15.0862 20.132 14.7448L19.075 11.8357C20.9972 11.5598 22.6811 13.0798 22.6811 14.9694C22.6811 16.7233 21.2593 18.1405 19.5101 18.1405L19.51 18.1406Z" stroke-width="0.296997"/>
</g>
<defs>
<clipPath id="clip0">
<rect width="24" height="24" fill="white"/>
</clipPath>
</defs>
</svg>
