<svg width="24" height="25" viewBox="0 0 24 25" fill="none" xmlns="http://www.w3.org/2000/svg">
<circle cx="12" cy="13" r="12" fill="#ECECEC"/>
<g clip-path="url(#clip0)">
<path d="M6.7275 11.224C6.67223 11.1691 6.62791 11.1028 6.59716 11.0292C6.56642 10.9556 6.54989 10.8762 6.54856 10.7956C6.54722 10.7151 6.56112 10.635 6.58941 10.5603C6.6177 10.4856 6.65981 10.4177 6.71322 10.3608C6.76664 10.3038 6.83026 10.2589 6.9003 10.2287C6.97034 10.1985 7.04536 10.1837 7.12089 10.1851C7.19642 10.1865 7.2709 10.2042 7.3399 10.237C7.4089 10.2698 7.471 10.3171 7.5225 10.376L11.25 14.352V4.6C11.25 4.44087 11.3093 4.28826 11.4148 4.17574C11.5202 4.06321 11.6633 4 11.8125 4C11.9617 4 12.1048 4.06321 12.2102 4.17574C12.3157 4.28826 12.375 4.44087 12.375 4.6V14.352L16.1025 10.376C16.154 10.3171 16.2161 10.2698 16.2851 10.237C16.3541 10.2042 16.4286 10.1865 16.5041 10.1851C16.5796 10.1837 16.6547 10.1985 16.7247 10.2287C16.7947 10.2589 16.8584 10.3038 16.9118 10.3608C16.9652 10.4177 17.0073 10.4856 17.0356 10.5603C17.0639 10.635 17.0778 10.7151 17.0764 10.7956C17.0751 10.8762 17.0586 10.9556 17.0278 11.0292C16.9971 11.1028 16.9528 11.1691 16.8975 11.224L12.21 16.224C12.1045 16.3364 11.9616 16.3995 11.8125 16.3995C11.6634 16.3995 11.5205 16.3364 11.415 16.224L6.7275 11.224ZM6.5625 18.8C6.41332 18.8 6.27024 18.8632 6.16475 18.9757C6.05926 19.0883 6 19.2409 6 19.4C6 19.5591 6.05926 19.7117 6.16475 19.8243C6.27024 19.9368 6.41332 20 6.5625 20H17.4375C17.5867 20 17.7298 19.9368 17.8352 19.8243C17.9407 19.7117 18 19.5591 18 19.4C18 19.2409 17.9407 19.0883 17.8352 18.9757C17.7298 18.8632 17.5867 18.8 17.4375 18.8H6.5625Z" fill="#121212"/>
</g>
<defs>
<clipPath id="clip0">
<rect width="20" height="20" fill="white"/>
</clipPath>
</defs>
</svg>
