<svg width="24" height="24" viewBox="0 0 24 24" fill="none" xmlns="http://www.w3.org/2000/svg">
<rect width="24" height="24" rx="4" fill="#6DFFC2"/>
<path d="M12.9166 9.57081L7.05373 15.4045L6.57678 17.4095L8.54098 16.8947L14.4079 11.0549L12.9166 9.57081ZM15.528 11.4272L9.18614 17.7377C9.11993 17.8035 9.03747 17.8506 8.94715 17.8741L5.99522 18.6485C5.90733 18.672 5.81486 18.6723 5.72681 18.6494C5.63876 18.6265 5.55815 18.5812 5.49284 18.5179C5.42754 18.4545 5.37977 18.3754 5.35421 18.2881C5.32864 18.2008 5.32615 18.1083 5.34698 18.0198L6.06189 15.0178C6.08424 14.9231 6.13254 14.8364 6.20138 14.7676L12.5432 8.457C12.7494 8.25188 13.0838 8.25188 13.2899 8.457L15.528 10.6836C15.7331 10.8887 15.7331 11.221 15.528 11.4261V11.4272ZM15.9003 6.60066L14.7823 7.71447L16.2737 9.19954L17.3927 8.08574L15.9003 6.60066ZM18.5117 8.457L16.647 10.3134C16.4408 10.5185 16.1065 10.5185 15.9003 10.3134L13.6622 8.08471C13.6133 8.03609 13.5744 7.97825 13.5478 7.91453C13.5213 7.85081 13.5076 7.78247 13.5076 7.71344C13.5076 7.64441 13.5213 7.57607 13.5478 7.51235C13.5744 7.44863 13.6133 7.39079 13.6622 7.34217L15.528 5.48685C15.7331 5.28173 16.0675 5.28173 16.2737 5.48685L18.5117 7.71447C18.5607 7.76309 18.5996 7.82093 18.6261 7.88465C18.6527 7.94837 18.6663 8.01671 18.6663 8.08574C18.6663 8.15476 18.6527 8.2231 18.6261 8.28682C18.5996 8.35055 18.5607 8.40838 18.5117 8.457Z" fill="#121212"/>
</svg>
