<svg width="24" height="24" viewBox="0 0 24 24" fill="none" xmlns="http://www.w3.org/2000/svg">
<path d="M4.27484 1.43998C4.1555 1.45123 4.04468 1.50672 3.96418 1.59555C3.88368 1.68438 3.83933 1.80011 3.83984 1.91998V20.16C3.83894 20.2236 3.85069 20.2867 3.87441 20.3458C3.89813 20.4048 3.93334 20.4585 3.97801 20.5038C4.02267 20.5491 4.07589 20.5851 4.13457 20.6096C4.19325 20.6342 4.25623 20.6468 4.31984 20.6468C4.38345 20.6468 4.44643 20.6342 4.50512 20.6096C4.5638 20.5851 4.61702 20.5491 4.66168 20.5038C4.70634 20.4585 4.74155 20.4048 4.76527 20.3458C4.78899 20.2867 4.80074 20.2236 4.79984 20.16V2.39998H12.9598V6.71998C12.9599 6.84728 13.0104 6.96936 13.1004 7.05938C13.1905 7.14939 13.3125 7.19997 13.4398 7.19998H17.7598V9.11998H7.19984C7.07254 9.11999 6.95046 9.17057 6.86045 9.26058C6.77043 9.3506 6.71986 9.47268 6.71984 9.59998V19.0875C6.71986 19.2148 6.77043 19.3369 6.86045 19.4269C6.95046 19.5169 7.07254 19.5675 7.19984 19.5675H17.7598V21.6H4.31984C4.25624 21.5991 4.19309 21.6108 4.13406 21.6346C4.07504 21.6583 4.02132 21.6935 3.97602 21.7381C3.93072 21.7828 3.89475 21.836 3.8702 21.8947C3.84565 21.9534 3.83301 22.0164 3.83301 22.08C3.83301 22.1436 3.84565 22.2066 3.8702 22.2653C3.89475 22.3239 3.93072 22.3772 3.97602 22.4218C4.02132 22.4665 4.07504 22.5017 4.13406 22.5254C4.19309 22.5491 4.25624 22.5609 4.31984 22.56H18.2398C18.3671 22.56 18.4892 22.5094 18.5792 22.4194C18.6693 22.3294 18.7198 22.2073 18.7198 22.08V19.5675H19.6798C19.8071 19.5675 19.9292 19.5169 20.0192 19.4269C20.1093 19.3369 20.1598 19.2148 20.1598 19.0875V9.59998C20.1598 9.47268 20.1093 9.3506 20.0192 9.26058C19.9292 9.17057 19.8071 9.11999 19.6798 9.11998H18.7198V6.47998C18.7203 6.41587 18.708 6.35232 18.6835 6.29306C18.659 6.23381 18.6229 6.18006 18.5773 6.13498L14.0173 1.57498C13.9269 1.48748 13.8057 1.439 13.6798 1.43998H4.31984C4.30485 1.43928 4.28983 1.43928 4.27484 1.43998ZM13.9198 2.83498L17.3248 6.23998H13.9198V2.83498ZM7.67984 10.08H10.7998V12.24H7.67984V10.08ZM11.7598 10.08H15.1198V12.24H11.7598V10.08ZM16.0798 10.08H19.1998V12.24H16.0798V10.08ZM7.67984 13.2H10.7998V15.36H7.67984V13.2ZM11.7598 13.2H15.1198V15.36H11.7598V13.2ZM16.0798 13.2H19.1998V15.36H16.0798V13.2ZM7.67984 16.32H10.7998V18.6075H7.67984V16.32ZM11.7598 16.32H15.1198V18.6075H11.7598V16.32ZM16.0798 16.32H19.1998V18.6075H16.0798V16.32Z" fill="#00DD81"/>
</svg>
