<svg width="36" height="36" viewBox="0 0 36 36" fill="none" xmlns="http://www.w3.org/2000/svg">
<g clip-path="url(#clip0)">
<path fill-rule="evenodd" clip-rule="evenodd" d="M3.0002 4.79961C2.6696 4.79961 2.4002 5.06901 2.4002 5.39961V34.1996C2.4002 34.5302 2.6696 34.7996 3.0002 34.7996H24.6002C24.9308 34.7996 25.2002 34.5302 25.2002 34.1996V10.448L19.5518 4.79961H3.0002ZM24.6002 35.9996H3.0002C2.0078 35.9996 1.2002 35.192 1.2002 34.1996V5.39961C1.2002 4.40721 2.0078 3.59961 3.0002 3.59961H19.8002C19.9592 3.59961 20.1122 3.66261 20.2244 3.77541L26.2244 9.77541C26.3372 9.88761 26.4002 10.0406 26.4002 10.1996V34.1996C26.4002 35.192 25.5926 35.9996 24.6002 35.9996Z" fill="#8D8D8D"/>
<path fill-rule="evenodd" clip-rule="evenodd" d="M20.4002 9.59972H24.3518L20.4002 5.64812V9.59972ZM25.8002 10.7997H19.8002C19.469 10.7997 19.2002 10.5309 19.2002 10.1997V4.19972C19.2002 3.95732 19.3466 3.73832 19.5704 3.64532C19.7948 3.55232 20.0522 3.60392 20.2244 3.77552L26.2244 9.77552C26.396 9.94712 26.4476 10.2051 26.3546 10.4295C26.2616 10.6533 26.0426 10.7997 25.8002 10.7997Z" fill="#8D8D8D"/>
<path fill-rule="evenodd" clip-rule="evenodd" d="M28.8006 6.00025H32.7522L28.8006 2.04865V6.00025ZM34.2006 7.20024H28.2006C27.8694 7.20024 27.6006 6.93145 27.6006 6.60024V0.600246C27.6006 0.357846 27.747 0.138846 27.9708 0.0458456C28.1952 -0.0471544 28.4526 0.00384564 28.6248 0.176046L34.6248 6.17605C34.7964 6.34765 34.848 6.60565 34.755 6.83005C34.662 7.05385 34.443 7.20024 34.2006 7.20024Z" fill="#8D8D8D"/>
<path fill-rule="evenodd" clip-rule="evenodd" d="M33.0006 32.4H25.8006C25.4694 32.4 25.2006 32.1312 25.2006 31.8C25.2006 31.4688 25.4694 31.2 25.8006 31.2H33.0006C33.3312 31.2 33.6006 30.9306 33.6006 30.6V6.8484L27.9522 1.2H11.4006C11.07 1.2 10.8006 1.4694 10.8006 1.8V4.2C10.8006 4.5312 10.5318 4.8 10.2006 4.8C9.86939 4.8 9.60059 4.5312 9.60059 4.2V1.8C9.60059 0.8076 10.4082 0 11.4006 0H28.2006C28.3596 0 28.5126 0.063 28.6248 0.1758L34.6248 6.1758C34.7376 6.288 34.8006 6.441 34.8006 6.6V30.6C34.8006 31.5924 33.993 32.4 33.0006 32.4Z" fill="#8D8D8D"/>
<path fill-rule="evenodd" clip-rule="evenodd" d="M13.8002 26.3996C13.469 26.3996 13.2002 26.1308 13.2002 25.7996V16.1996C13.2002 15.8684 13.469 15.5996 13.8002 15.5996C14.1314 15.5996 14.4002 15.8684 14.4002 16.1996V25.7996C14.4002 26.1308 14.1314 26.3996 13.8002 26.3996Z" fill="#8D8D8D"/>
<path fill-rule="evenodd" clip-rule="evenodd" d="M18.6004 21.6004H9.00039C8.66919 21.6004 8.40039 21.3316 8.40039 21.0004C8.40039 20.6692 8.66919 20.4004 9.00039 20.4004H18.6004C18.9316 20.4004 19.2004 20.6692 19.2004 21.0004C19.2004 21.3316 18.9316 21.6004 18.6004 21.6004Z" fill="#8D8D8D"/>
</g>
<defs>
<clipPath id="clip0">
<rect width="36" height="36" fill="white"/>
</clipPath>
</defs>
</svg>
