<svg width="24" height="24" viewBox="0 0 24 24" fill="none" xmlns="http://www.w3.org/2000/svg">
<path d="M12 0C8.81703 0 5.76583 1.2641 3.51409 3.51409C1.2641 5.76559 0 8.81691 0 12C0 15.1831 1.2641 18.2342 3.51409 20.4859C5.76559 22.7359 8.81691 24 12 24C15.1831 24 18.2342 22.7359 20.4859 20.4859C22.7359 18.2344 24 15.1831 24 12C24 8.81691 22.7359 5.76583 20.4859 3.51409C18.2344 1.2641 15.1831 0 12 0ZM12 21.6774C9.43398 21.6774 6.9724 20.6582 5.1577 18.8422C3.34168 17.0277 2.32253 14.5659 2.32253 11.9999C2.32253 9.43383 3.34168 6.97229 5.1577 5.15758C6.97221 3.34156 9.43394 2.32242 12 2.32242C14.5661 2.32242 17.0276 3.34156 18.8423 5.15758C20.6583 6.97209 21.6775 9.43383 21.6775 11.9999C21.6775 14.5659 20.6583 17.0275 18.8423 18.8422C17.0278 20.6582 14.5661 21.6774 12 21.6774Z" fill="#C6C8C9"/>
<path d="M12.7744 6.48884L8.08242 11.1793C7.63029 11.6329 7.63029 12.3678 8.08242 12.8214L12.7744 17.5118L14.415 15.8712L10.5441 12.0003L14.415 8.12932L12.7744 6.48884Z" fill="#C6C8C9"/>
</svg>
