<svg width="120" height="32" viewBox="0 0 120 32" fill="none" xmlns="http://www.w3.org/2000/svg">
<path d="M22.896 24H18.24L16.92 14.328L12.48 24.024H11.112L6.648 14.328L5.352 24H0.672L3.216 7.2H7.824L11.784 16.344L15.768 7.2H20.4L22.896 24ZM36.3461 24L35.4101 21.264H29.4581L28.5221 24H23.5781L30.1781 7.2H34.6901L41.4341 24H36.3461ZM34.2821 17.64L32.4341 12.432L30.5861 17.64H34.2821ZM49.8615 7.2C52.4055 7.2 54.4855 7.984 56.1015 9.552C57.7175 11.12 58.5255 13.136 58.5255 15.6C58.5255 18.048 57.7095 20.064 56.0775 21.648C54.4615 23.216 52.3895 24 49.8615 24H43.0695V7.2H49.8615ZM49.6455 19.752C50.8775 19.752 51.8775 19.368 52.6455 18.6C53.4135 17.832 53.7975 16.824 53.7975 15.576C53.7975 14.344 53.4135 13.352 52.6455 12.6C51.8935 11.832 50.8935 11.448 49.6455 11.448H47.7015V19.752H49.6455ZM69.9763 24L67.2403 18.864H65.5843V24H60.9523V7.2H68.2243C69.4243 7.2 70.4963 7.448 71.4403 7.944C72.3843 8.44 73.1203 9.144 73.6483 10.056C74.1923 10.968 74.4643 12 74.4643 13.152C74.4643 13.824 74.3603 14.464 74.1523 15.072C73.9443 15.664 73.6403 16.2 73.2403 16.68C72.8403 17.16 72.3603 17.56 71.8003 17.88L75.1363 24H69.9763ZM65.5843 11.304V14.952H67.6963C68.3203 14.952 68.8163 14.784 69.1843 14.448C69.5523 14.112 69.7363 13.672 69.7363 13.128C69.7363 12.776 69.6563 12.464 69.4963 12.192C69.3363 11.92 69.0963 11.704 68.7763 11.544C68.4723 11.384 68.1123 11.304 67.6963 11.304H65.5843ZM77.1711 24V7.2H81.8511V24H77.1711ZM93.1564 24.432C90.6124 24.432 88.4844 23.592 86.7724 21.912C85.0764 20.232 84.2284 18.136 84.2284 15.624C84.2284 13.096 85.0764 10.992 86.7724 9.312C88.4844 7.616 90.6124 6.768 93.1564 6.768C95.3644 6.768 97.2444 7.432 98.7964 8.76C100.364 10.088 101.316 11.816 101.652 13.944H96.9724C96.7804 13.368 96.5004 12.872 96.1324 12.456C95.7644 12.024 95.3244 11.688 94.8124 11.448C94.3004 11.208 93.7564 11.088 93.1804 11.088C91.9804 11.088 90.9884 11.52 90.2044 12.384C89.4364 13.232 89.0524 14.312 89.0524 15.624C89.0524 16.472 89.2284 17.24 89.5804 17.928C89.9324 18.6 90.4204 19.128 91.0444 19.512C91.6844 19.896 92.3964 20.088 93.1804 20.088C93.7884 20.088 94.3484 19.96 94.8604 19.704C95.3884 19.448 95.8284 19.088 96.1804 18.624C96.5484 18.16 96.8124 17.624 96.9724 17.016H101.7C101.38 19.224 100.436 21.016 98.8684 22.392C97.3004 23.752 95.3964 24.432 93.1564 24.432ZM113.633 7.2H118.313V24H113.633V17.544H108.593V24H103.937V7.2H108.593V13.272H113.633V7.2Z" fill="#121212"/>
</svg>
