<svg width="24" height="24" viewBox="0 0 24 24" fill="none" xmlns="http://www.w3.org/2000/svg">
<path d="M21.8594 16.4896L20.3998 14.0596C19.4829 12.5314 18.9991 10.7821 19.0001 8.99988C19.0001 6.4986 17.666 4.18764 15.4994 2.93796C13.3338 1.68735 10.6656 1.68735 8.50008 2.93796C6.33352 4.18764 4.99944 6.4986 4.99944 8.99988C5.00037 10.7821 4.51663 12.5315 3.59976 14.0596L2.14008 16.4896C1.95633 16.7989 1.95352 17.1824 2.1307 17.4946C2.30883 17.8068 2.6407 17.9999 2.99977 17.9999H9.17977C9.06352 18.3205 9.00258 18.6589 8.99977 19.0002C8.99977 20.6568 10.3432 22.0002 11.9998 22.0002C13.6563 22.0002 14.9998 20.6568 14.9998 19.0002C14.997 18.6589 14.936 18.3205 14.8198 17.9999H20.9998C21.3588 17.9999 21.6907 17.8068 21.8688 17.4946C22.046 17.1824 22.0432 16.7989 21.8595 16.4896H21.8594ZM11.9998 19.9996C11.5957 19.9996 11.231 19.7558 11.0763 19.3827C10.9207 19.0086 11.0069 18.5783 11.2929 18.2924C11.5788 18.0064 12.0091 17.9211 12.3823 18.0758C12.7563 18.2305 13.0001 18.5952 13.0001 19.0002C13.0001 19.2655 12.8941 19.5196 12.7066 19.7071C12.5191 19.8946 12.2651 19.9996 11.9997 19.9996L11.9998 19.9996ZM4.76976 16.0002L5.32008 15.0899C6.42163 13.2496 7.00195 11.1448 7.00008 8.99988C7.00008 7.21395 7.95259 5.56308 9.49944 4.66956C11.0463 3.77611 12.9533 3.77611 14.5001 4.66956C16.0469 5.56301 16.9994 7.21404 16.9994 8.99988C17.0004 11.1458 17.5844 13.2505 18.6898 15.0899L19.2401 16.0002H4.76976Z" fill="#C6C8C9"/>
</svg>
