<svg width="24" height="24" viewBox="0 0 24 24" fill="none" xmlns="http://www.w3.org/2000/svg">
<path d="M16.3922 12.4326H14.8078L12.0001 14.7848L9.19231 12.4326H7.60792C6.37511 12.4326 5.19376 12.9239 4.32376 13.7976C3.4547 14.6714 2.97002 15.8554 2.97563 17.0883V20.8805H21.0244V17.0883C21.03 15.8554 20.5453 14.6715 19.6762 13.7976C18.8062 12.9239 17.625 12.4326 16.3921 12.4326H16.3922ZM19.1044 18.9604H4.89573V17.0882C4.89011 16.3654 5.17228 15.6688 5.68228 15.1551C6.19135 14.6413 6.88509 14.3525 7.6079 14.3525H8.49571L12.0002 17.2803L15.5047 14.3525H16.3925C17.1153 14.3525 17.809 14.6413 18.3181 15.1551C18.8281 15.6688 19.1103 16.3654 19.1046 17.0882L19.1044 18.9604Z" fill="#C6C8C9"/>
<path d="M12 12.7446C13.2712 12.7446 14.4909 12.2393 15.3909 11.3412C16.2909 10.4431 16.7981 9.22431 16.8 7.95215C16.8019 6.68089 16.2994 5.46023 15.4022 4.55831C14.5059 3.65737 13.2872 3.14831 12.016 3.14456C10.7448 3.13988 9.52315 3.6405 8.62051 4.53582C7.71771 5.43114 7.20677 6.64895 7.2002 7.9203C7.2002 9.1953 7.70552 10.4187 8.60458 11.3225C9.50458 12.2272 10.7252 12.7382 12.0001 12.7447L12 12.7446ZM12 5.04016C13.1653 5.04016 14.2153 5.74141 14.6606 6.81764C15.1069 7.8939 14.8603 9.13326 14.0362 9.95636C13.2131 10.7804 11.9737 11.027 10.8975 10.5807C9.82126 10.1354 9.12003 9.08543 9.12003 7.92011C9.12003 6.32917 10.4091 5.04011 12 5.04011L12 5.04016Z" fill="#C6C8C9"/>
</svg>
