<svg width="20" height="20" viewBox="0 0 20 20" fill="none" xmlns="http://www.w3.org/2000/svg">

<path d="M4.07989 8.93081C4.17208 8.50737 4.30021 8.09097 4.46817 7.69019C4.44317 7.75269 4.41504 7.81519 4.39004 7.87769C4.62286 7.33081 4.92128 6.81675 5.28458 6.34645C5.24396 6.39957 5.20255 6.45191 5.16115 6.50426C5.52053 6.03942 5.93693 5.62302 6.40177 5.26208C6.34864 5.3027 6.2963 5.34411 6.24395 5.38552C6.71113 5.02614 7.22207 4.72692 7.76583 4.49646C7.70333 4.52146 7.64083 4.54958 7.57833 4.57458C8.14709 4.3363 8.74239 4.17614 9.35177 4.09412C9.28302 4.1035 9.21271 4.11365 9.14473 4.12146C9.74785 4.04334 10.3572 4.04334 10.9588 4.12303C10.89 4.11365 10.8197 4.1035 10.7518 4.09568C11.3549 4.17772 11.9455 4.34178 12.508 4.5785C12.4455 4.5535 12.383 4.52538 12.3205 4.50038C12.8674 4.73476 13.383 5.03554 13.8533 5.40038C13.8002 5.35976 13.7478 5.31835 13.6955 5.27694C14.1525 5.63476 14.5643 6.04412 14.9205 6.5035C14.8799 6.45038 14.8385 6.39803 14.7971 6.34569C15.158 6.81445 15.4572 7.32851 15.6877 7.87303C15.6627 7.81053 15.6346 7.74803 15.6096 7.68553C15.7658 8.06209 15.8908 8.45115 15.9807 8.84803C16.0705 9.24647 16.5525 9.51991 16.9416 9.39335C17.3596 9.25897 17.5838 8.86053 17.4869 8.43241C17.1885 7.11601 16.5275 5.88941 15.6041 4.90281C14.7096 3.94813 13.5587 3.23875 12.3151 2.84421C11.0221 2.43405 9.6197 2.39733 8.2995 2.69733C6.95966 3.00357 5.7057 3.69577 4.7199 4.65045C3.75896 5.58013 3.04802 6.77545 2.6823 8.06285C2.63933 8.21129 2.60418 8.36129 2.57136 8.51207C2.52683 8.71675 2.54167 8.93003 2.64949 9.11363C2.74558 9.27613 2.93073 9.43003 3.11667 9.47301C3.31588 9.51755 3.54011 9.50817 3.71823 9.39489C3.8862 9.2902 4.03699 9.12927 4.07995 8.93083L4.07989 8.93081Z" fill="#C6C8C9"/>
<path d="M16.9824 5.58673C16.6918 6.41877 16.4003 7.25235 16.1089 8.08513C16.0683 8.20232 16.0269 8.31951 15.9855 8.43903C16.3058 8.257 16.6261 8.07575 16.9464 7.89371C16.1144 7.60309 15.2808 7.31167 14.448 7.02027C14.3309 6.97965 14.2137 6.93824 14.0941 6.89683C13.9106 6.83277 13.6566 6.87965 13.4926 6.97496C13.3301 7.07105 13.1762 7.2562 13.1332 7.44214C13.0887 7.64136 13.0981 7.86558 13.2113 8.0437C13.327 8.22182 13.477 8.33276 13.6785 8.40308C14.5106 8.6937 15.3441 8.98512 16.1769 9.27652C16.2941 9.31714 16.4113 9.35855 16.5308 9.39996C16.7066 9.46246 16.9777 9.42183 17.1324 9.32183C17.3105 9.20621 17.4214 9.05621 17.4918 8.85465C17.7824 8.02261 18.0738 7.18903 18.3652 6.35625C18.4058 6.23906 18.4472 6.12187 18.4886 6.00235C18.5527 5.81876 18.5058 5.56485 18.4105 5.40079C18.3144 5.23829 18.1293 5.08439 17.9433 5.04141C17.7441 4.99688 17.5199 5.00625 17.3418 5.11953C17.1644 5.23282 17.0527 5.38515 16.9824 5.58671L16.9824 5.58673Z" fill="#C6C8C9"/>
<path d="M16.1042 11.2965C16.012 11.7199 15.8839 12.1363 15.7159 12.5371C15.7409 12.4746 15.7691 12.4121 15.7941 12.3496C15.5612 12.8965 15.2628 13.4106 14.8995 13.8809C14.9401 13.8277 14.9815 13.7754 15.0229 13.7231C14.6636 14.1879 14.2472 14.6043 13.7823 14.9652C13.8355 14.9246 13.8878 14.8832 13.9401 14.8418C13.473 15.2012 12.962 15.5004 12.4183 15.7309C12.4808 15.7059 12.5433 15.6777 12.6058 15.6527C12.037 15.891 11.4417 16.0512 10.8323 16.1332C10.9011 16.1238 10.9714 16.1137 11.0394 16.1059C10.4362 16.184 9.82686 16.184 9.2253 16.1043C9.29405 16.1137 9.36436 16.1238 9.43234 16.1316C8.82922 16.0496 8.23858 15.8855 7.6761 15.6488C7.7386 15.6738 7.8011 15.7019 7.8636 15.7269C7.31672 15.4926 6.8011 15.1918 6.33078 14.8269C6.38391 14.8676 6.43625 14.909 6.48859 14.9504C6.03155 14.5926 5.61983 14.1832 5.26359 13.7238C5.30422 13.7769 5.34563 13.8293 5.38703 13.8816C5.02609 13.4129 4.72687 12.8988 4.49641 12.3543C4.52141 12.4168 4.54954 12.4793 4.57454 12.5418C4.41829 12.1652 4.2933 11.7762 4.20344 11.3793C4.11359 10.9808 3.63156 10.7074 3.2425 10.834C2.82454 10.9683 2.60032 11.3668 2.69718 11.7949C2.99562 13.1113 3.65656 14.3379 4.58 15.3245C5.47454 16.2792 6.6254 16.9886 7.869 17.3831C9.16196 17.7933 10.5644 17.83 11.8846 17.53C13.2244 17.2237 14.4784 16.5315 15.4642 15.5769C16.4251 14.6472 17.1361 13.4519 17.5018 12.1645C17.5448 12.016 17.5799 11.866 17.6127 11.7152C17.6573 11.5106 17.6424 11.2973 17.5346 11.1137C17.4385 10.9512 17.2534 10.7973 17.0674 10.7543C16.8682 10.7098 16.644 10.7191 16.4659 10.8324C16.2979 10.9348 16.1471 11.0973 16.1042 11.2965L16.1042 11.2965Z" fill="#C6C8C9"/>
<path d="M3.20173 14.6389C3.49235 13.8068 3.78377 12.9733 4.07517 12.1405C4.11579 12.0233 4.1572 11.9061 4.19861 11.7866C3.87829 11.9686 3.55799 12.1499 3.23767 12.3319C4.06971 12.6225 4.90329 12.9139 5.73607 13.2053C5.85326 13.246 5.97045 13.2874 6.08997 13.3288C6.27356 13.3928 6.52747 13.346 6.69153 13.2507C6.85403 13.1546 7.00793 12.9694 7.05091 12.7835C7.09544 12.5843 7.08606 12.36 6.97278 12.1819C6.85716 12.0038 6.70716 11.8929 6.5056 11.8225C5.67356 11.5319 4.83998 11.2405 4.0072 10.9491C3.89002 10.9085 3.77282 10.8671 3.6533 10.8257C3.47752 10.7632 3.20642 10.8038 3.05174 10.9038C2.87362 11.0194 2.76268 11.1694 2.69236 11.371C2.40174 12.203 2.11032 13.0366 1.81892 13.8694C1.7783 13.9866 1.73689 14.1037 1.69549 14.2233C1.63142 14.4069 1.6783 14.6608 1.77361 14.8248C1.8697 14.9873 2.05485 15.1412 2.24079 15.1842C2.44001 15.2287 2.66423 15.2194 2.84235 15.1061C3.01969 14.9905 3.13141 14.8381 3.20173 14.6389V14.6389Z" fill="#C6C8C9"/>
</svg>
