<svg width="16" height="16" viewBox="0 0 16 16" fill="none" xmlns="http://www.w3.org/2000/svg">
<path fill-rule="evenodd" clip-rule="evenodd" d="M12.4459 11.3781L10.6436 9.57582C11.3945 8.4675 11.5411 7.05724 11.0341 5.81808C10.5275 4.57892 9.43412 3.67571 8.12143 3.41163C6.80915 3.14755 5.45173 3.55789 4.50504 4.50456C3.55839 5.4512 3.14804 6.80856 3.41212 8.12094C3.6762 9.43364 4.57941 10.527 5.81857 11.0336C7.05773 11.5406 8.46798 11.394 9.5763 10.6432L11.3786 12.4454C11.6735 12.74 12.1513 12.74 12.4459 12.4454C12.7405 12.1509 12.7405 11.6731 12.4459 11.3781L12.4459 11.3781ZM7.33159 9.99996C6.62344 10.0004 5.94412 9.71922 5.44321 9.21868C4.9423 8.71814 4.66112 8.03881 4.66071 7.33071C4.66071 6.62256 4.94226 5.94324 5.4428 5.44233C5.94375 4.94179 6.6231 4.66024 7.33119 4.66024C8.03934 4.66064 8.71867 4.94179 9.21916 5.44274C9.71965 5.94369 10.0008 6.62303 10.0004 7.33112C10.0004 8.03927 9.71929 8.71818 9.21875 9.21836C8.71861 9.7189 8.03971 10 7.33151 10L7.33159 9.99996Z" fill="#121212"/>
</svg>
