<svg width="24" height="24" viewBox="0 0 24 24" fill="none" xmlns="http://www.w3.org/2000/svg">
<circle cx="12" cy="12" r="12" fill="#FFDFDF"/>
<path d="M13.6087 15.8833H13.6344C13.8928 15.8833 14.1123 15.6896 14.1254 15.4181L14.4226 10.7419C14.4357 10.4704 14.2288 10.2383 13.9705 10.2252C13.699 10.2121 13.4669 10.419 13.4538 10.6773L13.1565 15.3667C13.1303 15.6381 13.3372 15.8702 13.6087 15.8834L13.6087 15.8833Z" fill="#FF0000"/>
<path d="M11.9812 15.8827C12.2527 15.8827 12.4722 15.6632 12.4722 15.3917V10.7156C12.4722 10.4441 12.2527 10.2246 11.9812 10.2246C11.7097 10.2246 11.4902 10.4441 11.4902 10.7156V15.3917C11.4902 15.6632 11.7097 15.8827 11.9812 15.8827Z" fill="#FF0000"/>
<path d="M10.3151 15.8815H10.3408C10.6123 15.8684 10.8187 15.6363 10.8061 15.3648L10.5089 10.6887C10.4958 10.4172 10.2505 10.2108 9.99217 10.2365C9.72068 10.2497 9.51431 10.4818 9.52692 10.7533L9.82413 15.4294C9.84987 15.6878 10.0694 15.8815 10.3151 15.8815H10.3151Z" fill="#FF0000"/>
<path d="M17.4712 7.84736H14.0222V6.49098C14.0222 6.2195 13.8027 6 13.5312 6H10.4309C10.1594 6 9.93994 6.2195 9.93994 6.49098V7.84736H6.49098C6.2195 7.84736 6 8.06687 6 8.33835C6 8.60983 6.2195 8.82933 6.49098 8.82933H7.17574L7.7959 17.0449C7.84737 17.7296 8.42867 18.2721 9.12657 18.2721H14.8362C15.5335 18.2721 16.1148 17.7296 16.1668 17.0449L16.7996 8.82882H17.4844C17.7558 8.82882 17.9753 8.60931 17.9753 8.33783C17.9748 8.06685 17.7427 7.84735 17.4712 7.84735L17.4712 7.84736ZM10.9219 6.98197H13.0402V7.84736H10.9219V6.98197ZM15.1848 16.9671C15.1717 17.1478 15.0168 17.2901 14.8361 17.2901H9.12603C8.94539 17.2901 8.78996 17.1478 8.77735 16.9671L8.15719 8.82884H15.8176L15.1848 16.9671Z" fill="#FF0000"/>
</svg>
